<svg width="54" height="54" viewBox="0 0 54 54" fill="none" xmlns="http://www.w3.org/2000/svg">
<path d="M16.5964 47.8699C16.5964 49.0206 15.6643 49.9516 14.513 49.9516C13.3634 49.9516 12.4319 49.0201 12.4319 47.8699V18.6791C12.4319 16.1654 13.4406 14.7128 14.2841 13.9379C15.9435 12.4162 18.0635 12.4081 18.6241 12.4335H35.2809C37.5937 12.4335 39.0112 13.3763 39.7926 14.169C41.5627 15.9645 41.6027 18.3789 41.5832 18.7094V35.2803C41.5832 38.3875 39.6706 41.5281 35.3943 41.5281C30.8507 41.5281 29.1676 37.8389 29.1406 35.3592V27.0243C29.1406 25.9119 28.2388 25.0074 27.1258 25.0074C26.0118 25.0074 25.1089 25.9124 25.1089 27.0243V43.6293C25.1451 44.0321 25.4043 45.7904 27.0086 45.7904C30.7438 45.7904 43.5359 45.7121 43.5359 45.7121C44.1558 45.6743 45.7855 45.3924 45.7855 43.6293V10.3512C45.7364 9.65356 45.3616 8.30734 43.4344 8.30734H10.2341C9.53587 8.35162 8.20855 8.68534 8.20855 10.4101V47.8704C8.20855 49.0212 7.27651 49.9521 6.12523 49.9521C4.97557 49.9521 4.04407 49.0206 4.04407 47.8704V10.4101C4.04407 5.96158 7.70419 4.22602 10.165 4.14502H43.4344C48.0443 4.14502 49.8587 7.80892 49.9506 10.274L49.9522 43.6293C49.9522 48.0443 46.1679 49.7831 43.6255 49.8749C43.5607 49.8749 30.7492 49.9521 27.0081 49.9521C22.8177 49.9521 21.0902 46.2407 20.9477 43.7465L20.9439 27.0248C20.9439 23.6169 23.7163 20.844 27.1253 20.844C30.537 20.844 33.3056 23.6174 33.3056 27.0248V35.3397C33.3401 36.2383 33.7295 37.3658 35.3938 37.3658C36.0488 37.3658 37.4188 37.3658 37.4188 35.2809V18.6791C37.4063 17.7298 37.0235 16.5985 35.2798 16.5985L18.3854 16.5904C18.3854 16.5904 17.5581 16.5683 17.0872 17.0175C16.7611 17.3259 16.5953 17.8875 16.5953 18.6786L16.5964 47.8699Z" fill="#FFA300"/>
</svg>
