<svg width="54" height="54" viewBox="0 0 54 54" fill="none" xmlns="http://www.w3.org/2000/svg">
<path fill-rule="evenodd" clip-rule="evenodd" d="M9.76483 7.875H4.5V9.06144H6.87288V10.2479H4.5V10.5445H6.87288V11.9534H4.5V12.25H6.87288V13.3622H5.87182C5.54985 13.3622 5.25378 13.4731 5.01975 13.6589H4.5V14.734V44.6176C4.5 46.0714 5.67857 47.25 7.13242 47.25C8.58626 47.25 9.76483 46.0714 9.76483 44.6176V14.734V13.6589H9.24508C9.01105 13.4731 8.71498 13.3622 8.39301 13.3622H7.39197V12.25H9.76483V11.9534H7.39197V10.5445H9.76483V10.2479H7.39197V9.06144H9.76483V7.875Z" fill="#FFA300"/>
<path fill-rule="evenodd" clip-rule="evenodd" d="M15.4746 7.875H10.2098V44.6176C10.2098 46.0714 11.3884 47.25 12.8422 47.25C14.296 47.25 15.4746 46.0714 15.4746 44.6176V14.7424C15.4746 14.7396 15.4746 14.7368 15.4746 14.734C15.4746 14.7313 15.4746 14.7285 15.4746 14.7257V13.6589H14.9549C14.7209 13.4731 14.4248 13.3622 14.1028 13.3622H13.1018V12.25H15.4746V11.9534H13.1018V10.5445H15.4746V10.2479H13.1018V9.06144H15.4746V7.875ZM12.5827 13.3622V12.25H10.2098V13.6589H10.7296C10.9636 13.4731 11.2597 13.3622 11.5816 13.3622H12.5827ZM12.5827 9.06144H10.2098V10.2479H12.5827V9.06144ZM10.2098 10.5445H12.5827V11.9534H10.2098V10.5445Z" fill="#FFA300"/>
<path fill-rule="evenodd" clip-rule="evenodd" d="M21.1843 7.875H15.9195V9.06144H18.2923V10.2479H15.9195V10.5445H18.2923V11.9534H15.9195V12.25H18.2923V13.3622H17.2913C16.9693 13.3622 16.6732 13.4731 16.4392 13.6589H15.9195V14.7219C15.9195 14.726 15.9194 14.73 15.9194 14.734C15.9194 14.7381 15.9195 14.7421 15.9195 14.7462V44.6176C15.9195 46.0714 17.0981 47.25 18.5519 47.25C20.0057 47.25 21.1843 46.0714 21.1843 44.6176V7.875ZM20.6645 13.6589H21.1843V12.25H18.8114V13.3622H19.8124C20.1344 13.3622 20.4305 13.4731 20.6645 13.6589ZM18.8114 9.06144H21.1843V10.2479H18.8114V9.06144ZM21.1843 10.5445H18.8114V11.9534H21.1843V10.5445Z" fill="#FFA300"/>
<path fill-rule="evenodd" clip-rule="evenodd" d="M26.8942 7.875H21.6294V9.06144H24.0022V10.2479H21.6294V10.5445H24.0022V11.9534H21.6294V12.25H24.0022V13.3622H23.0012C22.6792 13.3622 22.3831 13.4731 22.1491 13.6589H21.6294V14.7208C21.6294 14.7252 21.6293 14.7296 21.6293 14.734C21.6293 14.7385 21.6294 14.7429 21.6294 14.7473V44.6176C21.6294 46.0714 22.808 47.25 24.2618 47.25C25.7157 47.25 26.8942 46.0714 26.8942 44.6176V7.875ZM26.3744 13.6589H26.8941V12.25H24.5212V13.3622H25.5223C25.8443 13.3622 26.1404 13.4731 26.3744 13.6589ZM24.5212 9.06144H26.8941V10.2479H24.5212V9.06144ZM26.8941 10.5445H24.5212V11.9534H26.8941V10.5445Z" fill="#FFA300"/>
<path fill-rule="evenodd" clip-rule="evenodd" d="M32.6038 7.875H27.3389V9.06144H29.7118V10.2479H27.3389V10.5445H29.7118V11.9534H27.3389V12.25H29.7118V13.3622H28.7108C28.3888 13.3622 28.0927 13.4731 27.8587 13.6589H27.3389L27.3389 14.7317C27.3389 14.7325 27.3389 14.7333 27.3389 14.734C27.3389 14.7348 27.3389 14.7356 27.3389 14.7364L27.3389 44.6176C27.3389 46.0714 28.5175 47.25 29.9713 47.25C31.4252 47.25 32.6038 46.0714 32.6038 44.6176V13.6589H32.084C31.85 13.4731 31.5539 13.3622 31.2319 13.3622H30.2309V12.25H32.6038V11.9534H30.2309V10.5445H32.6038V10.2479H30.2309V9.06144H32.6038V7.875Z" fill="#FFA300"/>
<path fill-rule="evenodd" clip-rule="evenodd" d="M38.3135 7.875H33.0487V44.6176C33.0487 46.0714 34.2273 47.25 35.6811 47.25C37.135 47.25 38.3135 46.0714 38.3135 44.6176V14.7467C38.3136 14.7425 38.3136 14.7383 38.3136 14.734C38.3136 14.7298 38.3136 14.7256 38.3135 14.7214V13.6589H37.7938C37.5598 13.4731 37.2637 13.3622 36.9418 13.3622H35.9408V12.25H38.3135V11.9534H35.9408V10.5445H38.3135V10.2479H35.9408V9.06144H38.3135V7.875ZM35.4216 13.3622V12.25H33.0488V13.6589H33.5685C33.8025 13.4731 34.0986 13.3622 34.4206 13.3622H35.4216ZM35.4216 9.06144H33.0488V10.2479H35.4216V9.06144ZM33.0488 10.5445H35.4216V11.9534H33.0488V10.5445Z" fill="#FFA300"/>
<path fill-rule="evenodd" clip-rule="evenodd" d="M44.0233 7.875H38.7585V9.06144H41.1314V10.2479H38.7585V10.5445H41.1314V11.9534H38.7585V12.25H41.1314V13.3622H40.1303C39.8083 13.3622 39.5123 13.4731 39.2782 13.6589H38.7585V14.726C38.7585 14.7287 38.7585 14.7314 38.7585 14.734C38.7585 14.7367 38.7585 14.7394 38.7585 14.7421V44.6176C38.7585 46.0714 39.9371 47.25 41.3909 47.25C42.8448 47.25 44.0233 46.0714 44.0233 44.6176V7.875ZM43.5036 13.6589H44.0232V12.25H41.6503V13.3622H42.6515C42.9735 13.3622 43.2695 13.4731 43.5036 13.6589ZM41.6503 9.06144H44.0232V10.2479H41.6503V9.06144ZM44.0232 10.5445H41.6503V11.9534H44.0232V10.5445Z" fill="#FFA300"/>
<path fill-rule="evenodd" clip-rule="evenodd" d="M49.733 7.875H44.4682V44.6176C44.4682 46.0714 45.6468 47.25 47.1006 47.25C48.5545 47.25 49.733 46.0714 49.733 44.6176V14.7513C49.7331 14.7456 49.7331 14.7398 49.7331 14.734C49.7331 14.7283 49.7331 14.7225 49.733 14.7167V13.6589H49.2134C48.9794 13.4731 48.6833 13.3622 48.3613 13.3622H47.3602V12.25H49.733V11.9534H47.3602V10.5445H49.733V10.2479H47.3602V9.06144H49.733V7.875ZM46.8412 13.3622V12.25H44.4683V13.6589H44.9881C45.2221 13.4731 45.5182 13.3622 45.8401 13.3622H46.8412ZM46.8412 9.06144H44.4683V10.2479H46.8412V9.06144ZM44.4683 10.5445H46.8412V11.9534H44.4683V10.5445Z" fill="#FFA300"/>
</svg>
