<svg width="28" height="20" viewBox="0 0 28 20" fill="none" xmlns="http://www.w3.org/2000/svg">
<path d="M28 9.46938C28 4.4438 21.7326 0.34729 14.0007 0.34729C6.26922 0.34729 0.00184698 4.4438 0.00184698 9.46938C0.00184698 9.59897 0 9.95777 0 10.0034C0 15.3345 5.47818 19.6528 13.9987 19.6528C22.5723 19.6528 28 15.3357 28 10.0044C28 9.81806 28 9.71081 28 9.46938Z" fill="#2D3277"/>
<path d="M27.4639 9.4649C27.4639 14.2027 21.4373 18.0434 14.0032 18.0434C6.56879 18.0434 0.542847 14.2027 0.542847 9.4649C0.542847 4.72662 6.56879 0.885742 14.0032 0.885742C21.4375 0.885742 27.4639 4.72662 27.4639 9.4649Z" fill="#FFE600"/>
<path d="M9.53382 6.75827C9.52657 6.7718 9.3924 6.9102 9.47934 7.02139C9.69201 7.29174 10.3478 7.44669 11.0113 7.29857C11.4064 7.21012 11.9125 6.80874 12.4033 6.42115C12.9348 6.00032 13.4624 5.57909 13.9926 5.41151C14.5539 5.23356 14.9135 5.30992 15.1511 5.38155C15.412 5.45896 15.7183 5.62995 16.2073 5.99545C17.1283 6.68519 20.8323 9.9056 21.4719 10.4625C21.9872 10.2304 24.2773 9.24832 27.3899 8.56463C27.1197 6.91164 26.1099 5.39942 24.5793 4.16084C22.4461 5.0535 19.8386 5.51929 17.2888 4.27886C17.2759 4.27347 15.8958 3.62277 14.5346 3.65483C12.5118 3.70149 11.6357 4.57392 10.708 5.49721L9.53382 6.75827Z" fill="white"/>
<path d="M21.3215 10.8127C21.2783 10.7742 16.9666 7.01609 15.9902 6.28468C15.4249 5.86254 15.1105 5.75463 14.7803 5.71284C14.6085 5.69063 14.3709 5.72243 14.2051 5.76764C13.7507 5.89079 13.1566 6.28652 12.6292 6.70315C12.0829 7.13634 11.5682 7.54456 11.0901 7.65115C10.48 7.78744 9.73443 7.62657 9.39432 7.39736C9.25632 7.3051 9.15935 7.19851 9.11265 7.09008C8.98719 6.79975 9.21912 6.56765 9.25698 6.52875L10.4467 5.24679C10.5847 5.10932 10.7243 4.97171 10.8668 4.83621C10.4827 4.88602 10.1281 4.98367 9.78271 5.07948C9.35171 5.20026 8.93706 5.315 8.51766 5.315C8.34246 5.315 7.40405 5.16162 7.22608 5.11339C6.14929 4.81991 5.20442 4.53392 3.79279 3.87756C2.10173 5.13179 0.970453 6.70026 0.643799 8.42776C0.886678 8.49177 1.27837 8.60782 1.44275 8.64423C5.27025 9.49208 6.46248 10.3656 6.67871 10.5476C6.91288 10.2883 7.25049 10.1239 7.62754 10.1239C8.05116 10.1244 8.43283 10.3364 8.66462 10.6639C8.88402 10.4915 9.18627 10.3441 9.57704 10.3443C9.75448 10.3443 9.93878 10.377 10.1247 10.4399C10.5562 10.5875 10.779 10.8739 10.8949 11.133C11.0396 11.0679 11.2178 11.0199 11.4275 11.0205C11.6335 11.0205 11.8479 11.0673 12.064 11.1604C12.7697 11.4621 12.8797 12.1527 12.8155 12.6734C12.8657 12.6674 12.9163 12.6652 12.9677 12.6652C13.8044 12.6656 14.4848 13.3431 14.4848 14.1771C14.4848 14.4353 14.4185 14.678 14.3034 14.8908C14.5309 15.0184 15.1113 15.307 15.6208 15.2427C16.0278 15.1912 16.1823 15.053 16.2378 14.9749C16.2757 14.9214 16.3158 14.8588 16.2782 14.8139L15.1984 13.6186C15.1984 13.6186 15.0204 13.4511 15.0792 13.3862C15.1402 13.3197 15.2497 13.415 15.3276 13.48C15.8774 13.9373 16.5484 14.6275 16.5484 14.6275C16.5595 14.6348 16.6043 14.722 16.8523 14.7663C17.0662 14.8044 17.4439 14.7825 17.7059 14.5685C17.7719 14.5142 17.838 14.4463 17.8931 14.377C17.889 14.3798 17.8852 14.3849 17.8812 14.3866C18.1574 14.0343 17.8506 13.6781 17.8506 13.6781L16.5897 12.2677C16.5897 12.2677 16.4096 12.1016 16.4707 12.0348C16.5257 11.977 16.6417 12.0644 16.7205 12.1299C17.12 12.4624 17.6841 13.0265 18.2244 13.5539C18.3297 13.6312 18.8053 13.9235 19.434 13.5118C19.8161 13.2626 19.8928 12.956 19.8819 12.725C19.8554 12.419 19.6156 12.2008 19.6156 12.2008L17.8932 10.476C17.8932 10.476 17.7115 10.3209 17.776 10.2427C17.8281 10.177 17.9465 10.2718 18.0239 10.3365C18.5727 10.7937 20.0579 12.1502 20.0579 12.1502C20.0786 12.1652 20.592 12.5291 21.2261 12.127C21.4529 11.9825 21.5978 11.7647 21.6101 11.512C21.6325 11.0732 21.3215 10.8127 21.3215 10.8127Z" fill="white"/>
<path d="M12.9678 12.9995C12.7008 12.9964 12.4085 13.1545 12.3702 13.1315C12.3492 13.1175 12.3867 13.0107 12.4116 12.9492C12.4372 12.8877 12.7889 11.8335 11.9317 11.4675C11.2756 11.1866 10.8749 11.5025 10.7369 11.6451C10.7006 11.6827 10.6847 11.6796 10.6805 11.6317C10.6673 11.4422 10.5822 10.9285 10.0155 10.7567C9.20656 10.5095 8.68624 11.0724 8.55418 11.2753C8.49521 10.816 8.1051 10.4593 7.62752 10.4587C7.10864 10.4582 6.68793 10.8771 6.68713 11.394C6.687 11.9108 7.10759 12.3298 7.62659 12.3298C7.87871 12.3306 8.10747 12.2299 8.27594 12.0687C8.28122 12.0733 8.28333 12.0824 8.28056 12.1002C8.24111 12.3316 8.16829 13.1727 9.05234 13.515C9.40696 13.6519 9.70855 13.5503 9.95842 13.3755C10.0331 13.3231 10.0451 13.3451 10.0344 13.4151C10.0025 13.6314 10.0429 14.0945 10.6946 14.3576C11.1905 14.5581 11.4839 14.3526 11.6763 14.1757C11.7598 14.0995 11.7827 14.1121 11.7871 14.2296C11.8107 14.8558 12.3327 15.3526 12.9665 15.353C13.6194 15.3534 14.1485 14.8274 14.149 14.1775C14.1496 13.5268 13.6206 13.0066 12.9678 12.9995Z" fill="white"/>
<path d="M21.488 10.363C20.1602 9.20809 17.0909 6.54994 16.2597 5.92815C15.7847 5.57237 15.4608 5.38456 15.1765 5.30005C15.0485 5.26167 14.8718 5.21791 14.6444 5.21765C14.4328 5.21765 14.2057 5.25576 13.9687 5.33094C13.4316 5.50022 12.8964 5.92408 12.3785 6.33374L12.352 6.35477C11.8696 6.73657 11.3713 7.13165 10.9942 7.2155C10.8297 7.25243 10.6604 7.27162 10.4913 7.27162C10.0691 7.27096 9.68945 7.14965 9.5471 6.96881C9.52362 6.93897 9.53879 6.89047 9.59367 6.82095L9.60093 6.81175L10.7692 5.55752C11.6845 4.64593 12.5487 3.78533 14.5381 3.7396C14.5711 3.73868 14.6047 3.73828 14.6377 3.73828C15.8758 3.73907 17.1138 4.29133 17.2526 4.35534C18.414 4.91943 19.6124 5.20608 20.8174 5.20713C22.073 5.20753 23.3684 4.89775 24.7307 4.27293C24.5786 4.14532 24.42 4.02151 24.2573 3.89968C23.0608 4.41659 21.9206 4.67774 20.821 4.67734C19.6975 4.67642 18.5747 4.40765 17.4849 3.87786C17.4276 3.85052 16.0605 3.20849 14.6385 3.2077C14.6013 3.2077 14.5633 3.20849 14.5261 3.20889C12.8549 3.24779 11.9135 3.83909 11.2808 4.35705C10.6651 4.37177 10.1338 4.51989 9.66135 4.65132C9.23971 4.76803 8.87533 4.86949 8.52018 4.8691C8.37413 4.8691 8.11067 4.85569 8.08679 4.85503C7.67834 4.84255 5.62079 4.33983 3.9837 3.72251C3.81641 3.84027 3.65573 3.96197 3.49913 4.08591C5.20918 4.78432 7.29034 5.32463 7.94708 5.36708C8.12967 5.37891 8.32453 5.39954 8.51938 5.39994C8.95382 5.39994 9.38721 5.27837 9.80727 5.16153C10.0549 5.092 10.3286 5.01669 10.6161 4.96175C10.5393 5.03667 10.4629 5.1129 10.3862 5.18991L9.19881 6.46898C9.10514 6.56282 8.90277 6.81372 9.03628 7.12258C9.08944 7.24717 9.19736 7.36625 9.34816 7.46771C9.63127 7.65736 10.1377 7.78564 10.6082 7.78603C10.7866 7.78603 10.9553 7.76842 11.1108 7.73359C11.6083 7.62227 12.1303 7.2084 12.683 6.77048C13.1237 6.42154 13.7497 5.97888 14.229 5.8489C14.3626 5.81249 14.527 5.79015 14.6594 5.79015C14.6988 5.79041 14.736 5.7916 14.7709 5.79646C15.0874 5.83655 15.3936 5.94392 15.9401 6.3524C16.9141 7.08157 21.2263 10.8391 21.2684 10.8763C21.2715 10.8788 21.5462 11.115 21.5271 11.5078C21.5168 11.7267 21.3948 11.9213 21.1828 12.0564C20.9987 12.1725 20.8087 12.2317 20.6165 12.2317C20.3284 12.2311 20.13 12.0966 20.1173 12.0874C20.1013 12.0746 18.6241 10.725 18.0806 10.2719C17.9938 10.2004 17.9099 10.1362 17.8245 10.1362C17.7791 10.1358 17.7389 10.1552 17.7119 10.1891C17.6264 10.2941 17.7222 10.4393 17.835 10.535L19.561 12.2629C19.5632 12.265 19.7756 12.4637 19.7991 12.7287C19.8127 13.0152 19.6753 13.2545 19.3896 13.4416C19.1859 13.575 18.9796 13.6428 18.7777 13.6428C18.5129 13.6428 18.3269 13.5224 18.2857 13.494L18.038 13.2508C17.5856 12.8073 17.1186 12.349 16.7766 12.0646C16.6932 11.9956 16.6042 11.932 16.5192 11.932C16.4775 11.932 16.4395 11.9473 16.4105 11.9778C16.3715 12.0211 16.3446 12.0987 16.4415 12.2274C16.4814 12.2802 16.5285 12.3241 16.5285 12.3241L17.788 13.7329C17.7984 13.7455 18.0476 14.0403 17.8161 14.3343L17.7719 14.3905C17.7342 14.4321 17.6934 14.4702 17.6547 14.5027C17.4401 14.6786 17.153 14.6975 17.0394 14.6975C16.9785 14.6975 16.9198 14.6921 16.8687 14.6832C16.7448 14.6608 16.6612 14.6263 16.6211 14.5785L16.6055 14.5632C16.5368 14.4919 15.9019 13.8466 15.3769 13.4099C15.3076 13.3522 15.2213 13.2791 15.132 13.2791C15.0881 13.2791 15.0485 13.2963 15.0184 13.3298C14.9143 13.4434 15.0707 13.6127 15.1368 13.675L16.2109 14.8548C16.2096 14.8656 16.1959 14.8902 16.1699 14.9275C16.1314 14.9799 16.0012 15.1098 15.6114 15.1591C15.5649 15.1647 15.5167 15.1673 15.4692 15.1673C15.0672 15.1673 14.639 14.9731 14.4179 14.8564C14.5184 14.6448 14.5705 14.412 14.5705 14.1781C14.5711 13.2974 13.8531 12.5813 12.9691 12.5806C12.9503 12.5806 12.9303 12.5813 12.9111 12.582C12.9402 12.1798 12.8832 11.4186 12.0987 11.0833C11.8733 10.9859 11.6479 10.9365 11.4289 10.9365C11.2577 10.9365 11.093 10.9657 10.9376 11.025C10.7755 10.7103 10.5056 10.4812 10.1533 10.3615C9.95898 10.2945 9.76544 10.2606 9.5785 10.2606C9.25211 10.2606 8.95132 10.3561 8.68297 10.5462C8.42611 10.2281 8.03758 10.0394 7.62874 10.0394C7.27135 10.0394 6.92701 10.1821 6.67213 10.4335C6.33795 10.1792 5.01168 9.34005 1.46256 8.53728C1.29065 8.49851 0.896057 8.38574 0.654365 8.3153C0.614259 8.50666 0.583784 8.70025 0.563599 8.89556C0.563599 8.89556 1.21836 9.05169 1.34712 9.08034C4.9729 9.88259 6.17093 10.717 6.37358 10.8745C6.30497 11.0385 6.26935 11.2158 6.26896 11.3943C6.26856 12.1401 6.87767 12.7481 7.62729 12.7489C7.71146 12.7489 7.79457 12.7417 7.87663 12.7266C7.98943 13.2756 8.35012 13.6919 8.90145 13.9054C9.0624 13.9673 9.22546 13.9988 9.38536 13.9988C9.48879 13.9992 9.59301 13.9862 9.69473 13.9604C9.79645 14.2182 10.0259 14.5391 10.5379 14.7462C10.7172 14.8185 10.8969 14.8563 11.0715 14.8563C11.2141 14.8563 11.3536 14.8315 11.4866 14.7823C11.732 15.3779 12.3159 15.7727 12.9672 15.7727C13.3986 15.7731 13.813 15.598 14.1152 15.288C14.3736 15.4315 14.9201 15.6903 15.4715 15.6914C15.543 15.6914 15.61 15.6864 15.6767 15.6779C16.2246 15.6089 16.4798 15.3959 16.5969 15.2298C16.6179 15.2009 16.637 15.1701 16.6533 15.1384C16.7828 15.1751 16.925 15.2053 17.0878 15.2057C17.3871 15.2057 17.674 15.1044 17.9646 14.8937C18.2497 14.6883 18.4525 14.3947 18.4815 14.1442C18.4821 14.141 18.483 14.1369 18.4834 14.1334C18.5792 14.1531 18.6778 14.1635 18.7765 14.1635C19.0844 14.1635 19.3872 14.0675 19.6769 13.8788C20.2355 13.514 20.3326 13.0373 20.3234 12.7257C20.4211 12.746 20.5211 12.7565 20.6202 12.7565C20.9097 12.7565 21.1936 12.6695 21.4643 12.4976C21.8103 12.2772 22.0188 11.9397 22.0501 11.5467C22.0721 11.2797 22.0055 11.0104 21.8642 10.7789C22.7998 10.3773 24.9387 9.59988 27.4574 9.03461C27.4422 8.84009 27.4141 8.64807 27.3793 8.45684C24.3317 9.13002 22.0578 10.1104 21.488 10.363ZM12.9677 15.2692C12.3759 15.2685 11.8949 14.8109 11.8733 14.2271C11.8714 14.1768 11.8664 14.0436 11.7535 14.0436C11.7069 14.0436 11.6667 14.0714 11.6201 14.113C11.49 14.2334 11.3242 14.3554 11.0822 14.3554C10.9722 14.3554 10.8533 14.3303 10.7275 14.2788C10.1025 14.0268 10.0941 13.599 10.1197 13.4272C10.1264 13.3811 10.1286 13.3338 10.0971 13.2963L10.0589 13.2622H10.0197C9.98774 13.2622 9.95529 13.2752 9.91083 13.3064C9.72982 13.4326 9.5566 13.4941 9.38035 13.4941C9.28351 13.4941 9.18404 13.4748 9.08403 13.4366C8.26133 13.1173 8.32651 12.3437 8.36648 12.1107C8.37268 12.0638 8.36081 12.027 8.3306 12.0028L8.27255 11.9551L8.21819 12.0071C8.05777 12.1612 7.848 12.2453 7.62742 12.2453C7.1563 12.2449 6.77279 11.8632 6.77305 11.394C6.77345 10.9242 7.15723 10.543 7.62861 10.5435C8.05447 10.5435 8.41701 10.8627 8.47149 11.2864L8.50052 11.5148L8.62651 11.3216C8.64076 11.2987 8.98601 10.7787 9.62085 10.7793C9.74156 10.7793 9.86624 10.7986 9.99183 10.8373C10.4978 10.9912 10.5834 11.4482 10.5967 11.6386C10.6057 11.7498 10.685 11.7548 10.7005 11.7548C10.7442 11.7548 10.7765 11.7275 10.7992 11.7033C10.8947 11.604 11.1027 11.4391 11.4284 11.4391C11.5771 11.4394 11.7357 11.4745 11.8994 11.5448C12.7037 11.8885 12.339 12.9065 12.3345 12.9173C12.2652 13.0859 12.2627 13.1604 12.3276 13.2035L12.3594 13.2183H12.3825C12.4189 13.2183 12.464 13.2027 12.5384 13.1775C12.6479 13.1398 12.8132 13.0829 12.9676 13.0833H12.968C13.5735 13.0901 14.0659 13.5809 14.0655 14.1772C14.0651 14.78 13.5725 15.2692 12.9677 15.2692Z" fill="#2D3277"/>
</svg>
