<svg width="35" height="35" viewBox="0 0 35 35" fill="none" xmlns="http://www.w3.org/2000/svg">
<path d="M28.0007 0H7.00141C3.13337 0 0 3.13336 0 7.00016V27.9994C0 31.8654 3.13296 34.9988 7.00141 34.9988H28.0007C31.8662 34.9988 35 31.8654 35 27.9994V7.00016C35 3.13336 31.8658 0 28.0007 0ZM12.6277 23.8997C12.5516 24.1911 12.4849 24.4434 12.4367 24.7138C12.3384 25.2743 12.1301 25.6036 11.9132 25.6036C11.8301 25.6036 11.7473 25.5563 11.6671 25.4567C11.3777 25.0932 11.253 24.173 11.3893 23.3996C11.479 22.8859 11.586 22.4809 11.6807 22.1229C11.8556 21.4565 11.9618 21.054 11.9618 20.0732C11.9618 19.0924 11.8556 18.6907 11.6798 18.0235C11.4732 17.2349 11.1888 16.1554 11.1888 14.1971C11.1888 12.2396 11.4732 11.16 11.6798 10.371C11.7058 10.2747 11.7309 10.1767 11.756 10.0788C11.9354 9.37045 12.2951 9.18237 12.5598 9.6598C12.8257 10.1372 12.8961 11.0979 12.717 11.8062C12.6882 11.9218 12.6582 12.035 12.6281 12.1478C12.4536 12.8142 12.3483 13.2167 12.3483 14.1975C12.3483 15.1774 12.4536 15.58 12.6281 16.2467C12.8356 17.0361 13.12 18.1157 13.12 20.0732C13.1196 22.0307 12.8351 23.1107 12.6277 23.8997ZM17.9737 23.8997C17.8972 24.1911 17.8309 24.4434 17.7828 24.7138C17.6844 25.2743 17.4757 25.6036 17.2588 25.6036C17.1757 25.6036 17.0929 25.5563 17.0127 25.4567C16.7233 25.0932 16.5991 24.173 16.7349 23.3996C16.8246 22.8859 16.932 22.4809 17.0263 22.1229C17.2008 21.4565 17.307 21.054 17.307 20.0732C17.307 19.0924 17.2008 18.6907 17.0254 18.0235C16.8188 17.2349 16.5344 16.1554 16.5344 14.1971C16.5344 12.2396 16.8188 11.16 17.0254 10.371C17.0514 10.2747 17.0765 10.1767 17.1016 10.0788C17.2815 9.37045 17.6412 9.18237 17.9054 9.6598C18.1717 10.1372 18.2417 11.0979 18.0626 11.8062C18.0338 11.9218 18.0034 12.035 17.9737 12.1478C17.7992 12.8142 17.6939 13.2167 17.6939 14.1975C17.6939 15.1774 17.7988 15.58 17.9737 16.2467C18.1812 17.0361 18.466 18.1157 18.466 20.0732C18.466 22.0307 18.1812 23.1107 17.9737 23.8997ZM23.3198 23.8997C23.2432 24.1911 23.1769 24.4434 23.1288 24.7138C23.0304 25.2743 22.8222 25.6036 22.6053 25.6036C22.5233 25.6036 22.4394 25.5563 22.3591 25.4567C22.0698 25.0932 21.9451 24.173 22.0809 23.3996C22.171 22.8859 22.278 22.4809 22.3727 22.1229C22.5472 21.4565 22.6534 21.054 22.6534 20.0732C22.6534 19.0924 22.5472 18.6907 22.3715 18.0235C22.1653 17.2349 21.8809 16.1554 21.8809 14.1971C21.8809 12.2396 22.1653 11.16 22.3715 10.371C22.3974 10.2747 22.4225 10.1767 22.4476 10.0788C22.6275 9.37045 22.9872 9.18237 23.2514 9.6598C23.5173 10.1372 23.5881 11.0979 23.4087 11.8062C23.3798 11.9218 23.3494 12.035 23.3198 12.1478C23.1452 12.8142 23.0399 13.2167 23.0399 14.1975C23.0399 15.1774 23.1452 15.58 23.3198 16.2467C23.5272 17.0361 23.8116 18.1157 23.8116 20.0732C23.8116 22.0307 23.5272 23.1107 23.3198 23.8997Z" fill="#FFA300"/>
</svg>
