<svg width="35" height="35" viewBox="0 0 35 35" fill="none" xmlns="http://www.w3.org/2000/svg">
<path fill-rule="evenodd" clip-rule="evenodd" d="M7.00141 0H28.0007C31.8654 0 35 3.13347 35 7.00041V28.0008C35 31.8669 31.8658 35 28.0007 35H7.00141C3.13337 35 0 31.8669 0 28.0008V7.00041C0 3.13347 3.13337 0 7.00141 0ZM24.6533 22.9464L31.3287 16.2708C31.558 16.0407 31.558 15.6694 31.3287 15.4402C31.0986 15.2117 30.7274 15.2117 30.499 15.4402L24.3886 21.5503C23.5284 20.0867 22.2221 18.9589 20.6947 18.3069L22.6818 10.5089C24.6064 11.1563 26.4029 12.1709 27.9632 13.5156C28.2085 13.7271 28.5789 13.7004 28.7913 13.4542C29.0029 13.2089 28.9757 12.8381 28.7296 12.6265C26.8985 11.0489 24.7648 9.89228 22.4805 9.21356C22.4583 9.20533 22.4361 9.19751 22.413 9.19133C22.4015 9.18886 22.39 9.18639 22.3793 9.18474C20.849 8.74022 19.2537 8.5085 17.6371 8.5085C12.0276 8.5085 6.7812 11.2752 3.60256 15.9086C3.44205 16.1419 3.47127 16.4556 3.67171 16.6556L10.4303 23.4148C10.5414 23.526 10.6908 23.5865 10.8452 23.5865C10.8867 23.5865 10.9291 23.5815 10.9707 23.5729C11.1654 23.5309 11.3255 23.3914 11.395 23.2041C11.8951 21.8557 12.8109 20.7382 13.9608 19.9739L16.9724 26.1643C17.0736 26.3721 17.2831 26.4944 17.5 26.4944C17.5869 26.4944 17.6737 26.4755 17.7568 26.4347C18.0478 26.2927 18.1696 25.942 18.0276 25.6506L14.9918 19.4104C15.8129 19.0519 16.7102 18.8548 17.6371 18.8548C20.2428 18.8548 22.6242 20.3933 23.7038 22.7736C23.7828 22.9489 23.9433 23.0744 24.133 23.1086C24.322 23.1424 24.5175 23.0819 24.6533 22.9464ZM4.85213 16.1749C7.83485 12.1001 12.5779 9.68196 17.6375 9.68196C18.9681 9.68196 20.2843 9.84989 21.557 10.1759L19.5801 17.9279C18.9533 17.7661 18.3022 17.6801 17.6375 17.6801C16.5291 17.6809 15.4565 17.918 14.4782 18.353L12.254 13.7806C12.112 13.4888 11.7609 13.3678 11.4695 13.5098C11.1781 13.6518 11.0563 14.0025 11.1983 14.2939L13.4439 18.9095C12.2733 19.6553 11.2987 20.7082 10.6534 21.9767L4.85213 16.1749Z" fill="#FFA300"/>
</svg>
