<svg width="35" height="35" viewBox="0 0 35 35" fill="none" xmlns="http://www.w3.org/2000/svg">
<path fill-rule="evenodd" clip-rule="evenodd" d="M7.00132 0H27.9999C31.8654 0 35 3.13332 35 7.00008V27.9995C35 31.8654 31.8659 34.9983 27.9999 34.9983H7.00132C3.13333 34.9983 0 31.8654 0 27.9995V7.00008C0 3.13291 3.13333 0 7.00132 0ZM27.1447 18.9592V18.9399L27.1969 10.7355C27.1862 10.2993 27.02 9.76258 26.2281 9.6638C26.0668 9.64136 25.9038 9.6242 25.7384 9.60678L25.6976 9.60248C25.1568 9.54074 24.6439 9.47942 24.1406 9.36994C22.2004 8.94313 20.3306 8.0743 18.2653 6.63707L18.2548 6.62973C17.9816 6.43842 17.7834 6.29958 17.4928 6.29958C17.2107 6.29958 17.006 6.43616 16.7502 6.60684C16.7403 6.61344 16.7303 6.62009 16.7203 6.62678C13.9689 8.5295 11.4727 9.49382 8.87688 9.65927C8.57807 9.67862 8.27021 9.73048 8.04261 9.98113C7.81871 10.2281 7.8043 10.5417 7.8043 10.8166V12.7671C7.79936 14.5702 7.79937 16.4293 7.81871 18.2666C7.82447 18.907 7.90844 19.5717 8.06072 20.2442C8.41715 21.811 9.24236 23.224 10.5709 24.5723C12.2707 26.2894 14.4043 27.6176 17.1043 28.6329C17.224 28.6766 17.3516 28.6996 17.4895 28.6996C17.6603 28.6996 17.8348 28.6658 17.9871 28.6004C18.0958 28.551 18.2068 28.5042 18.3171 28.4577C18.3659 28.4371 18.4146 28.4165 18.4629 28.3959L18.5225 28.3701C19.1631 28.0937 19.8281 27.8067 20.4644 27.471C22.6367 26.3232 24.2797 24.9711 25.4798 23.3388C26.5339 21.9049 27.0788 20.4726 27.1447 18.9592ZM17.6171 7.57134C19.7754 9.07524 21.83 10.0289 23.8945 10.4799C24.4501 10.603 25.0144 10.6693 25.5659 10.731C25.7268 10.7499 25.8873 10.7693 26.0449 10.789L26.0009 18.916C25.9445 20.1927 25.4704 21.4168 24.5587 22.6601C23.4631 24.1492 21.9444 25.393 19.9285 26.4602C19.312 26.7874 18.6514 27.0718 18.006 27.3476C17.9328 27.3803 17.8591 27.4119 17.7857 27.4433C17.6986 27.4806 17.6118 27.5178 17.5266 27.5566C17.5253 27.5566 17.5226 27.5571 17.5189 27.5577C17.5109 27.5591 17.4982 27.5612 17.485 27.5612C14.9567 26.608 12.9568 25.3646 11.378 23.7706C10.1964 22.579 9.47573 21.3394 9.16787 19.989C9.02999 19.3955 8.95755 18.8119 8.95467 18.2571C8.93741 16.7249 8.9381 15.1701 8.93877 13.6474C8.9389 13.354 8.93903 13.0618 8.93903 12.7712V10.8216V10.7973H8.94314C11.7579 10.6219 14.434 9.59259 17.3702 7.57134L17.3721 7.56999C17.4049 7.54699 17.4521 7.51401 17.4936 7.48697C17.5319 7.51454 17.5743 7.54294 17.6171 7.57134Z" fill="#FFA300"/>
</svg>
