<svg width="124" height="109" viewBox="0 0 124 109" fill="none" xmlns="http://www.w3.org/2000/svg">
<path d="M108.361 61.8162L91.3229 65.2887L94.7484 61.8162H108.361ZM15.5 61.8162L32.5376 65.2887L29.1121 61.8162H15.5Z" fill="#717271"/>
<path d="M29.0826 45.8649L48.1383 26.7213L57.3345 35.9583L47.4734 45.8649H29.0826ZM61.9302 76.7181L56.575 71.3397L47.4719 62.1931H29.0826L57.3345 90.5751C59.8734 93.1273 63.9902 93.1273 66.5291 90.5767L71.1264 85.9566L61.9302 76.7181ZM94.7779 45.8649L66.5275 17.4844C63.9886 14.9338 59.8719 14.9338 57.333 17.4844L52.7357 22.1029L61.9302 31.3398L63.6833 33.101L76.3886 45.8649H94.7779ZM76.3886 62.1931L66.5275 72.0996L75.7237 81.3381L94.7794 62.1931H76.3886Z" fill="#FFA400"/>
<path d="M15.5 45.8664V62.1946H108.361V45.8664H15.5ZM26.4011 59.3513H24.29L19.8446 48.7098H22.1774L25.4587 56.8583L28.7324 48.7098H31.0434L26.4011 59.3513ZM40.1868 59.3513H38.223V48.7098H40.1868V59.3513ZM54.6483 59.3513H48.4778V48.7098H50.4401V57.64H54.6483V59.3513ZM70.7327 59.3513L69.5253 56.4503H66.0052L66.681 54.7375H68.8138L67.1475 50.7418L63.6585 59.3513H61.6435L66.1385 48.7098H68.2496L72.8423 59.3513H70.7327ZM84.0147 55.6297V59.3513H82.0508V55.6297L77.9852 48.7098H80.0947L83.0723 53.8374L85.8746 48.7098H87.9098L84.0147 55.6297ZM98.7567 59.3513H94.6089V48.7098H98.7567C102.264 48.7098 104.017 50.3868 104.017 53.7393C104.016 57.4811 102.263 59.3513 98.7567 59.3513Z" fill="#B2B3B2"/>
<path d="M98.7567 50.4226H96.5728V57.6415H98.7567C100.955 57.6415 102.054 56.3413 102.054 53.7409C102.054 51.5282 100.955 50.4226 98.7567 50.4226Z" fill="#B2B3B2"/>
</svg>
