<svg width="37" height="26" viewBox="0 0 37 26" fill="none" xmlns="http://www.w3.org/2000/svg">
<path d="M21.9007 0.803955L18.1103 2.35842L6.98708 21.5979L3.15671 20.0155L11.9085 4.88137L9.03214 6.10362L0.288452 21.2249L7.4462 25.804L21.9007 0.803955Z" fill="#682F24"/>
<path d="M11.9086 9.58233V4.88141L3.15674 20.0197H5.88328L11.9086 9.58233Z" fill="#E2231A"/>
<path d="M6.98711 21.5979L7.56501 20.5973L5.88328 20.0197H3.15674L6.98711 21.5979Z" fill="#A03123"/>
<path d="M20.4939 22.5614L17.9876 21.8944L16.2646 24.8769L18.6213 25.8039L20.4939 22.5614Z" fill="#682F24"/>
<path d="M17.9875 21.8944H27.2982L30.5758 22.5614H20.4938L17.9875 21.8944Z" fill="#A03123"/>
<path d="M20.4544 10.0396L21.9007 7.53754L30.5758 22.5614L27.2983 21.8944L20.4544 10.0396Z" fill="#682F24"/>
<path d="M13.2281 22.5614L21.9007 7.53756L30.5759 22.5614H20.494L18.6215 25.804H36.3579L21.9007 0.803955L7.44629 25.804H11.3555L13.2281 22.5614Z" fill="#E2231A"/>
</svg>
