<svg width="25" height="25" viewBox="0 0 25 25" fill="none" xmlns="http://www.w3.org/2000/svg">
<path fill-rule="evenodd" clip-rule="evenodd" d="M23.03 12.361C23.03 6.47801 18.244 1.692 12.361 1.692C6.479 1.692 1.693 6.47801 1.693 12.361C1.693 18.244 6.478 23.03 12.361 23.03C18.244 23.03 23.03 18.244 23.03 12.361ZM0 12.36C0 5.534 5.534 0 12.361 0C19.188 0 24.722 5.534 24.722 12.36C24.722 19.187 19.188 24.721 12.361 24.721C5.534 24.721 0 19.187 0 12.36ZM14.8618 7.76534C14.558 7.76317 14.2548 7.761 13.9511 7.77112C13.3351 7.79312 12.8781 8.02712 12.8571 8.79612C12.8411 9.35812 12.8351 10.6521 12.8351 10.6521C12.8351 10.6521 14.2831 10.6551 14.9131 10.6521H15.4121C15.3641 11.0195 15.3171 11.3809 15.2706 11.7394C15.2035 12.2553 15.1373 12.765 15.0701 13.2771H12.8531V19.8331H10.1341V13.2671H7.90906V10.6551H10.1471V10.4591C10.1468 10.3115 10.1458 10.1638 10.1448 10.0162C10.1423 9.63883 10.1397 9.26147 10.1491 8.88412C10.1581 8.55012 10.1721 8.21011 10.2301 7.88111C10.3701 7.08411 10.7371 6.40911 11.4051 5.92911C11.9871 5.51211 12.6541 5.34011 13.3591 5.32511C13.7959 5.31471 14.2327 5.33471 14.6687 5.35467C14.6938 5.35582 14.7189 5.35697 14.7441 5.35812C14.9149 5.3656 15.0863 5.38469 15.254 5.40336C15.3326 5.41212 15.4105 5.42078 15.4871 5.42812V7.76711H15.3011C15.1545 7.76744 15.0081 7.76639 14.8618 7.76534Z" fill="white"/>
</svg>
