<svg width="25" height="22" viewBox="0 0 25 22" fill="none" xmlns="http://www.w3.org/2000/svg">
<path d="M24.8207 4.3597C24.6898 4.19189 24.4877 4.09359 24.2736 4.09359H6.6821L5.91377 1.16534C5.83456 0.863334 5.55943 0.652588 5.24446 0.652588H1.65662C1.27471 0.652588 0.965088 0.959344 0.965088 1.33772C0.965088 1.7161 1.27471 2.02285 1.65662 2.02285H4.70967L5.47801 4.95111C5.47801 4.9512 5.47801 4.9512 5.4781 4.95129L8.18715 15.2711C8.26635 15.573 8.54149 15.7838 8.85636 15.7838H21.5641C21.879 15.7838 22.1541 15.573 22.2333 15.2711L24.9427 4.95111C24.9968 4.74593 24.9517 4.52742 24.8207 4.3597ZM11.8338 14.4136H9.39114L8.84788 12.3443H11.8338V14.4136ZM11.8338 10.974H8.48819L7.94465 8.90331H11.8338V10.974ZM11.8338 7.53305H7.58487L7.0417 5.46386H11.8338V7.53305ZM17.204 14.4136H13.2169V12.3443H17.204V14.4136ZM17.204 10.974H13.2169V8.90331H17.204V10.974ZM17.204 7.53305H13.2169V5.46386H17.204V7.53305ZM21.0295 14.4136H18.587V12.3443H21.5728L21.0295 14.4136ZM21.9325 10.974H18.587V8.90331H22.4762L21.9325 10.974ZM22.836 7.53305H18.5871V5.46386H23.3793L22.836 7.53305Z" fill="#C3C5C8"/>
<path d="M10.6909 16.3413C9.2981 16.3413 8.16492 17.4641 8.16492 18.844C8.16492 20.2243 9.2981 21.3472 10.6909 21.3472C12.0837 21.3472 13.2169 20.2243 13.2169 18.844C13.2169 17.4641 12.0838 16.3413 10.6909 16.3413ZM10.6909 19.9769C10.0607 19.9769 9.54797 19.4686 9.54797 18.844C9.54797 18.2196 10.0607 17.7117 10.6909 17.7117C11.3211 17.7117 11.8338 18.2197 11.8338 18.844C11.8338 19.4687 11.3211 19.9769 10.6909 19.9769Z" fill="#C3C5C8"/>
<path d="M19.7298 16.3413C18.3371 16.3413 17.2041 17.4641 17.2041 18.844C17.2041 20.2243 18.3371 21.3472 19.7298 21.3472C21.1227 21.3472 22.2558 20.2243 22.2558 18.844C22.2558 17.4641 21.1226 16.3413 19.7298 16.3413ZM19.7298 19.9769C19.0997 19.9769 18.5872 19.4686 18.5872 18.844C18.5872 18.2196 19.0997 17.7117 19.7298 17.7117C20.3601 17.7117 20.8727 18.2197 20.8727 18.844C20.8727 19.4687 20.36 19.9769 19.7298 19.9769Z" fill="#C3C5C8"/>
</svg>
