<svg width="25" height="25" viewBox="0 0 25 25" fill="none" xmlns="http://www.w3.org/2000/svg">
<g clip-path="url(#clip0_1253_5388)">
<path fill-rule="evenodd" clip-rule="evenodd" d="M14.0047 11.523C14.2817 11.3813 14.5902 11.3065 14.9103 11.3065C15.4407 11.3065 15.9393 11.5124 16.3153 11.8863L17.1245 11.0772C19.1271 11.7792 21.4434 11.3298 23.0443 9.72894C24.3913 8.38189 24.9226 6.52854 24.639 4.78155C24.6078 4.58915 24.4715 4.43047 24.2862 4.37061C24.1007 4.31066 23.8972 4.35938 23.7594 4.49722L22.5578 5.69879C21.5793 6.6773 19.9927 6.6773 19.0142 5.69879C18.0357 4.72029 18.0357 3.13369 19.0142 2.15519L20.2158 0.953622C20.3537 0.815768 20.4028 0.612227 20.3427 0.426727C20.2828 0.241145 20.1238 0.10526 19.9313 0.0740152C18.1845 -0.209565 16.3311 0.321676 14.984 1.66872C13.3593 3.29344 12.9221 5.65459 13.6693 7.67729L11.9142 9.4324L14.0047 11.523ZM10.8064 14.7034L8.72472 12.6216L1.44537 19.901C0.498843 20.8474 0.498843 22.382 1.44537 23.3286C2.39189 24.2751 3.92649 24.2751 4.87301 23.3286L11.1483 17.0534C10.5154 16.4171 10.4013 15.4564 10.8064 14.7034ZM14.9103 12.5366C15.1054 12.5366 15.3006 12.6111 15.4494 12.7599L22.5905 19.901C23.537 20.8474 23.537 22.382 22.5905 23.3286C21.6439 24.2751 20.1093 24.2751 19.1628 23.3286L12.0217 16.1875C11.7239 15.8897 11.7239 15.407 12.0217 15.1092L12.4869 14.6441L4.74608 6.9033L4.38426 7.2652C4.05435 7.59519 3.50793 7.55387 3.23124 7.17819L0.905363 4.01993C0.681894 3.71651 0.71363 3.29524 0.980154 3.02872L2.32114 1.68765C2.58765 1.42113 3.00885 1.38939 3.31235 1.61287L6.47061 3.93884C6.84636 4.21552 6.88728 4.76226 6.55762 5.09185L6.1958 5.45366L13.9366 13.1944L14.3712 12.7599C14.52 12.6111 14.7152 12.5366 14.9103 12.5366Z" fill="white"/>
</g>
<defs>
<clipPath id="clip0_1253_5388">
<rect width="25" height="24.0385" fill="white"/>
</clipPath>
</defs>
</svg>
