<svg width="26" height="26" viewBox="0 0 26 26" fill="none" xmlns="http://www.w3.org/2000/svg">
<path fill-rule="evenodd" clip-rule="evenodd" d="M25.521 12.9999C25.521 19.8261 19.9868 25.3599 13.16 25.3599C6.33317 25.3599 0.79895 19.8261 0.79895 12.9999C0.79895 6.17365 6.33317 0.639893 13.16 0.639893C19.9868 0.639893 25.521 6.17365 25.521 12.9999ZM8.20197 14.6448C8.45197 15.5247 9.39497 16.6087 10.906 16.6617C10.473 17.0006 10.017 17.2646 9.52297 17.4696C8.59497 17.8496 7.62997 17.9795 6.61597 17.8706C6.63303 17.8812 6.64611 17.8899 6.65733 17.8973C6.66716 17.9038 6.67556 17.9094 6.68397 17.9146C8.10997 18.7945 9.65897 19.2115 11.335 19.1625C11.88 19.1475 12.421 19.0875 12.954 18.9705C14.508 18.6275 15.842 17.8886 16.948 16.7446C17.602 16.0707 18.121 15.3028 18.519 14.4538C18.904 13.6309 19.156 12.769 19.268 11.866C19.321 11.4371 19.338 11.0061 19.322 10.5751C19.321 10.5321 19.337 10.5081 19.37 10.4841C19.764 10.1952 20.119 9.86019 20.427 9.48022C20.5097 9.37816 20.5887 9.273 20.6678 9.16771C20.6988 9.12652 20.7298 9.08531 20.761 9.04426C20.757 9.04128 20.753 9.03632 20.7491 9.03135L20.749 9.03126C20.231 9.25624 19.693 9.40523 19.13 9.46722C19.726 9.08225 20.145 8.5613 20.375 7.88535C20.3715 7.88535 20.3686 7.88526 20.3661 7.88519C20.3603 7.88502 20.3574 7.88493 20.356 7.88635C20.342 7.89235 20.329 7.89935 20.317 7.90635C19.787 8.21132 19.224 8.4273 18.626 8.55629C18.559 8.57229 18.52 8.5563 18.472 8.5103C17.759 7.81835 16.905 7.53938 15.928 7.70036C15.08 7.83735 14.419 8.28832 13.957 9.01326C13.588 9.59121 13.451 10.2292 13.532 10.9131C13.5399 10.9802 13.5504 11.0469 13.5615 11.1173C13.5672 11.154 13.5732 11.1917 13.579 11.2311C11.15 11.0641 9.15897 10.0472 7.58497 8.19432C7.21297 8.85727 7.10497 9.56021 7.27297 10.2992C7.44197 11.0401 7.85397 11.6191 8.46897 12.062C8.01097 12.05 7.58497 11.928 7.17597 11.71C7.17097 12.273 7.31097 12.786 7.60197 13.2549C8.03997 13.9599 8.67097 14.3978 9.48897 14.5878C9.48207 14.5911 9.47635 14.5941 9.4714 14.5966C9.46129 14.6019 9.45436 14.6055 9.44697 14.6068C9.03597 14.7088 8.62197 14.7248 8.20197 14.6448Z" fill="#C3C5C8"/>
</svg>
