<svg width="50" height="50" viewBox="0 0 50 50" fill="none" xmlns="http://www.w3.org/2000/svg">
<path fill-rule="evenodd" clip-rule="evenodd" d="M7.92907 16H2.95865V32.3448H7.92907V29.0345H42.0709V32.3448H47.0413V16H42.0709V16.5518H7.92907V16ZM42.0709 28.6897V28.069H7.92907V28.6897H42.0709ZM7.92907 21.2414H42.0709V20.6207H7.92907V21.2414ZM7.92907 20.2759H42.0709V19.1723H7.92907V20.2759ZM42.0709 18.3447H7.92907V17.2414H42.0709V18.3447ZM0 18.8104C0 17.3725 1.16565 16.2069 2.60355 16.2069V30.8361C2.60355 31.5551 2.02073 32.1379 1.30178 32.1379C0.582825 32.1379 0 31.5551 0 30.8361V18.8104ZM50 18.8104C50 17.3725 48.8344 16.2069 47.3965 16.2069V30.8361C47.3965 31.5551 47.9793 32.1379 48.6982 32.1379C49.4172 32.1379 50 31.5551 50 30.8361V18.8104Z" fill="white"/>
</svg>
