<svg width="25" height="24" viewBox="0 0 25 24" fill="none" xmlns="http://www.w3.org/2000/svg">
<path d="M23.891 15.0859C23.3394 15.0859 22.8951 15.5261 22.8951 16.0727V21.9108H2.95695V16.0727C2.95695 15.5261 2.51269 15.0859 1.96102 15.0859C1.40935 15.0859 0.965088 15.5261 0.965088 16.0727V22.9024C0.965088 23.4489 1.40935 23.8891 1.96102 23.8891H23.891C24.4427 23.8891 24.887 23.4489 24.887 22.9024V16.0727C24.887 15.5261 24.4427 15.0859 23.891 15.0859Z" fill="#C3C5C8"/>
<path d="M12.2231 16.7161C12.765 17.2337 13.4143 16.9676 13.634 16.7161L19.6975 10.7134C20.0881 10.3265 20.0881 9.70252 19.6975 9.31556C19.3069 8.9286 18.6771 8.9286 18.2866 9.31556L13.9221 13.635V1.09758C13.9221 0.551002 13.4778 0.11084 12.9261 0.11084C12.3744 0.11084 11.9302 0.551002 11.9302 1.09758V13.6301L7.56565 9.31072C7.17508 8.92377 6.5453 8.92377 6.15474 9.31072C5.76418 9.69768 5.76418 10.3216 6.15474 10.7086L12.2231 16.7161Z" fill="#C3C5C8"/>
</svg>
