<svg width="110" height="110" viewBox="0 0 110 110" fill="none" xmlns="http://www.w3.org/2000/svg">
<path fill-rule="evenodd" clip-rule="evenodd" d="M103 53.0668C103 35.9513 81.7357 22 55.5025 22C29.2706 22 8.00627 35.9513 8.00627 53.0668C8.00627 53.3438 8.0038 53.9283 8.00196 54.3636C8.00087 54.6218 8 54.8275 8 54.8854C8 73.0415 26.5867 87.7479 55.4958 87.7479C84.5848 87.7479 103 73.0455 103 54.889V53.0668ZM101.181 53.0516C101.181 69.1867 80.7339 82.267 55.5109 82.267C30.2871 82.267 9.8419 69.1867 9.8419 53.0516C9.8419 52.4023 9.87499 51.758 9.94016 51.1193C10.1999 51.1815 12.1624 51.6508 12.5701 51.7419C24.8719 54.474 28.9367 57.3159 29.6242 57.8521C29.3914 58.4107 29.2706 59.0145 29.2692 59.6223C29.2679 62.1625 31.3345 64.2331 33.8779 64.2358C34.1634 64.2358 34.4454 64.2112 34.7238 64.1597C35.1065 66.0293 36.3303 67.4473 38.2009 68.1742C38.747 68.3851 39.3002 68.4925 39.8427 68.4925C40.1937 68.4938 40.5473 68.4495 40.8924 68.3618C41.2375 69.2395 42.0159 70.3326 43.7531 71.038C44.3614 71.2842 44.971 71.4126 45.5637 71.4126C46.0476 71.4126 46.5207 71.3285 46.9719 71.1607C47.8044 73.1892 49.7856 74.5338 51.9954 74.5338C53.4591 74.5351 54.8651 73.9389 55.8906 72.883C56.767 73.3718 58.6214 74.2531 60.492 74.2567C60.7346 74.2567 60.962 74.2397 61.1885 74.2111C63.0474 73.9761 63.9131 73.2505 64.3106 72.6847C64.3818 72.5863 64.4467 72.4815 64.5017 72.3737C64.9413 72.4985 65.4238 72.6015 65.9762 72.6028C66.9914 72.6028 67.9649 72.2577 68.951 71.5402C69.9183 70.8406 70.6063 69.8407 70.7048 68.9875C70.7065 68.9768 70.7097 68.9629 70.711 68.9508C71.036 69.018 71.3708 69.0533 71.7056 69.0533C72.7503 69.0533 73.7776 68.7266 74.7606 68.0838C76.6558 66.8413 76.9852 65.2178 76.9539 64.1566C77.2856 64.2259 77.6248 64.2617 77.961 64.2617C78.9431 64.2617 79.9063 63.9654 80.8248 63.38C81.9989 62.6293 82.7061 61.4799 82.8122 60.1416C82.887 59.232 82.6609 58.3149 82.1815 57.5267C85.3519 56.1606 92.5944 53.5181 101.125 51.5935C101.163 52.0766 101.181 52.5627 101.181 53.0516ZM100.87 49.6236C90.5421 51.916 82.8372 55.2504 80.9054 56.11C76.4002 52.1769 65.9865 43.1242 63.1665 41.0065C61.5546 39.7949 60.4558 39.1553 59.4912 38.8675C59.057 38.7368 58.4576 38.5877 57.6859 38.5868C56.968 38.5868 56.1976 38.7166 55.3933 38.9726C53.574 39.5482 51.7609 40.988 50.0067 42.3811L49.9982 42.3879L49.9082 42.4595L49.8912 42.4729C48.2596 43.769 46.5762 45.1062 45.3014 45.3908C44.7432 45.5166 44.1689 45.5819 43.5951 45.5819C42.1627 45.5797 40.8745 45.1666 40.3915 44.5507C40.3118 44.4491 40.3633 44.2839 40.5495 44.0471L40.5741 44.0158L44.5378 39.7443C47.6433 36.6397 50.5756 33.7088 57.3252 33.5531C57.4371 33.5499 57.5512 33.5486 57.6631 33.5486C61.8639 33.5513 66.0644 35.4321 66.5352 35.6501C70.4756 37.5712 74.5417 38.5474 78.6302 38.551C82.8831 38.5523 87.2707 37.5008 91.8844 35.38C96.6995 39.4302 99.8996 44.309 100.87 49.6236ZM90.2814 34.1068C86.2288 35.8616 82.3671 36.7481 78.6423 36.7467C74.8304 36.7436 71.0208 35.8282 67.3235 34.0239C67.1288 33.9308 62.4906 31.7443 57.6658 31.7416C57.5812 31.7416 57.4955 31.7428 57.4101 31.744C57.3681 31.7446 57.3261 31.7452 57.2844 31.7456C51.6145 31.8781 48.4203 33.8919 46.2736 35.6559C44.1889 35.7059 42.3894 36.2084 40.789 36.6553L40.7791 36.6581L40.7532 36.6653C39.3336 37.0597 38.105 37.4011 36.9073 37.3998C36.5111 37.3998 35.8601 37.3706 35.5737 37.3577C35.502 37.3545 35.4531 37.3523 35.4369 37.3519C34.0545 37.3095 27.105 35.6058 21.5574 33.5107C29.9167 27.5694 42.0315 23.8338 55.5109 23.8338C69.4356 23.8338 81.9046 27.8204 90.2814 34.1068ZM19.9105 34.7484C19.8975 34.7431 19.8846 34.7378 19.8716 34.7325C20.4029 34.3104 20.9481 33.8959 21.5157 33.4949C21.5296 33.5001 21.5435 33.5054 21.5574 33.5107C20.9909 33.9133 20.4417 34.326 19.9105 34.7484ZM19.9105 34.7484C25.7051 37.1193 32.7396 38.9515 34.9629 39.0957C35.1362 39.107 35.3128 39.1206 35.4917 39.1344C35.9523 39.1699 36.4285 39.2067 36.9046 39.2076C38.3663 39.2076 39.8245 38.8005 41.2385 38.4056L41.2742 38.3957C42.1144 38.1589 43.0432 37.9024 44.0185 37.7153C43.758 37.9705 43.4988 38.2301 43.2383 38.4924L39.2098 42.8484C38.892 43.168 38.2054 44.0225 38.6584 45.0744C38.8387 45.4987 39.2049 45.9042 39.7165 46.2498C40.6771 46.8957 42.3955 47.3325 43.9917 47.3339C44.5968 47.3339 45.1693 47.2739 45.6971 47.1553C47.3826 46.7767 49.1507 45.3707 51.0232 43.8816L51.0313 43.8752C52.5263 42.6868 54.6502 41.1793 56.2764 40.7366C56.7298 40.6127 57.2876 40.5366 57.737 40.5366C57.8703 40.5375 57.9966 40.5415 58.1152 40.5581C59.189 40.6946 60.2279 41.0603 62.0819 42.4514C65.3867 44.9347 80.0173 57.7317 80.1601 57.8583C80.1709 57.8668 81.1028 58.6712 81.0379 60.0091C81.003 60.7543 80.5889 61.4172 79.8696 61.8774C79.2452 62.2726 78.6006 62.4745 77.9485 62.4745C76.9709 62.4722 76.2977 62.0143 76.2547 61.983C76.2457 61.9757 76.099 61.842 75.8522 61.6171C74.6182 60.4922 70.8813 57.086 69.3445 55.7998C69.0499 55.5563 68.7652 55.3379 68.4756 55.3379C68.3217 55.3366 68.1851 55.4023 68.0934 55.5178C67.8033 55.8755 68.1283 56.3701 68.511 56.6959L74.3671 62.5806L74.3672 62.5806C74.3776 62.5904 75.0956 63.2663 75.1751 64.1669C75.2212 65.1426 74.7552 65.9577 73.7857 66.5947C73.0946 67.049 72.3945 67.2799 71.7096 67.2799C70.8113 67.2799 70.1801 66.8699 70.0405 66.7733L69.1999 65.9452L69.1675 65.9133C67.6427 64.4126 66.0723 62.8669 64.9202 61.9051C64.6374 61.6701 64.3352 61.4535 64.047 61.4535C63.9055 61.4535 63.7766 61.5059 63.6781 61.6097C63.5456 61.757 63.4543 62.0215 63.7833 62.4597C63.9185 62.6396 64.0783 62.7891 64.0783 62.7891L68.3517 67.587L68.3529 67.5885C68.4032 67.6493 69.225 68.6436 68.447 69.6352L68.297 69.8263C68.169 69.9682 68.0307 70.098 67.8996 70.2086C67.1713 70.8075 66.1973 70.8719 65.8119 70.8719C65.6051 70.8719 65.4059 70.8536 65.2327 70.8232C64.8124 70.7471 64.5286 70.6293 64.3925 70.4669L64.3397 70.4145C64.1065 70.1719 61.9526 67.9742 60.1711 66.4868L60.1601 66.4776C59.927 66.2826 59.6386 66.0414 59.3403 66.0414C59.1913 66.0414 59.057 66.1001 58.9549 66.2142C58.6017 66.6009 59.1322 67.1774 59.3564 67.3896L63.0009 71.4077C62.9964 71.4444 62.9499 71.5281 62.8617 71.6553C62.731 71.8338 62.2892 72.2761 60.9669 72.4439C60.8089 72.4632 60.6455 72.4721 60.4844 72.4721C59.1205 72.4721 57.6676 71.8106 56.9174 71.4131C57.2585 70.6925 57.4353 69.8998 57.4353 69.103C57.4371 66.1036 55.0011 63.6651 52.0017 63.6624C51.9457 63.6624 51.8863 63.6645 51.8286 63.6665L51.8052 63.6673C51.9037 62.2977 51.7103 59.7052 49.0488 58.5633C48.2838 58.2316 47.5193 58.0633 46.7763 58.0633C46.1953 58.0633 45.6366 58.1627 45.1094 58.3646C44.5592 57.293 43.6434 56.5129 42.4483 56.1051C41.789 55.8768 41.1323 55.7613 40.498 55.7613C39.3907 55.7613 38.3701 56.0867 37.4596 56.734C36.5881 55.6508 35.2699 55.008 33.8828 55.008C32.6702 55.008 31.5019 55.4941 30.6371 56.3504C29.5033 55.4843 25.0035 52.6263 12.9618 49.8924C12.3849 49.7618 11.0688 49.3846 10.2467 49.1442C11.3759 43.7378 14.8159 38.7992 19.9105 34.7484ZM90.2814 34.1068C90.288 34.104 90.2946 34.1011 90.3012 34.0983C90.8532 34.5132 91.3912 34.9348 91.9073 35.3694C91.8997 35.373 91.892 35.3765 91.8844 35.38C91.3684 34.9459 90.8338 34.5214 90.2814 34.1068ZM100.87 49.6236C100.878 49.6219 100.886 49.6201 100.894 49.6184C101.012 50.2697 101.107 50.9236 101.159 51.5861C101.148 51.5886 101.136 51.5911 101.125 51.5935C101.075 50.9308 100.989 50.2739 100.87 49.6236ZM10.2467 49.1442C10.1105 49.796 10.008 50.4547 9.94016 51.1193C9.92162 51.1149 9.91176 51.1125 9.91176 51.1125C9.98025 50.4474 10.0836 49.7881 10.2197 49.1364C10.2286 49.139 10.2376 49.1416 10.2467 49.1442ZM48.2838 69.27C48.3572 71.2582 49.9892 72.8168 51.9972 72.819C54.0491 72.819 55.7205 71.153 55.7218 69.0999C55.7232 67.0691 54.0527 65.3978 51.9981 65.3745H51.9968C51.4731 65.3731 50.9122 65.567 50.5407 65.6954L50.5283 65.6996C50.2832 65.7831 50.1331 65.8342 50.0116 65.8342H49.9333L49.8254 65.784C49.6052 65.6372 49.6137 65.3834 49.8487 64.8092C49.8639 64.7725 51.1015 61.3053 48.3725 60.1349C47.817 59.8954 47.2789 59.7759 46.7745 59.775C45.6693 59.775 44.9639 60.3367 44.6398 60.6747C44.5628 60.757 44.4532 60.8501 44.305 60.8501C44.2522 60.8501 43.9832 60.8331 43.9527 60.4544C43.9075 59.8059 43.617 58.2495 41.9004 57.7254C41.4743 57.5938 41.0513 57.528 40.6417 57.528C38.4878 57.5258 37.3164 59.2969 37.2681 59.3748L36.8406 60.0328L36.7421 59.2549C36.5573 57.8118 35.3272 56.725 33.8823 56.725C32.283 56.7232 30.9809 58.0213 30.9796 59.6215C30.9787 61.2194 32.2799 62.5192 33.8783 62.5206C34.6267 62.5206 35.3384 62.2341 35.8827 61.7095L36.0671 61.5323L36.2641 61.6947C36.3666 61.7771 36.4069 61.9024 36.3858 62.0622C36.2502 62.8558 36.0291 65.4904 38.8204 66.5776C39.1597 66.7079 39.4972 66.7737 39.8257 66.7737C40.4237 66.7737 41.0115 66.5642 41.6256 66.1345C41.7764 66.028 41.8865 65.9837 41.9949 65.9837H42.1278L42.2576 66.1001C42.3646 66.2276 42.357 66.3888 42.3342 66.5459C42.2473 67.1309 42.276 68.5878 44.3963 69.4459C44.8233 69.6213 45.2266 69.7068 45.5999 69.7068C46.4209 69.7068 46.9835 69.2915 47.4249 68.8815C47.5829 68.7396 47.7194 68.6451 47.8774 68.6451C48.2605 68.6451 48.2776 69.0985 48.2838 69.27Z" fill="#C3C5C8"/>
</svg>
