<svg width="25" height="19" viewBox="0 0 25 19" fill="none" xmlns="http://www.w3.org/2000/svg">
<path d="M22.4028 0.279785H2.59731C1.17742 0.279785 0.0222168 1.43499 0.0222168 2.85488V15.7924C0.0222168 17.2123 1.17742 18.3675 2.59731 18.3675H22.4028C23.8228 18.3675 24.9779 17.2123 24.9779 15.7924V2.85488C24.9779 1.43499 23.8227 0.279785 22.4028 0.279785ZM21.554 2.17722L13.0896 8.89186C12.7425 9.16726 12.2576 9.16726 11.9104 8.89186L3.44619 2.17722H21.554ZM23.0804 15.7924C23.0804 16.1666 22.7771 16.47 22.4028 16.47H2.59731C2.22305 16.47 1.91965 16.1666 1.91965 15.7924V3.38823L10.7313 10.3784C11.2323 10.7759 11.8605 10.9947 12.5001 10.9947C13.1397 10.9947 13.7679 10.7759 14.269 10.3784L23.0805 3.38823V15.7924H23.0804Z" fill="#5C666F"/>
<path d="M22.4028 18.3898H2.59724C1.16512 18.3898 0 17.2247 0 15.7926V2.85505C0 1.42294 1.16512 0.257812 2.59724 0.257812H22.4028C23.8349 0.257812 25 1.42294 25 2.85505V15.7926C25 17.2247 23.8349 18.3898 22.4028 18.3898ZM2.59724 0.302104C1.18953 0.302104 0.0442912 1.44739 0.0442912 2.85505V15.7926C0.0442912 17.2003 1.18953 18.3455 2.59724 18.3455H22.4028C23.8104 18.3455 24.9557 17.2003 24.9557 15.7926V2.85505C24.9557 1.44734 23.8105 0.302104 22.4028 0.302104H2.59724ZM22.4028 16.4924H2.59724C2.21137 16.4924 1.89744 16.1785 1.89744 15.7926V3.34256L10.7449 10.3612C11.242 10.7555 11.8653 10.9727 12.5 10.9727C13.1346 10.9727 13.758 10.7556 14.2551 10.3612L23.1025 3.34256V15.7926C23.1025 16.1785 22.7886 16.4924 22.4028 16.4924ZM1.94173 3.43425V15.7926C1.94173 16.1541 2.23578 16.4481 2.59724 16.4481H22.4028C22.7642 16.4481 23.0583 16.1541 23.0583 15.7926V3.43425L14.2826 10.3959C13.7777 10.7965 13.1446 11.017 12.5 11.017C11.8554 11.017 11.2223 10.7965 10.7174 10.3959L1.94173 3.43425ZM12.5 9.12071C12.2827 9.12071 12.0684 9.04563 11.8966 8.90935L3.38256 2.15525H21.6174L13.1033 8.90935C12.9315 9.04563 12.7172 9.12071 12.5 9.12071ZM3.50964 2.19954L11.9241 8.87467C12.0881 9.0048 12.2926 9.07642 12.4999 9.07642C12.7072 9.07642 12.9117 9.00475 13.0757 8.87467L21.4902 2.19954H3.50964Z" fill="#5C666F"/>
</svg>
