<svg width="110" height="100" viewBox="0 0 110 100" fill="none" xmlns="http://www.w3.org/2000/svg">
<path d="M52.0098 13C42.4104 13.551 33.4084 17.2812 26.2231 23.6849L37.3355 34.7973C41.5174 31.3158 46.5952 29.2119 52.0098 28.7172V13Z" fill="#C3C5C8"/>
<path d="M33.8126 38.318L22.7004 27.2057C16.2912 34.3891 12.5563 43.3918 12.0018 52.9935H27.7197C28.2177 47.5779 30.3261 42.4996 33.8126 38.318Z" fill="#C3C5C8"/>
<path d="M81.2803 52.9935H96.9982C96.4437 43.3918 92.709 34.3891 86.2996 27.2057L75.1874 38.318C78.6739 42.4994 80.7823 47.5779 81.2803 52.9935Z" fill="#C3C5C8"/>
<path d="M81.2768 57.9738C80.9276 61.8092 79.8331 65.0083 78.5385 67.5744C79.8014 69.522 80.8543 71.1679 81.5499 72.2609C83.4441 75.2379 83.0247 79.0592 80.5299 81.5543C79.9241 82.1601 79.2321 82.6482 78.4822 83.0089L81.0702 85.5971C81.5573 86.0842 82.1958 86.3277 82.8342 86.3277C83.4727 86.3277 84.111 86.0842 84.5979 85.5971C92.056 78.1398 96.4048 68.4088 96.9999 57.9738H81.2768Z" fill="#C3C5C8"/>
<path d="M27.7233 57.9738H12C12.5952 68.4088 16.9439 78.1398 24.4019 85.5973C24.889 86.0844 25.5273 86.3279 26.1656 86.3279C26.8039 86.3279 27.4424 86.0842 27.9295 85.5973L35.4852 78.0411C36.4592 77.0669 36.4592 75.4874 35.4852 74.5132C33.5135 72.5415 28.5468 67.0211 27.7233 57.9738Z" fill="#C3C5C8"/>
<path d="M82.7769 23.6849C75.5916 17.281 66.5896 13.551 56.9902 13V28.7172C62.4047 29.2119 67.4826 31.3158 71.6645 34.7973L82.7769 23.6849Z" fill="#C3C5C8"/>
<path d="M60.0334 49.9921C56.9825 46.9413 52.0183 46.9413 48.9674 49.9921C45.9166 53.043 45.9166 58.0072 48.9674 61.0581C52.8217 64.9123 71.7632 77.0065 73.9105 78.3728C74.8951 78.9995 76.1829 78.8581 77.0083 78.0328C77.8336 77.2076 77.975 75.9198 77.3483 74.935C75.9818 72.7879 63.8876 53.8462 60.0334 49.9921V49.9921Z" fill="#C3C5C8"/>
</svg>
