<svg width="25" height="25" viewBox="0 0 25 25" fill="none" xmlns="http://www.w3.org/2000/svg">
<path fill-rule="evenodd" clip-rule="evenodd" d="M12.361 1.69099C18.244 1.69099 23.03 6.477 23.03 12.36C23.03 18.243 18.244 23.029 12.361 23.029C6.47801 23.029 1.692 18.243 1.692 12.36C1.692 6.477 6.47801 1.69099 12.361 1.69099ZM12.361 0C5.53501 0 0 5.534 0 12.36C0 19.187 5.53501 24.721 12.361 24.721C19.187 24.721 24.721 19.187 24.721 12.36C24.721 5.534 19.187 0 12.361 0ZM7.07497 9.77304H9.58397V17.833H7.07497V9.77304ZM8.32997 5.76904C9.13297 5.76904 9.78197 6.41905 9.78197 7.22005C9.78197 8.02205 9.13297 8.67303 8.32997 8.67303C7.52497 8.67303 6.87598 8.02205 6.87598 7.22005C6.87598 6.42005 7.52497 5.76904 8.32997 5.76904ZM13.558 9.77298H11.156H11.155V17.832H13.659V13.846C13.659 12.796 13.857 11.777 15.161 11.777C16.445 11.777 16.464 12.979 16.464 13.915V17.833H18.967V13.413C18.967 11.242 18.499 9.57397 15.963 9.57397C14.743 9.57397 13.926 10.242 13.591 10.876H13.558V9.77298Z" fill="white"/>
</svg>
