<svg width="25" height="25" viewBox="0 0 25 25" fill="none" xmlns="http://www.w3.org/2000/svg">
<g clip-path="url(#clip0_1117_5215)">
<path fill-rule="evenodd" clip-rule="evenodd" d="M12.2454 1.67222C18.0562 1.67222 22.7834 6.39953 22.7834 12.2103C22.7834 18.0212 18.0562 22.7484 12.2454 22.7484C6.43553 22.7484 1.70823 18.0212 1.70823 12.2103C1.70823 6.39953 6.43553 1.67222 12.2454 1.67222ZM12.2454 0C5.50309 0 0.0369873 5.46609 0.0369873 12.2094C0.0369873 18.9516 5.50309 24.4177 12.2454 24.4177C18.9886 24.4177 24.4547 18.9516 24.4547 12.2094C24.4547 5.46609 18.9886 0 12.2454 0ZM5.79938 18.6918L5.84949 18.4988C5.90507 18.2845 5.95606 18.0881 6.00879 17.8917C6.06489 17.6867 6.12141 17.4817 6.17792 17.2767C6.34513 16.6701 6.51234 16.0635 6.66955 15.456C6.70019 15.3345 6.68734 15.1735 6.62908 15.0648C4.56669 11.1337 6.69524 6.37477 11.0225 5.35939C14.9527 4.43784 18.4868 7.09087 19.1318 10.6388C19.8025 14.3388 17.3825 17.8552 13.7111 18.4962C12.2522 18.7491 10.8566 18.5347 9.52513 17.8868C9.40658 17.8275 9.23867 17.8117 9.11321 17.8423C8.236 18.062 7.50402 18.2549 6.94472 18.4023H6.94466C6.37228 18.5531 5.98071 18.6563 5.79938 18.6918ZM7.87844 17.0181L7.87926 17.018C8.35292 16.896 8.80478 16.7797 9.25344 16.6531C9.42635 16.6067 9.55966 16.6323 9.71176 16.7192C10.8655 17.384 12.1021 17.6329 13.4237 17.4196C16.4669 16.9316 18.551 14.084 18.0858 11.0537C17.6027 7.9107 14.6563 5.80386 11.543 6.37378C7.77681 7.06517 5.77764 11.2651 7.65036 14.5897C7.8578 14.9581 7.91513 15.2614 7.77484 15.6535C7.65984 15.9799 7.57478 16.3169 7.48536 16.6708C7.44571 16.8276 7.40524 16.9878 7.361 17.1519C7.53681 17.1061 7.70902 17.0618 7.87844 17.0181ZM9.46879 11.5348C10.8961 14.014 12.9812 15.0481 14.2899 15.0945C14.925 15.141 15.972 14.7301 15.9256 13.5883C15.9213 13.4553 15.8413 13.4172 14.949 12.9927C14.8073 12.9254 14.6453 12.8483 14.4598 12.7596C14.234 12.6534 14.1544 12.755 13.8556 13.1362C13.7818 13.2303 13.6947 13.3415 13.5886 13.4708C13.4948 13.5863 13.3842 13.6228 13.236 13.5656C12.2266 13.1705 11.4591 12.4978 10.9099 11.5684C10.825 11.4251 10.8477 11.3106 10.9554 11.1871C11.2932 10.7979 11.4541 10.5777 11.3672 10.3436C11.2013 9.90012 11.0136 9.46744 10.824 9.03483C10.7875 8.95285 10.7123 8.84221 10.6393 8.83035L10.6313 8.82901C10.3383 8.77901 10.0266 8.72581 9.77798 8.95779C9.03519 9.6482 8.9621 10.6527 9.46879 11.5348Z" fill="white"/>
</g>
<defs>
<clipPath id="clip0_1117_5215">
<rect width="25" height="24.4186" fill="white"/>
</clipPath>
</defs>
</svg>
