<svg width="50" height="50" viewBox="0 0 50 50" fill="none" xmlns="http://www.w3.org/2000/svg">
<path fill-rule="evenodd" clip-rule="evenodd" d="M9.67985 7H5V8.05461H7.10923V9.10923H5V9.37288H7.10923V10.6252H5V10.8889H7.10923V11.8775H6.2194C5.9332 11.8775 5.67003 11.9761 5.462 12.1412H5V13.0969V39.6601C5 40.9524 6.04762 42 7.33992 42C8.63223 42 9.67985 40.9524 9.67985 39.6601V13.0969V12.1412H9.21785C9.00982 11.9761 8.74665 11.8775 8.46045 11.8775H7.57064V10.8889H9.67985V10.6252H7.57064V9.37288H9.67985V9.10923H7.57064V8.05461H9.67985V7Z" fill="white"/>
<path fill-rule="evenodd" clip-rule="evenodd" d="M14.7552 7H10.0753V39.6601C10.0753 40.9524 11.1229 42 12.4152 42C13.7075 42 14.7552 40.9524 14.7552 39.6601V13.1043C14.7552 13.1019 14.7552 13.0994 14.7552 13.0969C14.7552 13.0945 14.7552 13.092 14.7552 13.0895V12.1412H14.2932C14.0852 11.9761 13.822 11.8775 13.5358 11.8775H12.646V10.8889H14.7552V10.6252H12.646V9.37288H14.7552V9.10923H12.646V8.05461H14.7552V7ZM12.1846 11.8775V10.8889H10.0753V12.1412H10.5373C10.7454 11.9761 11.0085 11.8775 11.2947 11.8775H12.1846ZM12.1846 8.05461H10.0753V9.10923H12.1846V8.05461ZM10.0753 9.37288H12.1846V10.6252H10.0753V9.37288Z" fill="white"/>
<path fill-rule="evenodd" clip-rule="evenodd" d="M19.8305 7H15.1507V8.05461H17.2599V9.10923H15.1507V9.37288H17.2599V10.6252H15.1507V10.8889H17.2599V11.8775H16.37C16.0838 11.8775 15.8207 11.9761 15.6126 12.1412H15.1507V13.0862C15.1507 13.0898 15.1506 13.0933 15.1506 13.0969C15.1506 13.1005 15.1507 13.1041 15.1507 13.1077V39.6601C15.1507 40.9524 16.1983 42 17.4906 42C18.7829 42 19.8305 40.9524 19.8305 39.6601V7ZM19.3685 12.1412H19.8305V10.8889H17.7213V11.8775H18.6111C18.8973 11.8775 19.1605 11.9761 19.3685 12.1412ZM17.7213 8.05461H19.8305V9.10923H17.7213V8.05461ZM19.8305 9.37288H17.7213V10.6252H19.8305V9.37288Z" fill="white"/>
<path fill-rule="evenodd" clip-rule="evenodd" d="M24.906 7H20.2261V8.05461H22.3353V9.10923H20.2261V9.37288H22.3353V10.6252H20.2261V10.8889H22.3353V11.8775H21.4455C21.1593 11.8775 20.8961 11.9761 20.6881 12.1412H20.2261V13.0851C20.2261 13.0891 20.2261 13.093 20.2261 13.0969C20.2261 13.1009 20.2261 13.1048 20.2261 13.1087V39.6601C20.2261 40.9524 21.2738 42 22.5661 42C23.8584 42 24.906 40.9524 24.906 39.6601V7ZM24.4439 12.1412H24.9058V10.8889H22.7966V11.8775H23.6865C23.9727 11.8775 24.2359 11.9761 24.4439 12.1412ZM22.7966 8.05461H24.9058V9.10923H22.7966V8.05461ZM24.9058 9.37288H22.7966V10.6252H24.9058V9.37288Z" fill="white"/>
<path fill-rule="evenodd" clip-rule="evenodd" d="M29.9811 7H25.3013V8.05461H27.4105V9.10923H25.3013V9.37288H27.4105V10.6252H25.3013V10.8889H27.4105V11.8775H26.5207C26.2345 11.8775 25.9713 11.9761 25.7633 12.1412H25.3013V13.0945C25.3013 13.0953 25.3013 13.0961 25.3013 13.0969C25.3013 13.0977 25.3013 13.0985 25.3013 13.0994V39.6601C25.3013 40.9524 26.3489 42 27.6412 42C28.9335 42 29.9811 40.9524 29.9811 39.6601V12.1412H29.5191C29.3111 11.9761 29.0479 11.8775 28.7617 11.8775H27.8719V10.8889H29.9811V10.6252H27.8719V9.37288H29.9811V9.10923H27.8719V8.05461H29.9811V7Z" fill="white"/>
<path fill-rule="evenodd" clip-rule="evenodd" d="M35.0566 7H30.3767V39.6601C30.3767 40.9524 31.4243 42 32.7166 42C34.0089 42 35.0566 40.9524 35.0566 39.6601V13.108C35.0566 13.1043 35.0566 13.1006 35.0566 13.0969C35.0566 13.0932 35.0566 13.0895 35.0566 13.0858V12.1412H34.5946C34.3866 11.9761 34.1234 11.8775 33.8372 11.8775H32.9474V10.8889H35.0566V10.6252H32.9474V9.37288H35.0566V9.10923H32.9474V8.05461H35.0566V7ZM32.486 11.8775V10.8889H30.3768V12.1412H30.8388C31.0468 11.9761 31.31 11.8775 31.5962 11.8775H32.486ZM32.486 8.05461H30.3768V9.10923H32.486V8.05461ZM30.3768 9.37288H32.486V10.6252H30.3768V9.37288Z" fill="white"/>
<path fill-rule="evenodd" clip-rule="evenodd" d="M40.1319 7H35.452V8.05461H37.5613V9.10923H35.452V9.37288H37.5613V10.6252H35.452V10.8889H37.5613V11.8775H36.6714C36.3852 11.8775 36.1221 11.9761 35.914 12.1412H35.452V13.09C35.452 13.0923 35.452 13.0946 35.452 13.0969C35.452 13.0992 35.452 13.1015 35.452 13.1038V39.6601C35.452 40.9524 36.4997 42 37.792 42C39.0843 42 40.1319 40.9524 40.1319 39.6601V7ZM39.6699 12.1412H40.1318V10.8889H38.0226V11.8775H38.9125C39.1987 11.8775 39.4618 11.9761 39.6699 12.1412ZM38.0226 8.05461H40.1318V9.10923H38.0226V8.05461ZM40.1318 9.37288H38.0226V10.6252H40.1318V9.37288Z" fill="white"/>
<path fill-rule="evenodd" clip-rule="evenodd" d="M45.2072 7H40.5273V39.6601C40.5273 40.9524 41.575 42 42.8673 42C44.1596 42 45.2072 40.9524 45.2072 39.6601V13.1122C45.2073 13.1071 45.2073 13.102 45.2073 13.0969C45.2073 13.0918 45.2073 13.0867 45.2072 13.0816V12.1412H44.7453C44.5373 11.9761 44.2741 11.8775 43.9879 11.8775H43.098V10.8889H45.2072V10.6252H43.098V9.37288H45.2072V9.10923H43.098V8.05461H45.2072V7ZM42.6367 11.8775V10.8889H40.5274V12.1412H40.9894C41.1975 11.9761 41.4606 11.8775 41.7468 11.8775H42.6367ZM42.6367 8.05461H40.5274V9.10923H42.6367V8.05461ZM40.5274 9.37288H42.6367V10.6252H40.5274V9.37288Z" fill="white"/>
</svg>
