<svg width="25" height="25" viewBox="0 0 25 25" fill="none" xmlns="http://www.w3.org/2000/svg">
<path fill-rule="evenodd" clip-rule="evenodd" d="M23.029 12.361C23.029 6.47801 18.243 1.692 12.361 1.692C6.478 1.692 1.692 6.47801 1.692 12.361C1.692 18.244 6.478 23.03 12.361 23.03C18.243 23.03 23.029 18.244 23.029 12.361ZM0 12.36C0 5.534 5.534 0 12.361 0C19.188 0 24.722 5.534 24.722 12.36C24.722 19.187 19.188 24.721 12.361 24.721C5.534 24.721 0 19.187 0 12.36ZM7.40302 14.0051C7.65302 14.8861 8.59602 15.9691 10.107 16.0221C9.67402 16.3611 9.21802 16.6261 8.72402 16.8301C7.79602 17.2101 6.83102 17.3401 5.81702 17.2311C5.82253 17.2347 5.82764 17.2381 5.83239 17.2412C5.85522 17.2562 5.87012 17.266 5.88502 17.2751C7.31102 18.1561 8.86002 18.5731 10.536 18.5231C11.081 18.5081 11.622 18.4481 12.155 18.3311C13.709 17.9881 15.043 17.2501 16.149 16.1051C16.803 15.4311 17.322 14.6641 17.72 13.8141C18.105 12.9911 18.357 12.1291 18.469 11.2271C18.522 10.7981 18.539 10.3671 18.523 9.9361C18.522 9.8931 18.538 9.86911 18.571 9.84411C18.965 9.55511 19.32 9.22111 19.628 8.84011C19.7107 8.73806 19.7897 8.63291 19.8688 8.52763C19.8998 8.48641 19.9308 8.44518 19.962 8.4041C19.96 8.4021 19.958 8.39985 19.956 8.3976C19.954 8.39535 19.952 8.3931 19.95 8.3911C19.432 8.6151 18.894 8.76511 18.331 8.82711C18.927 8.44211 19.346 7.92111 19.576 7.24511C19.5733 7.24511 19.5709 7.24506 19.5689 7.24501C19.5619 7.24486 19.5586 7.24479 19.557 7.24711C19.543 7.25211 19.53 7.2591 19.518 7.2671C18.988 7.5711 18.425 7.78711 17.827 7.91711C17.76 7.93211 17.721 7.91711 17.673 7.87011C16.96 7.17811 16.106 6.90009 15.129 7.0601C14.281 7.19709 13.62 7.6471 13.158 8.3731C12.789 8.9521 12.652 9.58911 12.733 10.2731C12.7409 10.3395 12.7514 10.4064 12.7625 10.4771C12.7683 10.5139 12.7742 10.5517 12.78 10.5911C10.351 10.4231 8.36002 9.4081 6.78602 7.5541C6.41402 8.2171 6.30602 8.9191 6.47402 9.6581C6.64302 10.4001 7.05502 10.9791 7.67002 11.4221C7.21202 11.4091 6.78602 11.2881 6.37702 11.0691C6.37202 11.6331 6.51202 12.1451 6.80302 12.6141C7.24102 13.3201 7.87202 13.7581 8.69002 13.9481C8.68199 13.9519 8.67557 13.9553 8.67009 13.9582C8.66123 13.9629 8.65481 13.9662 8.64802 13.9681C8.23702 14.0681 7.82302 14.0851 7.40302 14.0051Z" fill="white"/>
</svg>
