<svg width="110" height="110" viewBox="0 0 110 110" fill="none" xmlns="http://www.w3.org/2000/svg">
<path d="M90.327 50.8821L85.6856 44.5317C85.3943 44.1239 85.3749 43.5607 85.6662 43.1529L90.2105 36.7443C90.6183 36.1617 90.4241 35.346 89.8027 35.0159L82.8697 31.3066C82.423 31.0736 82.1706 30.5687 82.2677 30.0637L83.5688 22.3151C83.6853 21.616 83.161 20.9557 82.4424 20.9363L74.5967 20.6061C74.0918 20.5867 73.6451 20.2371 73.5092 19.7516L71.3341 12.1778C71.1399 11.4981 70.3825 11.1291 69.7223 11.4204L62.498 14.5276C62.0319 14.7218 61.4881 14.6053 61.1386 14.2363L55.8951 8.39086C55.4096 7.86652 54.594 7.86652 54.1085 8.41028L48.9427 14.3334C48.6126 14.7218 48.0688 14.8383 47.6027 14.6441L40.3396 11.6534C39.6793 11.3816 38.9413 11.7505 38.7471 12.4303L36.6692 20.0041C36.5332 20.4896 36.106 20.8392 35.6011 20.878L27.7553 21.3247C27.0368 21.3635 26.5319 22.0238 26.6484 22.7229L28.0661 30.4521C28.1632 30.9571 27.9107 31.462 27.4835 31.695L20.6087 35.5014C19.9873 35.8509 19.8125 36.6666 20.2203 37.2298L24.8617 43.5801C25.153 43.988 25.1725 44.5512 24.8812 44.959L20.3368 51.3676C19.929 51.9502 20.1232 52.7659 20.7447 53.096L27.6777 56.8053C28.1243 57.0383 28.3768 57.5432 28.2797 58.0482L26.9785 65.7968C26.862 66.4959 27.3864 67.1562 28.1049 67.1756L35.9506 67.5058C36.4556 67.5252 36.9022 67.8747 37.0382 68.3602L39.2326 75.9147C39.4268 76.5944 40.1842 76.9634 40.8445 76.6721L48.0688 73.5648C48.5349 73.3706 49.0786 73.4872 49.4282 73.8561L54.6716 79.7016C55.1572 80.2259 55.9728 80.2259 56.4583 79.6822L61.6241 73.759C61.9542 73.3706 62.498 73.2541 62.964 73.4483L70.2272 76.439C70.8875 76.7109 71.6254 76.3419 71.8196 75.6622L73.8976 68.0884C74.0335 67.6029 74.4608 67.2533 74.9657 67.2145L82.8114 66.7678C83.53 66.729 84.0349 66.0687 83.9184 65.3695L82.5007 57.6403C82.4036 57.1354 82.6561 56.6305 83.0833 56.3974L89.958 52.5911C90.5795 52.2804 90.7543 51.4647 90.327 50.8821ZM55.2931 65.389C43.5439 65.389 33.9698 55.8148 33.9698 44.0657C33.9698 32.3165 43.5439 22.7423 55.2931 22.7423C67.0423 22.7423 76.6164 32.3165 76.6164 44.0657C76.6164 55.8343 67.0423 65.389 55.2931 65.389Z" fill="#C3C5C8"/>
<path d="M74.4996 79.1772C73.3732 80.323 71.8002 81.0027 70.1107 81.0027C69.5086 81.0027 68.9066 80.9056 68.3434 80.7503L63.333 79.2355L59.4684 82.77C59.3325 82.8865 59.216 83.003 59.08 83.1001L65.2945 102.365C65.5081 103.045 66.382 103.2 66.8287 102.637L71.3535 96.8302C71.5672 96.5388 71.9556 96.4223 72.2857 96.5194L79.3352 98.578C80.0149 98.7722 80.6364 98.1313 80.4227 97.471L74.4996 79.1772Z" fill="#C3C5C8"/>
<path d="M47.2726 79.2355L42.2622 80.7503C41.6796 80.9251 41.097 81.0027 40.4949 81.0027C38.8054 81.0027 37.2518 80.323 36.106 79.1772L30.1829 97.4904C29.9692 98.1701 30.5907 98.7916 31.2704 98.5974L38.3199 96.5388C38.6695 96.4417 39.0384 96.5583 39.2521 96.8496L43.7769 102.656C44.2042 103.219 45.0975 103.064 45.3111 102.384L51.5256 83.1195C51.3896 83.0224 51.2537 82.9059 51.1372 82.7894L47.2726 79.2355Z" fill="#C3C5C8"/>
<path d="M67.9356 38.7639L59.8957 38.1813L56.8661 30.724C56.3029 29.3257 54.3027 29.3257 53.7395 30.724L50.7099 38.1813L42.67 38.7639C41.1552 38.8804 40.5532 40.7642 41.699 41.7352L47.8552 46.9398L45.9326 54.7661C45.5636 56.242 47.1755 57.4072 48.4572 56.611L55.2931 52.358L62.129 56.611C63.4107 57.4072 65.0226 56.242 64.6536 54.7661L62.731 46.9398L68.8872 41.7352C70.0524 40.7642 69.4504 38.8804 67.9356 38.7639Z" fill="#C3C5C8"/>
</svg>
