<svg width="110" height="100" viewBox="0 0 110 100" fill="none" xmlns="http://www.w3.org/2000/svg">
<path d="M60.427 71.3121L52.563 72.5675C52.3203 72.6058 52.1395 72.8165 52.1395 73.0633V84.1997C52.1395 84.3551 52.2118 84.5039 52.3353 84.5997C52.4246 84.6678 52.5331 84.704 52.6438 84.704C52.6864 84.704 52.7288 84.6998 52.7714 84.6869L60.6354 82.6209C60.8565 82.5634 61.0098 82.3635 61.0098 82.1335V71.8079C61.0098 71.661 60.9459 71.5207 60.833 71.4249C60.7202 71.3291 60.5718 71.2888 60.427 71.3121Z" fill="#C3C5C8"/>
<path d="M70.2888 69.7355L63.9441 70.7482C63.7014 70.7886 63.5204 70.9973 63.5204 71.2442V81.2103C63.5204 81.3657 63.5929 81.5145 63.7164 81.6082C63.8057 81.6764 63.9142 81.7125 64.0226 81.7125C64.0652 81.7125 64.1078 81.7083 64.1502 81.6955L70.4951 80.0272C70.7164 79.9699 70.8695 79.7698 70.8695 79.54V70.2334C70.8695 70.0865 70.8057 69.9462 70.6929 69.8504C70.5825 69.7546 70.4336 69.7143 70.2888 69.7355Z" fill="#C3C5C8"/>
<path d="M72.9315 79.189C73.0211 79.2571 73.1273 79.2933 73.238 79.2933C73.2806 79.2933 73.3253 79.2869 73.3656 79.2763L78.5913 77.9018C78.8126 77.8442 78.9658 77.6443 78.9658 77.4145V68.9376C78.9658 68.7907 78.902 68.6504 78.7892 68.5547C78.6763 68.4589 78.5296 68.4185 78.3848 68.442L73.1591 69.2761C72.9145 69.3143 72.7356 69.525 72.7356 69.7718V78.7869C72.7337 78.9463 72.8081 79.0932 72.9315 79.189Z" fill="#C3C5C8"/>
<path d="M60.5036 55.814L52.6395 55.8544C52.3629 55.8544 52.1395 56.0798 52.1395 56.3566V67.4929C52.1395 67.6353 52.199 67.7716 52.3076 67.8672C52.3991 67.9524 52.5204 67.997 52.6438 67.997C52.6608 67.997 52.68 67.997 52.697 67.995L60.561 67.146C60.8163 67.1183 61.01 66.9033 61.01 66.6458V56.3181C61.01 56.1841 60.9566 56.0565 60.8631 55.9628C60.7652 55.8651 60.6377 55.8225 60.5036 55.814Z" fill="#C3C5C8"/>
<path d="M70.3656 55.7629L64.0207 55.7949C63.744 55.7969 63.5206 56.0226 63.5206 56.2971V66.2632C63.5206 66.4057 63.5803 66.542 63.6866 66.6376C63.7803 66.7207 63.8994 66.7673 64.0228 66.7673C64.04 66.7673 64.059 66.7673 64.0762 66.7631L70.4188 66.0782C70.6742 66.0506 70.8676 65.8356 70.8676 65.5781V56.2653C70.8676 56.1312 70.8144 56.0035 70.7188 55.9099C70.6272 55.814 70.4995 55.7564 70.3656 55.7629Z" fill="#C3C5C8"/>
<path d="M73.2379 65.7695C73.2549 65.7695 73.274 65.7674 73.2911 65.7653L78.5168 65.1993C78.7722 65.1717 78.9658 64.9567 78.9658 64.6994V56.2225C78.9658 56.0885 78.9126 55.9609 78.817 55.8672C78.7233 55.7736 78.5914 55.7225 78.4615 55.7203L73.236 55.7479C72.9592 55.7479 72.7358 55.9735 72.7358 56.2501V65.2652C72.7358 65.4078 72.7976 65.544 72.9039 65.6397C72.9933 65.7248 73.1144 65.7695 73.2379 65.7695Z" fill="#C3C5C8"/>
<path d="M60.5802 40.3285L52.7163 39.1541C52.5715 39.1327 52.4247 39.1755 52.3142 39.2711C52.2036 39.3669 52.1398 39.505 52.1398 39.6519V50.7883C52.1398 51.0586 52.3503 51.2797 52.6186 51.2905L60.4826 51.6543C60.489 51.6543 60.4975 51.6543 60.506 51.6543C60.6336 51.6543 60.7593 51.6055 60.8528 51.5161C60.9528 51.4204 61.0082 51.2882 61.0082 51.1521V40.8243C61.0079 40.5753 60.8271 40.3646 60.5802 40.3285Z" fill="#C3C5C8"/>
<path d="M63.5206 41.3498V51.3139C63.5206 51.5819 63.7313 51.8032 63.9994 51.8161L70.3421 52.1097C70.3507 52.1097 70.3592 52.1097 70.3656 52.1097C70.4953 52.1097 70.6187 52.0606 70.7122 51.9713C70.8124 51.8755 70.8676 51.7457 70.8676 51.6075V42.2967C70.8676 42.0477 70.6848 41.8371 70.4379 41.7988L64.0953 40.852C63.9505 40.8306 63.8036 40.8733 63.6932 40.9689C63.5844 41.0647 63.5206 41.2052 63.5206 41.3498Z" fill="#C3C5C8"/>
<path d="M73.2145 52.2459L78.4403 52.4884C78.4488 52.4907 78.4573 52.4907 78.4637 52.4907C78.5936 52.4907 78.717 52.4418 78.8105 52.3523C78.9105 52.2588 78.9659 52.1246 78.9659 51.9885V43.5117C78.9659 43.2628 78.7829 43.0521 78.5361 43.0139L73.3103 42.233C73.1657 42.2116 73.0188 42.2542 72.9082 42.35C72.7977 42.4458 72.7339 42.5842 72.7339 42.7309V51.746C72.7337 52.0118 72.9442 52.2329 73.2145 52.2459Z" fill="#C3C5C8"/>
<path d="M101.839 39.3754L84.1062 34.8987L65.3697 0.778767C65.3612 0.763992 65.3506 0.749042 65.34 0.734093C65.3273 0.710625 65.3123 0.689418 65.2974 0.66595C65.2654 0.621276 65.2336 0.576601 65.1974 0.534012C65.1889 0.523408 65.1804 0.508632 65.1698 0.497855C65.1633 0.493683 65.1613 0.489337 65.1548 0.485165C65.1037 0.429887 65.0486 0.37652 64.989 0.329759C64.9782 0.321242 64.9634 0.312724 64.9506 0.30212C64.9036 0.265963 64.8527 0.231892 64.8018 0.202167C64.7804 0.189303 64.7569 0.178699 64.7357 0.16601C64.6888 0.142542 64.6422 0.121335 64.5911 0.102213C64.5699 0.0936955 64.5485 0.0851777 64.5273 0.0766599C64.4635 0.0552786 64.3997 0.0384169 64.3336 0.0255533C64.3251 0.0255533 64.3187 0.0213813 64.3102 0.0213813C64.2443 0.0107776 64.1782 0.00225982 64.1103 0C64.104 0 64.0953 0 64.0868 0C64.0679 0 64.0486 0 64.0294 0C63.9721 0 63.9125 0.00417197 63.8549 0.0107776C63.8358 0.0128636 63.8146 0.0149496 63.7953 0.0192954C63.7337 0.0298991 63.6719 0.0427627 63.6145 0.0618842C63.5996 0.06623 63.5869 0.070402 63.5719 0.0747478C63.4973 0.100127 63.4231 0.130026 63.3527 0.166183C63.3506 0.166183 63.3506 0.166183 63.3485 0.168269L21.656 21.9218C21.4517 22.0282 21.273 22.1813 21.1369 22.3664L7.29188 41.2627C6.91102 41.7817 6.9025 42.4861 7.26859 43.0137C7.55367 43.4265 8.0218 43.6626 8.50697 43.6626C8.64308 43.6626 8.77936 43.6435 8.91547 43.6073L10.873 43.0563V82.5911C10.873 83.1571 11.1901 83.6761 11.6944 83.9337L42.795 99.8342C42.7992 99.8363 42.8035 99.8383 42.8077 99.8404C42.8226 99.8468 42.8397 99.8531 42.8546 99.8595C42.9035 99.883 42.9525 99.9021 43.0036 99.9192C43.0248 99.9256 43.0483 99.9319 43.0695 99.9383C43.1183 99.951 43.1653 99.9617 43.2141 99.9722C43.2355 99.9763 43.2546 99.9807 43.2758 99.983C43.3439 99.9915 43.4121 100 43.4823 100C43.5419 100 43.6037 99.9958 43.6633 99.9873C43.6781 99.9852 43.6909 99.9831 43.7059 99.9831C43.7655 99.9746 43.8229 99.9619 43.8825 99.9447C43.891 99.9426 43.8995 99.9405 43.9079 99.9385C43.9398 99.9299 43.9696 99.9214 43.9993 99.9086L83.6149 85.4848L101.986 78.7954C102.581 78.5783 102.979 78.0123 102.979 77.3784V40.837C102.979 40.1477 102.509 39.5433 101.839 39.3754ZM14.8259 44.2265C14.8259 43.9882 14.994 43.7839 15.2259 43.7349L18.5239 43.0455C18.6706 43.0158 18.826 43.0519 18.943 43.1477C19.06 43.2435 19.1281 43.386 19.1281 43.5392V51.9968C19.1281 52.2628 18.9216 52.482 18.6579 52.499L15.362 52.7139C15.3514 52.7139 15.3408 52.7139 15.328 52.7139C15.2004 52.7139 15.077 52.665 14.9833 52.5778C14.8833 52.482 14.8237 52.35 14.8237 52.2118V44.2265H14.8259ZM19.1283 77.3655C19.1283 77.5293 19.0474 77.6826 18.9134 77.7784C18.8284 77.838 18.7262 77.8677 18.6263 77.8677C18.5666 77.8677 18.5093 77.8569 18.4519 77.8357L15.154 76.6229C14.9561 76.5506 14.8242 76.3611 14.8242 76.1504V68.1694C14.8242 68.0184 14.8944 67.8738 15.0135 67.778C15.1327 67.6822 15.288 67.646 15.437 67.6803L18.7326 68.4185C18.9624 68.4697 19.1264 68.6739 19.1264 68.9079V77.3653H19.1283V77.3655ZM19.1517 64.6822C19.1517 64.8291 19.088 64.9675 18.9772 65.0631C18.8858 65.1418 18.7688 65.1842 18.6495 65.1842C18.624 65.1842 18.6005 65.1821 18.575 65.1801L15.2558 64.6779C15.009 64.6396 14.8282 64.4289 14.8282 64.1802V56.1523C14.8282 56.0182 14.8814 55.8905 14.977 55.7968C15.0707 55.7033 15.2025 55.6436 15.3346 55.6501L18.6537 55.6713C18.9303 55.6735 19.1537 55.8969 19.1537 56.1735V64.682H19.1517V64.6822ZM27.0625 89.8826C27.0625 90.0594 26.9711 90.2209 26.8221 90.3125C26.7413 90.3614 26.6519 90.3871 26.5605 90.3871C26.4817 90.3871 26.403 90.3701 26.3307 90.3318L22.1559 88.1954C21.9878 88.1081 21.8814 87.9359 21.8814 87.7464V69.7482C21.8814 69.5971 21.9517 69.4525 22.0686 69.3567C22.1879 69.2609 22.3431 69.2248 22.4921 69.259L26.6667 70.1908C26.8965 70.2419 27.0604 70.4461 27.0604 70.6801V89.8826H27.0625ZM27.0625 65.8801C27.0625 66.027 26.9987 66.1653 26.8859 66.2609C26.7944 66.3395 26.6775 66.3821 26.5582 66.3821C26.5327 66.3821 26.5092 66.3798 26.4836 66.3757L22.2666 65.7374C22.0198 65.7012 21.839 65.4905 21.839 65.2416V56.2053C21.839 56.0733 21.8922 55.9435 21.9859 55.85C22.0817 55.7563 22.2008 55.7031 22.3433 55.7053L26.5605 55.7328C26.837 55.7351 27.0604 55.9607 27.0604 56.235V65.8799H27.0625V65.8801ZM27.0625 51.4797C27.0625 51.7437 26.856 51.9648 26.5923 51.9819L22.373 52.2542C22.3624 52.2542 22.3516 52.2563 22.339 52.2563C22.2114 52.2563 22.0879 52.2075 21.9942 52.1202C21.8964 52.0244 21.8388 51.8925 21.8388 51.7543V42.7606C21.8388 42.5223 22.0049 42.318 22.2388 42.2692L26.456 41.3861C26.6048 41.3564 26.7581 41.3925 26.8751 41.4881C26.9921 41.5818 27.0602 41.7265 27.0602 41.8775V51.4798H27.0625V51.4797ZM37.4754 84.1102C37.4754 84.2762 37.3946 84.4293 37.2605 84.523C37.1734 84.5827 37.0756 84.6124 36.9734 84.6124C36.9137 84.6124 36.8564 84.6018 36.8011 84.5827L31.2159 82.5294C31.0179 82.4569 30.8882 82.2676 30.8882 82.0569V71.8077C30.8882 71.6546 30.9563 71.5098 31.0754 71.414C31.1945 71.3182 31.3499 71.2821 31.4989 71.3163L37.0841 72.5674C37.3139 72.6183 37.4756 72.8227 37.4756 73.0588V84.1102H37.4754ZM37.4754 67.4569C37.4754 67.6036 37.4116 67.7441 37.301 67.8376C37.2096 67.9163 37.0924 67.9588 36.9734 67.9588C36.9478 67.9588 36.9245 67.9588 36.8969 67.9546L31.3116 67.1101C31.0648 67.0717 30.884 66.861 30.884 66.6142V56.3162C30.884 56.1822 30.9372 56.0544 31.0309 55.9609C31.1267 55.8651 31.2458 55.814 31.3883 55.814L36.9735 55.8543C37.2501 55.8564 37.4735 56.0799 37.4735 56.3565V67.4567H37.4754V67.4569ZM37.4754 50.8033C37.4754 51.0672 37.269 51.2883 37.0052 51.3055L31.4199 51.667C31.4093 51.667 31.3986 51.667 31.3859 51.667C31.2583 51.667 31.1349 51.6182 31.0432 51.5309C30.9412 51.4352 30.8837 51.3032 30.8837 51.165V40.867C30.8837 40.6287 31.0497 40.4245 31.2837 40.3756L36.8689 39.2075C37.0158 39.1755 37.171 39.2139 37.288 39.3095C37.405 39.4032 37.4731 39.5478 37.4731 39.6989V50.8035H37.4754V50.8033ZM81.5913 83.0124L44.9926 96.3382V32.7774L63.9227 4.40855L81.5913 36.588V83.0124ZM93.1894 73.6803C93.1894 73.908 93.0363 74.1079 92.815 74.1653L87.3681 75.5952C87.3255 75.606 87.283 75.6122 87.2405 75.6122C87.1319 75.6122 87.0213 75.5761 86.9341 75.5079C86.8107 75.4144 86.7383 75.2653 86.7383 75.11V63.7503C86.7383 63.4928 86.9318 63.2778 87.1851 63.2502L92.6319 62.6607C92.7745 62.6459 92.9149 62.6927 93.0213 62.7864C93.1277 62.8822 93.1894 63.0183 93.1894 63.1608V73.6803ZM93.1894 56.1502C93.1894 56.4267 92.966 56.6524 92.6895 56.6524L87.2447 56.68H87.2424C87.1105 56.68 86.9829 56.6268 86.8871 56.5331C86.7936 56.4373 86.7402 56.312 86.7402 56.1778V44.8181C86.7402 44.6733 86.804 44.533 86.9148 44.4372C87.0255 44.3414 87.1722 44.2988 87.3168 44.3202L92.7637 45.133C93.0105 45.1692 93.1915 45.382 93.1915 45.6309V56.1504H93.1894V56.1502ZM100.67 71.7165C100.67 71.9442 100.515 72.1441 100.296 72.2037L96.0192 73.3272C95.9789 73.338 95.9342 73.3442 95.8916 73.3442C95.7809 73.3442 95.6724 73.3081 95.5852 73.2399C95.4618 73.1442 95.3894 72.9973 95.3894 72.842V62.9015C95.3894 62.644 95.5831 62.429 95.8384 62.4013L100.115 61.9334C100.256 61.9164 100.398 61.9631 100.507 62.0589C100.613 62.1547 100.675 62.291 100.675 62.4333V71.7165H100.67ZM100.67 56.1118C100.67 56.3885 100.447 56.614 100.17 56.614L95.8937 56.6353H95.8915C95.7595 56.6353 95.6319 56.5842 95.5361 56.4884C95.4425 56.3927 95.3874 56.2672 95.3874 56.1331V46.1117C95.3874 45.9648 95.451 45.8266 95.5617 45.7309C95.6724 45.6351 95.8212 45.5927 95.9638 45.6139L100.241 46.2522C100.487 46.2883 100.67 46.5011 100.67 46.75V56.1118Z" fill="#C3C5C8"/>
</svg>
