<svg width="26" height="26" viewBox="0 0 26 26" fill="none" xmlns="http://www.w3.org/2000/svg">
<path fill-rule="evenodd" clip-rule="evenodd" d="M12.882 25.3599C19.7088 25.3599 25.243 19.8261 25.243 12.9999C25.243 6.17365 19.7088 0.639893 12.882 0.639893C6.05521 0.639893 0.520996 6.17365 0.520996 12.9999C0.520996 19.8261 6.05521 25.3599 12.882 25.3599ZM19.453 9.76413C19.365 8.90318 19.035 8.14022 18.394 7.53026C17.721 6.8873 16.896 6.60332 15.993 6.55532C14.454 6.47132 10.8 6.41832 9.51699 6.62731C8.05098 6.8663 7.08998 7.72225 6.68398 9.17017C6.37198 10.2841 6.43398 15.4188 6.61598 16.5197C6.86498 18.0257 7.75398 18.9906 9.24698 19.3756C10.28 19.6426 15.355 19.6076 16.495 19.4236C18.002 19.1796 18.972 18.2946 19.364 16.8047C19.662 15.6608 19.558 10.7961 19.453 9.76413ZM18.248 16.3067C18.073 17.4507 17.314 18.1586 16.164 18.2846C15.108 18.4006 10.391 18.4646 9.41198 18.1906C8.47498 17.9287 7.93898 17.2847 7.78298 16.3407C7.63498 15.4398 7.59698 10.9381 7.78098 9.73313C7.95398 8.5992 8.71298 7.89224 9.85599 7.76425C11.016 7.63425 15.19 7.62026 16.301 7.79025C17.442 7.96524 18.15 8.72619 18.275 9.87813C18.392 10.9511 18.425 15.1518 18.248 16.3067ZM13.013 9.66814C11.159 9.66714 9.65499 11.169 9.65399 13.0229C9.65299 14.8768 11.155 16.3807 13.009 16.3817C14.863 16.3827 16.367 14.8808 16.368 13.0269C16.37 11.173 14.868 9.66914 13.013 9.66814ZM12.99 15.1948C11.791 15.1838 10.828 14.2029 10.839 13.0049C10.85 11.806 11.83 10.8421 13.029 10.8531C14.228 10.8641 15.191 11.845 15.18 13.0429C15.17 14.2419 14.19 15.2048 12.99 15.1948ZM17.288 9.54114C17.287 9.97512 16.934 10.3261 16.5 10.3251C16.066 10.3241 15.715 9.97112 15.716 9.53715C15.717 9.10317 16.07 8.75219 16.504 8.75319C16.938 8.75419 17.289 9.10717 17.288 9.54114Z" fill="#C3C5C8"/>
</svg>
