<svg width="110" height="110" viewBox="0 0 110 110" fill="none" xmlns="http://www.w3.org/2000/svg">
<g clip-path="url(#clip0_1343_5234)">
<path fill-rule="evenodd" clip-rule="evenodd" d="M91.3636 37.1818H77.7273V19H14.0909C9.09091 19 5 23.0909 5 28.0909V78.0909H14.0909C14.0909 85.6364 20.1818 91.7273 27.7273 91.7273C35.2727 91.7273 41.3636 85.6364 41.3636 78.0909H68.6364C68.6364 85.6364 74.7273 91.7273 82.2727 91.7273C89.8182 91.7273 95.9091 85.6364 95.9091 78.0909H105V55.3636L91.3636 37.1818ZM89.0909 44L98 55.3636H77.7273V44H89.0909ZM27.7273 82.6364C25.2273 82.6364 23.1818 80.5909 23.1818 78.0909C23.1818 75.5909 25.2273 73.5455 27.7273 73.5455C30.2273 73.5455 32.2727 75.5909 32.2727 78.0909C32.2727 80.5909 30.2273 82.6364 27.7273 82.6364ZM37.8182 69C35.3182 66.2273 31.7727 64.4545 27.7273 64.4545C23.6818 64.4545 20.1364 66.2273 17.6364 69H14.0909V28.0909H68.6364V69H37.8182ZM82.2727 82.6364C79.7727 82.6364 77.7273 80.5909 77.7273 78.0909C77.7273 75.5909 79.7727 73.5455 82.2727 73.5455C84.7727 73.5455 86.8182 75.5909 86.8182 78.0909C86.8182 80.5909 84.7727 82.6364 82.2727 82.6364Z" fill="#C3C5C8"/>
</g>
<defs>
<clipPath id="clip0_1343_5234">
<rect width="100" height="72.7273" fill="white" transform="translate(5 19)"/>
</clipPath>
</defs>
</svg>
