<svg width="110" height="100" viewBox="0 0 110 100" fill="none" xmlns="http://www.w3.org/2000/svg">
<path d="M98.6834 68.2462V64.3015V40.6231V16.9447C98.6834 14.7776 96.9095 13 94.7386 13H15.814C13.6432 13 11.8643 14.7689 11.8643 16.9447V40.6231V64.3015V68.2462L2 80.0854C2 83.3473 4.64896 86 7.91959 86H102.633C105.899 86 108.553 83.346 108.553 80.0854L98.6834 68.2462ZM63.1745 84.0339H47.3869C46.8414 84.0339 46.3995 83.5957 46.3995 83.0464C46.3995 82.4972 46.8414 82.059 47.3869 82.059H63.1758C63.7163 82.059 64.1632 82.4972 64.1632 83.0464C64.1482 83.597 63.7151 84.0339 63.1745 84.0339ZM39.0093 80.0891L42.0203 76.4752H68.5261L71.5421 80.0891H39.0093ZM93.1295 61.2668C93.1295 63.1705 91.5791 64.7109 89.6891 64.7109H20.8623C18.9723 64.7109 17.4219 63.1568 17.4219 61.2668V19.9869C17.4219 18.0832 18.9723 16.5428 20.8623 16.5428H89.6904C91.5804 16.5428 93.1308 18.0932 93.1308 19.9869C93.1295 19.9869 93.1295 61.2668 93.1295 61.2668Z" fill="#C3C5C8"/>
</svg>
