<?xml version="1.0" encoding="utf-8"?>
<!-- Generator: Adobe Illustrator 16.0.0, SVG Export Plug-In . SVG Version: 6.00 Build 0)  -->
<!DOCTYPE svg PUBLIC "-//W3C//DTD SVG 1.1//EN" "http://www.w3.org/Graphics/SVG/1.1/DTD/svg11.dtd">
<svg version="1.1" id="Capa_1" xmlns="http://www.w3.org/2000/svg" xmlns:xlink="http://www.w3.org/1999/xlink" x="0px" y="0px"
	 width="70px" height="58px" viewBox="0 0 70 58" enable-background="new 0 0 70 58" xml:space="preserve">
<path fill="#FFA400" d="M10.755,22.589L24.941,8.403l6.846,6.845l-7.341,7.341H10.755z M35.208,45.453l-3.987-3.985l-6.777-6.778
	h-13.69l21.032,21.033c1.89,1.891,4.955,1.891,6.846,0l3.422-3.424L35.208,45.453z M59.662,22.589L38.631,1.558
	c-1.89-1.89-4.955-1.89-6.845,0l-3.423,3.423l6.845,6.845l1.305,1.305l9.459,9.458H59.662z M45.973,34.689l-7.342,7.342l6.847,6.846
	l14.187-14.188H45.973z"/>
<path fill="#B2B3B2" d="M0.643,22.591v12.101h69.131V22.591H0.643z M8.758,32.584H7.187l-3.31-7.886h1.737l2.442,6.039l2.438-6.039
	h1.72L8.758,32.584z M19.021,32.584H17.56v-7.886h1.462V32.584z M29.788,32.584h-4.594v-7.886h1.461v6.618h3.133V32.584
	L29.788,32.584z M41.762,32.584l-0.898-2.15h-2.621l0.503-1.269h1.588l-1.24-2.961l-2.598,6.38h-1.5l3.347-7.886h1.571l3.419,7.886
	H41.762z M51.649,29.826v2.758h-1.462v-2.758l-3.026-5.128h1.57l2.217,3.8l2.086-3.8h1.515L51.649,29.826z M62.625,32.584h-3.088
	v-7.886h3.088c2.611,0,3.916,1.243,3.916,3.727C66.54,31.197,65.234,32.584,62.625,32.584z"/>
<path fill="#B2B3B2" d="M62.625,25.967h-1.627v5.349h1.627c1.636,0,2.454-0.963,2.454-2.89
	C65.079,26.787,64.261,25.967,62.625,25.967z"/>
</svg>
