<svg width="187" height="58" viewBox="0 0 187 58" fill="none" xmlns="http://www.w3.org/2000/svg">
<path d="M41.3734 37.4341V53.0061H43.4178V45.3024H46.5043V53.0061H48.5487V37.4341H46.5043V43.5053H43.4178V37.4341H41.3734Z" fill="#00783E"/>
<path d="M51.711 42.5754L54.45 52.1585L52.856 57.281H54.8793L59.0911 42.5754H57.1488L55.4106 49.8459H55.3698L53.8574 42.5754H51.711Z" fill="#00783E"/>
<path fill-rule="evenodd" clip-rule="evenodd" d="M64.91 51.4357C66.1979 51.4357 66.1162 48.606 66.1162 47.7798C66.1162 46.9543 66.1979 44.1449 64.91 44.1449C63.4793 44.1449 63.6426 46.9334 63.6426 47.7798C63.6426 48.6485 63.4793 51.4357 64.91 51.4357ZM66.055 53.0059V51.6626C65.6257 52.5725 65.1964 53.1711 64.1127 53.1711C61.7214 53.1711 61.6806 49.3501 61.6806 47.6559C61.6806 45.9223 61.7418 42.4107 64.1746 42.4107C65.1556 42.4107 65.6257 42.947 66.0142 43.7319L66.055 35.8628H67.9769V53.0059H66.055Z" fill="#00783E"/>
<path d="M73.5107 42.5755H71.5895V53.0061H73.5311V46.4391C73.5311 45.1167 73.9808 44.3109 75.4122 44.3109L75.7387 44.3319V42.4109C74.6761 42.4109 74.0012 42.9473 73.5515 43.856H73.5107V42.5755Z" fill="#00783E"/>
<path fill-rule="evenodd" clip-rule="evenodd" d="M81.8672 51.395C83.3388 51.395 83.1551 48.5653 83.1551 47.8218C83.1551 46.9963 83.3388 44.187 81.8672 44.187C80.395 44.187 80.5794 46.9963 80.5794 47.8218C80.5787 48.5653 80.395 51.395 81.8672 51.395ZM81.8672 53.1711C78.9235 53.1711 78.6167 50.011 78.6167 47.8218C78.6167 45.5501 78.9235 42.4109 81.8672 42.4109C84.811 42.4109 85.1178 45.5501 85.1178 47.8218C85.1178 50.0104 84.811 53.1711 81.8672 53.1711Z" fill="#00783E"/>
<path d="M90.3507 42.5755H88.4289V53.0061H90.3507V46.4996C90.3507 45.6124 90.2487 44.1457 91.5161 44.1457C92.538 44.1457 92.6617 45.0754 92.6617 45.798V53.0061H94.5823V45.8393C94.5823 44.2493 94.5211 42.4109 92.4767 42.4109C91.4555 42.4109 90.8215 42.9275 90.3916 43.774H90.3507V42.5755Z" fill="#00783E"/>
<path d="M100.1 42.5754H98.1785V53.0063H100.1V42.5754Z" fill="#00783E"/>
<path d="M99.1602 40.717C99.8337 40.717 100.428 40.1393 100.428 39.4154C100.428 38.7137 99.8344 38.136 99.1602 38.136C98.4445 38.136 97.8723 38.7137 97.8723 39.4154C97.8723 40.1393 98.4445 40.717 99.1602 40.717Z" fill="#00783E"/>
<path d="M108.006 42.7617C107.495 42.5139 107.045 42.4109 106.472 42.4109C103.651 42.4109 103.406 45.7362 103.406 47.8841C103.406 49.9499 103.733 53.1711 106.452 53.1711C107.024 53.1711 107.515 53.0472 108.006 52.7587V50.9616C107.699 51.1885 107.454 51.3531 107.024 51.3531C105.41 51.3531 105.369 48.7515 105.369 47.6985C105.369 46.5833 105.41 44.2493 107.066 44.2283C107.494 44.2493 107.76 44.4145 107.964 44.724H108.006V42.7617Z" fill="#00783E"/>
<path d="M122.366 37.7434C121.711 37.3507 120.975 37.2268 120.199 37.2268C117.888 37.2268 116.743 39.0239 116.743 41.2125C116.743 45.3023 121.057 45.9219 121.057 49.0192C121.057 50.177 120.525 51.1881 119.259 51.1881C118.461 51.1881 117.848 50.8373 117.235 50.3823V52.4679C117.869 52.9845 118.686 53.2114 119.484 53.2114C121.752 53.2114 123.102 51.3323 123.102 49.1425C123.102 47.0366 122.304 46.0045 120.914 44.578L119.361 42.8653C118.952 42.3277 118.788 41.853 118.788 41.1712C118.788 40.0978 119.484 39.167 120.608 39.167C121.304 39.167 121.815 39.4358 122.346 39.8285L122.366 37.7434Z" fill="#00783E"/>
<path fill-rule="evenodd" clip-rule="evenodd" d="M129.266 51.395C130.737 51.395 130.554 48.5653 130.554 47.8218C130.554 46.9963 130.737 44.187 129.266 44.187C127.793 44.187 127.978 46.9963 127.978 47.8218C127.978 48.5653 127.793 51.395 129.266 51.395ZM129.266 53.1711C126.322 53.1711 126.015 50.011 126.015 47.8218C126.015 45.5501 126.322 42.4109 129.266 42.4109C132.209 42.4109 132.517 45.5501 132.517 47.8218C132.516 50.0104 132.209 53.1711 129.266 53.1711Z" fill="#00783E"/>
<path d="M137.729 35.8638H135.807V53.0059H137.729V35.8638Z" fill="#00783E"/>
<path d="M141.341 42.5754V49.2047C141.341 51.5807 141.731 53.1707 144.531 53.1707C146.882 53.1707 147.515 51.7663 147.515 49.6184V42.5754H145.593V49.2047C145.593 50.1344 145.738 51.3945 144.45 51.3945C143.141 51.3945 143.263 50.0314 143.263 49.1017V42.5754H141.341Z" fill="#00783E"/>
<path d="M151.516 39.6233V42.5753H150.473V44.1037H151.516V53.0063H153.438V44.1037H154.46V42.5753H153.438V39.6233H151.516Z" fill="#00783E"/>
<path d="M159.38 42.5754H157.459V53.0063H159.38V42.5754Z" fill="#00783E"/>
<path d="M158.44 40.717C159.114 40.717 159.707 40.1393 159.707 39.4154C159.707 38.7137 159.114 38.136 158.44 38.136C157.724 38.136 157.152 38.7137 157.152 39.4154C157.152 40.1393 157.724 40.717 158.44 40.717Z" fill="#00783E"/>
<path fill-rule="evenodd" clip-rule="evenodd" d="M165.936 51.395C167.407 51.395 167.224 48.5653 167.224 47.8218C167.224 46.9963 167.407 44.187 165.936 44.187C164.464 44.187 164.648 46.9963 164.648 47.8218C164.648 48.5653 164.464 51.395 165.936 51.395ZM165.936 53.1711C162.992 53.1711 162.685 50.011 162.685 47.8218C162.685 45.5501 162.992 42.4109 165.936 42.4109C168.88 42.4109 169.187 45.5501 169.187 47.8218C169.187 50.0104 168.88 53.1711 165.936 53.1711Z" fill="#00783E"/>
<path d="M174.42 42.5755H172.498V53.0061H174.42V46.4996C174.42 45.6124 174.318 44.1457 175.586 44.1457C176.608 44.1457 176.731 45.0754 176.731 45.798V53.0061H178.652V45.8393C178.652 44.2493 178.591 42.4109 176.547 42.4109C175.524 42.4109 174.89 42.9275 174.462 43.774H174.42V42.5755Z" fill="#00783E"/>
<path d="M186.152 42.8659C185.601 42.5348 185.069 42.4109 184.415 42.4109C182.779 42.4109 181.655 43.6082 181.655 45.2616C181.655 48.1531 184.885 48.277 184.885 50.1136C184.885 50.9206 184.435 51.436 183.597 51.436C182.943 51.436 182.493 51.1672 182.002 50.7751V52.6752C182.575 53.026 183.004 53.1709 183.679 53.1709C185.518 53.1709 186.643 51.9108 186.643 50.0735C186.643 47.0977 183.454 47.0163 183.413 45.261C183.413 44.5582 184.006 44.1458 184.722 44.1458C185.192 44.1458 185.784 44.3726 186.152 44.7037V42.8659Z" fill="#00783E"/>
<path d="M71.7449 1.01426C70.1858 0.47788 68.5319 0.270752 66.8312 0.270752C62.1539 0.270752 51.1922 2.62518 51.1922 16.5865C51.1922 27.244 57.9013 32.4893 65.7916 32.4893C67.9176 32.4893 69.6656 32.1175 71.6027 31.3728L72.1696 22.6579C70.6111 23.8965 69.2403 24.6412 67.0669 24.6412C62.2481 24.6412 61.0195 20.0149 61.0195 16.38C61.0195 12.951 62.2481 8.11885 67.2565 8.11885C69.2403 8.11885 70.3747 8.77914 71.7449 9.93571V1.01426Z" fill="#00783E"/>
<path fill-rule="evenodd" clip-rule="evenodd" d="M84.7339 21.3358H88.7976L87.7586 14.1073C87.4749 12.1665 87.2852 10.1832 87.0495 8.24129C86.6709 10.1832 86.4352 12.1665 86.0567 14.1073L84.7339 21.3358ZM100.609 31.9507H90.6391L89.93 27.9446H83.4579L82.6547 31.9507H72.7325L81.2846 0.806885H93.0489L100.609 31.9507Z" fill="#00783E"/>
<path d="M118.375 31.9507V24.5995H111.146V0.806885H101.509V31.9507H118.375Z" fill="#00783E"/>
<path d="M120.036 31.9507H137.942V24.5995H129.676V19.8493H137.093V12.497H129.676V8.15928H137.942V0.806885H120.036V31.9507Z" fill="#00783E"/>
<path d="M149.082 31.9507V20.014H155.98V12.6622H149.082V8.15928H156.453V0.806885H139.443V31.9507H149.082Z" fill="#00783E"/>
<path d="M167.658 31.9507V20.014H174.557V12.6622H167.658V8.15928H175.029V0.806885H158.02V31.9507H167.658Z" fill="#00783E"/>
<path d="M186.235 0.806885H176.596V31.9507H186.235V0.806885Z" fill="#00783E"/>
<path d="M41.06 0H34.2192V6.21973H41.06V0Z" fill="#00783E"/>
<path fill-rule="evenodd" clip-rule="evenodd" d="M27.3705 18.6666C27.3705 22.0685 24.2714 24.8862 20.5297 24.8862C16.788 24.8862 13.6895 22.0685 13.6895 18.6666C13.6895 15.264 16.788 12.4463 20.5297 12.4463H27.3705V18.6666Z" fill="#00783E"/>
<path d="M21.269 5.89844H19.7909V12.6184H21.269V5.89844Z" fill="#00783E"/>
<path d="M34.4898 17.9944H27.0992V19.3384H34.4898V17.9944Z" fill="#00783E"/>
<path fill-rule="evenodd" clip-rule="evenodd" d="M20.5297 6.21985C12.9692 6.21985 6.84015 11.7926 6.84015 18.6667C6.84015 25.5409 12.9692 31.113 20.5297 31.113C28.0901 31.113 34.2192 25.5409 34.2192 18.6667V12.4469H41.0594V18.6661C41.0594 28.9747 31.868 37.3323 20.5297 37.3323C9.19131 37.3323 0 28.9747 0 18.6661C0 8.35699 9.19131 0 20.5297 0H27.3705V6.22703L20.5297 6.21985Z" fill="#00783E"/>
</svg>
