<svg width="184" height="61" viewBox="0 0 184 61" fill="none" xmlns="http://www.w3.org/2000/svg">
<path d="M40.7876 39.8643V56.4476H42.803V48.2436H45.8459V56.4476H47.8612V39.8643H45.8459V46.3298H42.803V39.8643H40.7876Z" fill="white"/>
<path d="M50.9788 45.3397L53.679 55.5449L52.1076 61H54.1022L58.2543 45.3397H56.3396L54.626 53.0822H54.5857L53.0948 45.3397H50.9788Z" fill="white"/>
<path fill-rule="evenodd" clip-rule="evenodd" d="M63.9909 54.7754C65.2605 54.7754 65.18 51.7619 65.18 50.8822C65.18 50.003 65.2605 47.0112 63.9909 47.0112C62.5804 47.0112 62.7414 49.9807 62.7414 50.8822C62.7414 51.8072 62.5804 54.7754 63.9909 54.7754ZM65.1196 56.4476V55.017C64.6964 55.986 64.2732 56.6235 63.2049 56.6235C60.8474 56.6235 60.8071 52.5543 60.8071 50.7502C60.8071 48.904 60.8675 45.1644 63.2659 45.1644C64.233 45.1644 64.6964 45.7356 65.0794 46.5714L65.1196 38.1914H67.0143V56.4476H65.1196Z" fill="white"/>
<path d="M72.4698 45.3397H70.5758V56.4476H72.4899V49.4542C72.4899 48.0459 72.9332 47.1879 74.3443 47.1879L74.6663 47.2102V45.1644C73.6187 45.1644 72.9533 45.7356 72.51 46.7034H72.4698V45.3397Z" fill="white"/>
<path fill-rule="evenodd" clip-rule="evenodd" d="M80.708 54.7321C82.1587 54.7321 81.9776 51.7186 81.9776 50.9268C81.9776 50.0477 82.1587 47.0559 80.708 47.0559C79.2566 47.0559 79.4384 50.0477 79.4384 50.9268C79.4377 51.7186 79.2566 54.7321 80.708 54.7321ZM80.708 56.6235C77.8059 56.6235 77.5035 53.2582 77.5035 50.9268C77.5035 48.5075 77.8059 45.1644 80.708 45.1644C83.61 45.1644 83.9125 48.5075 83.9125 50.9268C83.9125 53.2575 83.61 56.6235 80.708 56.6235Z" fill="white"/>
<path d="M89.0713 45.3397H87.1767V56.4476H89.0713V49.5186C89.0713 48.5738 88.9707 47.0119 90.2202 47.0119C91.2276 47.0119 91.3496 48.0019 91.3496 48.7714V56.4476H93.243V48.8154C93.243 47.1222 93.1826 45.1644 91.1672 45.1644C90.1605 45.1644 89.5354 45.7146 89.1116 46.616H89.0713V45.3397Z" fill="white"/>
<path d="M98.6829 45.3397H96.7883V56.4476H98.6829V45.3397Z" fill="white"/>
<path d="M97.756 43.3603C98.42 43.3603 99.0055 42.7451 99.0055 41.9744C99.0055 41.2273 98.4207 40.6121 97.756 40.6121C97.0505 40.6121 96.4865 41.2273 96.4865 41.9744C96.4865 42.7451 97.0505 43.3603 97.756 43.3603Z" fill="white"/>
<path d="M106.476 45.538C105.973 45.2741 105.529 45.1644 104.965 45.1644C102.183 45.1644 101.942 48.7058 101.942 50.9931C101.942 53.1931 102.265 56.6235 104.945 56.6235C105.509 56.6235 105.993 56.4916 106.476 56.1843V54.2705C106.174 54.5121 105.933 54.6874 105.509 54.6874C103.917 54.6874 103.877 51.9169 103.877 50.7955C103.877 49.6078 103.917 47.1222 105.55 47.0999C105.972 47.1222 106.234 47.2981 106.436 47.6277H106.476V45.538Z" fill="white"/>
<path d="M120.633 40.1938C119.988 39.7756 119.262 39.6437 118.497 39.6437C116.219 39.6437 115.09 41.5575 115.09 43.8882C115.09 48.2436 119.343 48.9034 119.343 52.2018C119.343 53.4348 118.819 54.5115 117.57 54.5115C116.783 54.5115 116.179 54.1379 115.575 53.6534V55.8745C116.2 56.4246 117.006 56.6663 117.792 56.6663C120.028 56.6663 121.359 54.6651 121.359 52.3332C121.359 50.0904 120.573 48.9914 119.202 47.4722L117.671 45.6483C117.267 45.0758 117.106 44.5703 117.106 43.8442C117.106 42.7011 117.792 41.7098 118.9 41.7098C119.586 41.7098 120.09 41.9961 120.614 42.4143L120.633 40.1938Z" fill="white"/>
<path fill-rule="evenodd" clip-rule="evenodd" d="M127.435 54.7321C128.886 54.7321 128.705 51.7186 128.705 50.9268C128.705 50.0477 128.886 47.0559 127.435 47.0559C125.984 47.0559 126.166 50.0477 126.166 50.9268C126.166 51.7186 125.983 54.7321 127.435 54.7321ZM127.435 56.6235C124.533 56.6235 124.231 53.2582 124.231 50.9268C124.231 48.5075 124.533 45.1644 127.435 45.1644C130.337 45.1644 130.64 48.5075 130.64 50.9268C130.64 53.2575 130.337 56.6235 127.435 56.6235Z" fill="white"/>
<path d="M135.779 38.1921H133.884V56.447H135.779V38.1921Z" fill="white"/>
<path d="M139.34 45.3397V52.3994C139.34 54.9297 139.724 56.6229 142.485 56.6229C144.802 56.6229 145.426 55.1273 145.426 52.8399V45.3397H143.532V52.3994C143.532 53.3895 143.674 54.7314 142.404 54.7314C141.114 54.7314 141.235 53.2798 141.235 52.2898V45.3397H139.34Z" fill="white"/>
<path d="M149.37 42.1963V45.3398H148.342V46.9673H149.37V56.4476H151.265V46.9673H152.272V45.3398H151.265V42.1963H149.37Z" fill="white"/>
<path d="M157.124 45.3397H155.229V56.4476H157.124V45.3397Z" fill="white"/>
<path d="M156.196 43.3603C156.861 43.3603 157.446 42.7451 157.446 41.9744C157.446 41.2273 156.861 40.6121 156.196 40.6121C155.491 40.6121 154.926 41.2273 154.926 41.9744C154.926 42.7451 155.491 43.3603 156.196 43.3603Z" fill="white"/>
<path fill-rule="evenodd" clip-rule="evenodd" d="M163.586 54.7321C165.036 54.7321 164.856 51.7186 164.856 50.9268C164.856 50.0477 165.036 47.0559 163.586 47.0559C162.135 47.0559 162.317 50.0477 162.317 50.9268C162.317 51.7186 162.135 54.7321 163.586 54.7321ZM163.586 56.6235C160.684 56.6235 160.381 53.2582 160.381 50.9268C160.381 48.5075 160.684 45.1644 163.586 45.1644C166.488 45.1644 166.791 48.5075 166.791 50.9268C166.791 53.2575 166.488 56.6235 163.586 56.6235Z" fill="white"/>
<path d="M171.95 45.3397H170.056V56.4476H171.95V49.5186C171.95 48.5738 171.849 47.0119 173.1 47.0119C174.107 47.0119 174.228 48.0019 174.228 48.7714V56.4476H176.122V48.8154C176.122 47.1222 176.062 45.1644 174.047 45.1644C173.039 45.1644 172.414 45.7146 171.991 46.616H171.95V45.3397Z" fill="white"/>
<path d="M183.516 45.6489C182.972 45.2964 182.448 45.1644 181.804 45.1644C180.191 45.1644 179.083 46.4394 179.083 48.2002C179.083 51.2793 182.267 51.4113 182.267 53.3672C182.267 54.2265 181.824 54.7754 180.997 54.7754C180.352 54.7754 179.909 54.4892 179.425 54.0716V56.095C179.989 56.4686 180.413 56.6229 181.078 56.6229C182.891 56.6229 184 55.2809 184 53.3244C184 50.1554 180.857 50.0687 180.816 48.1996C180.816 47.4511 181.4 47.0119 182.106 47.0119C182.569 47.0119 183.154 47.2535 183.516 47.6061V45.6489Z" fill="white"/>
<path d="M70.729 1.07999C69.1919 0.508784 67.5614 0.288208 65.8849 0.288208C61.2738 0.288208 50.4673 2.7955 50.4673 17.6633C50.4673 29.0128 57.0814 34.5986 64.86 34.5986C66.9559 34.5986 68.6792 34.2027 70.5888 33.4096L71.1476 24.1289C69.6112 25.4479 68.2599 26.2409 66.1172 26.2409C61.3666 26.2409 60.1554 21.3143 60.1554 17.4434C60.1554 13.7918 61.3666 8.64586 66.3042 8.64586C68.2599 8.64586 69.3782 9.34902 70.729 10.5807V1.07999Z" fill="white"/>
<path fill-rule="evenodd" clip-rule="evenodd" d="M83.5341 22.7212H87.5402L86.5159 15.0234C86.2362 12.9566 86.0492 10.8446 85.8169 8.77651C85.4436 10.8446 85.2113 12.9566 84.8381 15.0234L83.5341 22.7212ZM99.184 34.0254H89.3557L88.6566 29.7592H82.2761L81.4843 34.0254H71.7026L80.1335 0.859375H91.7313L99.184 34.0254Z" fill="white"/>
<path d="M116.699 34.0254V26.1969H109.573V0.859375H100.071V34.0254H116.699Z" fill="white"/>
<path d="M118.336 34.0254H135.989V26.1969H127.84V21.1383H135.151V13.3085H127.84V8.68917H135.989V0.859375H118.336V34.0254Z" fill="white"/>
<path d="M146.971 34.0254V21.3136H153.771V13.4845H146.971V8.68917H154.237V0.859375H137.469V34.0254H146.971Z" fill="white"/>
<path d="M165.284 34.0254V21.3136H172.085V13.4845H165.284V8.68917H172.55V0.859375H155.782V34.0254H165.284Z" fill="white"/>
<path d="M183.598 0.859375H174.095V34.0254H183.598V0.859375Z" fill="white"/>
<path d="M40.4786 0H33.7347V6.62364H40.4786V0Z" fill="white"/>
<path fill-rule="evenodd" clip-rule="evenodd" d="M26.9829 19.8786C26.9829 23.5015 23.9277 26.5022 20.239 26.5022C16.5503 26.5022 13.4957 23.5015 13.4957 19.8786C13.4957 16.255 16.5503 13.2543 20.239 13.2543H26.9829V19.8786Z" fill="white"/>
<path d="M20.9679 6.28125H19.5107V13.4378H20.9679V6.28125Z" fill="white"/>
<path d="M34.0014 19.1627H26.7155V20.5939H34.0014V19.1627Z" fill="white"/>
<path fill-rule="evenodd" clip-rule="evenodd" d="M20.239 6.62364C12.7856 6.62364 6.7433 12.5581 6.7433 19.8786C6.7433 27.199 12.7856 33.1329 20.239 33.1329C27.6924 33.1329 33.7347 27.199 33.7347 19.8786V13.2549H40.4779V19.8779C40.4779 30.8557 31.4168 39.7559 20.239 39.7559C9.06116 39.7559 0 30.8557 0 19.8779C0 8.89952 9.06116 0 20.239 0H26.9829V6.63129L20.239 6.62364Z" fill="white"/>
</svg>
