<svg width="125" height="32" viewBox="0 0 125 32" fill="none" xmlns="http://www.w3.org/2000/svg">
<path d="M43.5598 15.6504C43.5598 7.83199 33.8095 1.45898 21.7809 1.45898C9.75287 1.45898 0.00262924 7.83199 0.00262924 15.6504C0.00262924 15.852 -0.000244141 16.4102 -0.000244141 16.4811C-0.000244141 24.7749 8.52224 31.4928 21.7778 31.4928C35.1159 31.4928 43.5598 24.7767 43.5598 16.4827C43.5598 16.1928 43.5598 16.026 43.5598 15.6504Z" fill="#2D3277"/>
<path d="M42.7258 15.6436C42.7258 23.0142 33.3501 28.9893 21.7847 28.9893C10.2189 28.9893 0.844238 23.0142 0.844238 15.6436C0.844238 8.27219 10.2189 2.29688 21.7847 2.29688C33.3503 2.29687 42.7258 8.27219 42.7258 15.6436Z" fill="#FFE600"/>
<path d="M14.8316 11.4329C14.8203 11.4539 14.6116 11.6692 14.7468 11.8422C15.0777 12.2628 16.098 12.5039 17.1301 12.2734C17.7448 12.1358 18.5321 11.5114 19.2956 10.9084C20.1226 10.2537 20.9433 9.5984 21.7682 9.33771C22.6415 9.06086 23.2008 9.17965 23.5704 9.29109C23.9764 9.41152 24.453 9.67753 25.2136 10.2461C26.6464 11.3192 32.4088 16.3292 33.4038 17.1955C34.2055 16.8345 37.7683 15.3067 42.6105 14.2431C42.1902 11.6715 40.6193 9.3189 38.2381 7.39201C34.9195 8.78074 30.8629 9.50537 26.8962 7.57562C26.8761 7.56723 24.729 6.55492 22.6113 6.60481C19.4645 6.6774 18.1015 8.03464 16.6583 9.47102L14.8316 11.4329Z" fill="white"/>
<path d="M33.1699 17.7402C33.1026 17.6803 26.3948 11.8338 24.8758 10.696C23.9964 10.0392 23.5073 9.87136 22.9936 9.80634C22.7263 9.77178 22.3567 9.82126 22.0987 9.8916C21.3918 10.0832 20.4676 10.6988 19.6471 11.347C18.7972 12.0209 17.9965 12.656 17.2527 12.8218C16.3035 13.0338 15.1437 12.7836 14.6145 12.427C14.3999 12.2834 14.249 12.1176 14.1763 11.9489C13.9812 11.4973 14.342 11.1362 14.4009 11.0757L16.2518 9.0813C16.4664 8.86743 16.6836 8.65335 16.9052 8.44255C16.3078 8.52004 15.7561 8.67196 15.2188 8.82101C14.5482 9.00892 13.9032 9.18742 13.2507 9.18742C12.9781 9.18742 11.5182 8.94881 11.2414 8.87377C9.56619 8.41719 8.09624 7.97228 5.90015 6.95117C3.26935 8.90239 1.5094 11.3425 1.00122 14.03C1.37907 14.1296 1.98844 14.3101 2.24417 14.3667C8.19866 15.6858 10.0534 17.0446 10.3898 17.3278C10.7541 16.9244 11.2793 16.6686 11.8659 16.6686C12.525 16.6694 13.1187 16.9992 13.4793 17.5088C13.8207 17.2405 14.2909 17.0113 14.8988 17.0115C15.1748 17.0115 15.4616 17.0624 15.7508 17.1604C16.4221 17.39 16.7688 17.8355 16.949 18.2385C17.1741 18.1373 17.4514 18.0627 17.7775 18.0635C18.0981 18.0635 18.4316 18.1363 18.7678 18.2812C19.8657 18.7505 20.0368 19.825 19.9369 20.6351C20.0151 20.6257 20.0937 20.6222 20.1737 20.6222C21.4754 20.6228 22.5338 21.6768 22.5338 22.9744C22.5338 23.3759 22.4308 23.7536 22.2516 24.0846C22.6056 24.2831 23.5085 24.7322 24.3012 24.6322C24.9343 24.552 25.1747 24.3369 25.2611 24.2155C25.32 24.1323 25.3824 24.0349 25.3239 23.965L23.644 22.1054C23.644 22.1054 23.3671 21.8449 23.4586 21.7439C23.5535 21.6404 23.7238 21.7887 23.8451 21.8899C24.7003 22.6012 25.7442 23.6751 25.7442 23.6751C25.7614 23.6863 25.8312 23.8221 26.2171 23.891C26.5498 23.9503 27.1374 23.9161 27.545 23.5833C27.6476 23.4988 27.7505 23.3931 27.8362 23.2854C27.8299 23.2896 27.8239 23.2976 27.8178 23.3003C28.2473 22.7521 27.7702 22.198 27.7702 22.198L25.8085 20.0039C25.8085 20.0039 25.5283 19.7454 25.6233 19.6416C25.7089 19.5516 25.8893 19.6876 26.0121 19.7894C26.6335 20.3067 27.5111 21.1843 28.3516 22.0048C28.5154 22.125 29.2553 22.5797 30.2335 21.9394C30.8279 21.5517 30.9471 21.0747 30.9303 20.7152C30.889 20.2392 30.5159 19.8998 30.5159 19.8998L27.8364 17.2164C27.8364 17.2164 27.5536 16.9751 27.654 16.8535C27.7351 16.7512 27.9194 16.8989 28.0396 16.9995C28.8934 17.7108 31.2041 19.8211 31.2041 19.8211C31.2363 19.8444 32.0349 20.4106 33.0215 19.7849C33.3743 19.5602 33.5997 19.2214 33.6187 18.8282C33.6536 18.1455 33.1699 17.7402 33.1699 17.7402Z" fill="white"/>
<path d="M20.1738 21.1427C19.7584 21.1378 19.3036 21.3837 19.2441 21.348C19.2114 21.3263 19.2697 21.1601 19.3085 21.0644C19.3483 20.9687 19.8955 19.3287 18.5618 18.7592C17.5412 18.3223 16.9178 18.8138 16.7032 19.0357C16.6467 19.0941 16.6219 19.0892 16.6153 19.0148C16.5948 18.72 16.4624 17.9207 15.5809 17.6535C14.3223 17.2689 13.5129 18.1446 13.3074 18.4603C13.2157 17.7457 12.6088 17.1908 11.8658 17.1899C11.0586 17.1891 10.4041 17.8408 10.4028 18.6449C10.4026 19.4489 11.0569 20.1007 11.8644 20.1007C12.2566 20.1019 12.6125 19.9453 12.8746 19.6947C12.8828 19.7018 12.8861 19.7159 12.8817 19.7435C12.8204 20.1036 12.7071 21.4122 14.0824 21.9446C14.6341 22.1576 15.1033 21.9996 15.492 21.7277C15.6082 21.6461 15.6269 21.6802 15.6102 21.7892C15.5606 22.1258 15.6234 22.8461 16.6373 23.2554C17.4088 23.5674 17.8652 23.2477 18.1645 22.9724C18.2944 22.8539 18.3301 22.8735 18.3369 23.0563C18.3736 24.0306 19.1858 24.8034 20.1718 24.8041C21.1875 24.8047 22.0105 23.9864 22.0113 22.9753C22.0124 21.963 21.1893 21.1537 20.1738 21.1427Z" fill="white"/>
<path d="M33.4287 17.0407C31.3629 15.2441 26.588 11.1088 25.2949 10.1414C24.5559 9.58793 24.052 9.29575 23.6097 9.16428C23.4106 9.10458 23.1358 9.03649 22.7819 9.03608C22.4527 9.03608 22.0995 9.09537 21.7307 9.21233C20.8951 9.47568 20.0625 10.1351 19.2569 10.7724L19.2157 10.8051C18.4651 11.3991 17.6899 12.0137 17.1033 12.1442C16.8474 12.2016 16.584 12.2315 16.3209 12.2315C15.6641 12.2305 15.0735 12.0417 14.852 11.7604C14.8155 11.714 14.8391 11.6385 14.9244 11.5304L14.9357 11.516L16.7532 9.56483C18.1771 8.14665 19.5217 6.80781 22.6165 6.73665C22.6678 6.73522 22.7202 6.73461 22.7715 6.73461C24.6977 6.73584 26.6237 7.595 26.8396 7.69458C28.6463 8.57215 30.5108 9.01809 32.3854 9.01972C34.3387 9.02034 36.354 8.53841 38.4733 7.56638C38.2367 7.36784 37.99 7.17523 37.7369 6.98569C35.8754 7.78986 34.1017 8.19613 32.391 8.19552C30.6431 8.19409 28.8963 7.77596 27.201 6.95175C27.1117 6.90922 24.985 5.91041 22.7727 5.90918C22.7148 5.90918 22.6557 5.91041 22.5978 5.91102C19.998 5.97154 18.5334 6.89143 17.5491 7.69724C16.5912 7.72014 15.7647 7.95057 15.0297 8.15503C14.3738 8.3366 13.8069 8.49445 13.2544 8.49384C13.0272 8.49384 12.6173 8.47298 12.5802 8.47196C11.9447 8.45253 8.74378 7.67045 6.19692 6.71007C5.93668 6.89327 5.68669 7.08261 5.44307 7.27542C8.10342 8.36195 11.3411 9.20251 12.3628 9.26856C12.6469 9.28696 12.95 9.31906 13.2532 9.31967C13.929 9.31967 14.6032 9.13054 15.2567 8.94877C15.642 8.84061 16.0678 8.72345 16.5151 8.63798C16.3956 8.75453 16.2768 8.87312 16.1573 8.99294L14.3102 10.9828C14.1644 11.1288 13.8496 11.5191 14.0573 11.9996C14.14 12.1934 14.3079 12.3787 14.5425 12.5365C14.9829 12.8316 15.7709 13.0311 16.5028 13.0318C16.7802 13.0318 17.0427 13.0044 17.2847 12.9502C18.0587 12.777 18.8706 12.1331 19.7306 11.4518C20.4161 10.909 21.39 10.2203 22.1356 10.0181C22.3435 9.96149 22.5993 9.92673 22.8053 9.92673C22.8665 9.92714 22.9244 9.92898 22.9788 9.93655C23.4711 9.99891 23.9475 10.166 24.7976 10.8014C26.3129 11.9358 33.0215 17.7815 33.087 17.8394C33.0919 17.8433 33.5192 18.2107 33.4894 18.8218C33.4734 19.1623 33.2836 19.4651 32.9538 19.6753C32.6674 19.8558 32.3719 19.948 32.0729 19.948C31.6246 19.947 31.3159 19.7378 31.2962 19.7235C31.2714 19.7035 28.9733 17.604 28.1277 16.899C27.9926 16.7878 27.8621 16.688 27.7293 16.688C27.6587 16.6874 27.5961 16.7175 27.554 16.7702C27.421 16.9336 27.57 17.1595 27.7455 17.3084L30.4307 19.9965C30.4342 19.9998 30.7646 20.3089 30.8012 20.7211C30.8223 21.1668 30.6087 21.5392 30.1641 21.8301C29.8472 22.0377 29.5262 22.1432 29.2122 22.1432C28.8003 22.1432 28.5109 21.9559 28.4468 21.9117L28.0614 21.5335C27.3576 20.8434 26.6311 20.1304 26.0991 19.6879C25.9694 19.5806 25.8308 19.4816 25.6986 19.4816C25.6338 19.4816 25.5747 19.5056 25.5295 19.553C25.4688 19.6203 25.4269 19.7411 25.5778 19.9413C25.6397 20.0235 25.713 20.0918 25.713 20.0918L27.6725 22.2834C27.6887 22.3031 28.0764 22.7617 27.7162 23.2191L27.6474 23.3064C27.5887 23.3712 27.5253 23.4305 27.4652 23.481C27.1312 23.7546 26.6846 23.784 26.5079 23.784C26.4131 23.784 26.3218 23.7756 26.2423 23.7617C26.0496 23.727 25.9195 23.6732 25.8571 23.599L25.8329 23.575C25.7259 23.4642 24.7383 22.4603 23.9214 21.7809C23.8137 21.6911 23.6795 21.5774 23.5405 21.5774C23.4722 21.5774 23.4106 21.6042 23.3638 21.6563C23.2019 21.833 23.4451 22.0963 23.5479 22.1933L25.219 24.0288C25.2169 24.0455 25.1956 24.0838 25.1552 24.1418C25.0952 24.2234 24.8927 24.4254 24.2864 24.5021C24.2139 24.5109 24.139 24.515 24.0651 24.515C23.4397 24.515 22.7735 24.2128 22.4295 24.0312C22.5859 23.702 22.667 23.3399 22.667 22.976C22.6678 21.6058 21.5509 20.4919 20.1756 20.4907C20.1464 20.4907 20.1152 20.4919 20.0855 20.4929C20.1306 19.8673 20.042 18.683 18.8216 18.1614C18.4708 18.0099 18.1203 17.933 17.7796 17.933C17.5132 17.933 17.257 17.9784 17.0152 18.0706C16.763 17.5811 16.3431 17.2247 15.7951 17.0385C15.4928 16.9342 15.1917 16.8814 14.9008 16.8814C14.3931 16.8814 13.9251 17.0301 13.5077 17.3257C13.108 16.8309 12.5036 16.5373 11.8676 16.5373C11.3116 16.5373 10.7759 16.7594 10.3794 17.1505C9.85947 16.7549 7.79617 15.4494 2.27474 14.2005C2.00731 14.1402 1.39343 13.9647 1.01743 13.8551C0.955034 14.1528 0.907623 14.454 0.876221 14.7579C0.876221 14.7579 1.89484 15.0008 2.09515 15.0453C7.73583 16.2934 9.59964 17.5916 9.91489 17.8365C9.80816 18.0917 9.75275 18.3675 9.75213 18.6452C9.75152 19.8055 10.6991 20.7514 11.8653 20.7526C11.9963 20.7526 12.1256 20.7414 12.2532 20.7178C12.4287 21.5719 12.9898 22.2196 13.8475 22.5517C14.0979 22.648 14.3516 22.6971 14.6004 22.6971C14.7613 22.6977 14.9234 22.6774 15.0817 22.6374C15.2399 23.0383 15.5968 23.5376 16.3934 23.8599C16.6723 23.9723 16.9518 24.031 17.2236 24.031C17.4454 24.031 17.6624 23.9926 17.8693 23.9159C18.251 24.8425 19.1594 25.4567 20.1727 25.4567C20.8438 25.4574 21.4885 25.185 21.9587 24.7027C22.3606 24.926 23.2109 25.3286 24.0686 25.3302C24.1798 25.3302 24.2841 25.3224 24.388 25.3093C25.2403 25.202 25.6373 24.8705 25.8195 24.6121C25.8522 24.5671 25.8819 24.5193 25.9072 24.47C26.1087 24.527 26.33 24.5741 26.5832 24.5747C27.0487 24.5747 27.4951 24.417 27.9473 24.0893C28.3908 23.7697 28.7063 23.3129 28.7514 22.9232C28.7522 22.9183 28.7537 22.912 28.7543 22.9064C28.9033 22.9371 29.0568 22.9533 29.2103 22.9533C29.6894 22.9533 30.1604 22.804 30.6111 22.5104C31.4801 21.9428 31.6312 21.2012 31.6168 20.7164C31.7689 20.7481 31.9245 20.7645 32.0786 20.7645C32.5289 20.7645 32.9706 20.6291 33.3917 20.3617C33.9301 20.0188 34.2544 19.4937 34.303 18.8823C34.3373 18.4669 34.2336 18.0479 34.0138 17.6879C35.4694 17.063 38.797 15.8536 42.7153 14.9742C42.6917 14.6716 42.648 14.3728 42.5938 14.0753C37.8527 15.1226 34.3151 16.6477 33.4287 17.0407ZM20.1735 24.6734C19.2528 24.6724 18.5045 23.9605 18.4708 23.0522C18.468 22.9739 18.4602 22.7668 18.2845 22.7668C18.212 22.7668 18.1494 22.8099 18.077 22.8748C17.8746 23.062 17.6166 23.2518 17.2402 23.2518C17.069 23.2518 16.8841 23.2127 16.6883 23.1326C15.7161 22.7406 15.7029 22.0751 15.7427 21.8078C15.7532 21.7361 15.7567 21.6625 15.7076 21.6042L15.6481 21.551H15.5872C15.5375 21.551 15.487 21.5713 15.4178 21.6199C15.1363 21.8162 14.8668 21.9119 14.5926 21.9119C14.4419 21.9119 14.2872 21.8819 14.1316 21.8224C12.8517 21.3257 12.9531 20.1222 13.0153 19.7597C13.0249 19.6867 13.0065 19.6295 12.9595 19.5918L12.8691 19.5176L12.7846 19.5986C12.535 19.8382 12.2087 19.9691 11.8655 19.9691C11.1326 19.9685 10.536 19.3747 10.5364 18.6448C10.537 17.9138 11.134 17.3208 11.8674 17.3217C12.5299 17.3217 13.0939 17.8181 13.1787 18.4773L13.2238 18.8327L13.4198 18.5321C13.442 18.4965 13.9791 17.6874 14.9667 17.6885C15.1545 17.6885 15.3485 17.7185 15.5439 17.7786C16.331 18.0181 16.4642 18.729 16.4849 19.0253C16.4989 19.1982 16.6222 19.206 16.6464 19.206C16.7144 19.206 16.7646 19.1635 16.7999 19.1259C16.9485 18.9715 17.272 18.7149 17.7787 18.7149C18.0101 18.7153 18.2568 18.7699 18.5115 18.8793C19.7628 19.414 19.1953 20.9978 19.1884 21.0145C19.0806 21.2768 19.0767 21.3928 19.1777 21.4598L19.2271 21.4827H19.2631C19.3197 21.4827 19.3899 21.4586 19.5057 21.4194C19.676 21.3607 19.9332 21.2721 20.1733 21.2728H20.1739C21.116 21.2834 21.882 22.0469 21.8813 22.9745C21.8807 23.9124 21.1143 24.6734 20.1735 24.6734Z" fill="#2D3277"/>
<path d="M52.1205 7.82645V14.2084H49.5618V8.33597C49.5618 5.48449 51.0024 4.06836 53.8645 4.06836C55.1532 4.06836 56.1388 4.35154 56.8589 4.91792C57.5796 4.37036 58.5649 4.10619 59.8541 4.10619C62.7164 4.10619 64.1379 5.52211 64.1188 8.37339V14.2463H62.8108C61.9769 14.1892 61.56 13.793 61.56 12.9998V7.86366C61.5032 6.82497 60.9342 6.31503 59.8161 6.31503C58.6979 6.31503 58.1288 6.82497 58.1101 7.86366V14.2082H55.5702V7.82645C55.5132 6.78755 54.9449 6.27782 53.8265 6.27782C52.7081 6.27782 52.1394 6.78755 52.1205 7.82645Z" fill="#2D3277"/>
<path d="M76.4788 9.09229C76.5545 5.86316 78.156 4.06836 81.5111 4.06836H82.2721V6.67407L81.1006 6.69943C79.6978 6.69943 79.0375 7.60051 79.0375 9.05447V14.2473H76.4788V9.09229Z" fill="#2D3277"/>
<path d="M96.3868 7.20112L94.0392 7.19826C94.1291 5.26851 95.104 3.98242 97.9667 3.98242C100.734 3.98242 102.137 4.88882 102.194 6.73924V10.1381C102.194 12.8949 100.526 14.1223 97.8151 14.3112C95.408 14.4999 93.74 13.386 93.74 11.1768C93.7968 8.77838 95.5408 8.13656 98.0807 7.8912C99.1611 7.75911 99.7107 7.43769 99.7107 6.89054C99.6538 6.32397 99.1231 6.05428 98.0807 6.04058C96.8999 6.02545 96.5194 6.72901 96.3868 7.20112ZM99.7485 10.025V9.20755C99.1608 9.45311 98.4784 9.5533 97.7391 9.7042C96.7347 9.89312 96.2226 10.365 96.2226 11.1015C96.2795 11.8944 96.6967 12.2721 97.4926 12.2721C98.8955 12.2719 99.7485 11.4411 99.7485 10.025Z" fill="#2D3277"/>
<path d="M113.006 0.880371V9.88444C113.006 12.8866 111.433 14.3784 108.305 14.3596C105.197 14.3025 103.642 12.6222 103.642 9.29906C103.642 5.90022 104.969 4.16287 107.642 4.06841C108.893 4.06841 109.86 4.57834 110.504 5.61683V2.43309L110.51 2.15195C111.344 0.912268 113.006 0.880371 113.006 0.880371ZM106.239 9.18558C106.221 11.2063 106.903 12.2258 108.343 12.2258C109.784 12.2258 110.504 11.2065 110.504 9.18558C110.447 7.25951 109.746 6.31528 108.381 6.31528C107.017 6.31528 106.315 7.25951 106.239 9.18558Z" fill="#2D3277"/>
<path d="M68.6136 11.6987C69.0165 12.0878 69.5961 12.2822 70.352 12.2822C70.8936 12.2822 71.3599 12.1475 71.7503 11.8776C72.1405 11.6079 72.38 11.3222 72.4683 11.0211H74.8306C74.4525 12.1881 73.8731 13.023 73.092 13.5247C72.3106 14.0269 71.3659 14.2778 70.2574 14.2778C69.489 14.2778 68.7958 14.1553 68.1785 13.9108C67.5611 13.6662 67.0384 13.3178 66.6102 12.866C66.1817 12.4141 65.851 11.8747 65.6181 11.247C65.3847 10.6197 65.2686 9.92941 65.2686 9.17636C65.2686 8.44867 65.388 7.77086 65.6275 7.14315C65.8666 6.51585 66.2069 5.97299 66.648 5.51479C67.0888 5.05678 67.6147 4.6959 68.2259 4.43234C68.8367 4.16879 69.5136 4.03711 70.2572 4.03711C71.0886 4.03711 71.8129 4.19721 72.4303 4.5172C73.0474 4.83719 73.5548 5.26718 73.9515 5.80676C74.3485 6.34655 74.6346 6.96159 74.8113 7.65166C74.9874 8.34194 75.0504 9.0635 75.0001 9.81655H67.9517C67.9899 10.6821 68.2101 11.3098 68.6136 11.6987ZM71.6465 6.57821C71.3253 6.22715 70.8368 6.0511 70.1816 6.0511C69.7533 6.0511 69.3976 6.12348 69.1142 6.26783C68.8307 6.41219 68.6039 6.59109 68.434 6.80435C68.2639 7.01782 68.144 7.24375 68.0748 7.48216C68.0055 7.72077 67.9646 7.93382 67.9521 8.12214H72.3172C72.1914 7.44433 71.9677 6.92969 71.6465 6.57821Z" fill="#2D3277"/>
<path d="M87.9465 6.01971C87.5139 6.01971 87.151 6.11806 86.8583 6.31434C86.5657 6.51104 86.327 6.76458 86.1429 7.07496C85.9582 7.38575 85.8278 7.72802 85.7515 8.10179C85.6751 8.47596 85.637 8.84666 85.637 9.21408C85.637 9.56924 85.6751 9.93033 85.7515 10.298C85.8278 10.6658 85.952 10.9985 86.1236 11.2962C86.2956 11.5943 86.5275 11.838 86.8204 12.0284C87.1131 12.2185 87.4694 12.3136 87.8893 12.3136C88.5383 12.3136 89.0376 12.1328 89.3878 11.7717C89.7375 11.4105 89.9569 10.9255 90.0462 10.317H92.6612C92.4828 11.6229 91.974 12.6178 91.1344 13.3024C90.2943 13.9869 89.219 14.3292 87.9084 14.3292C87.1703 14.3292 86.4928 14.2057 85.8756 13.9585C85.2583 13.7113 84.7335 13.3662 84.301 12.9223C83.8682 12.4788 83.531 11.9494 83.2892 11.3344C83.0474 10.7198 82.9265 10.0446 82.9265 9.30936C82.9265 8.54875 83.0378 7.84212 83.2607 7.18905C83.4831 6.5364 83.8107 5.97207 84.2436 5.49669C84.676 5.0213 85.2041 4.6504 85.8278 4.38419C86.4511 4.11797 87.164 3.98486 87.9656 3.98486C88.551 3.98486 89.114 4.06092 89.6548 4.21305C90.1956 4.36517 90.6789 4.59663 91.1054 4.90721C91.5315 5.218 91.8786 5.60464 92.1456 6.06715C92.4128 6.53006 92.5655 7.07823 92.6035 7.71207H89.9503C89.7724 6.58404 89.1043 6.01971 87.9465 6.01971Z" fill="#2D3277"/>
<path d="M114.946 7.03672C115.188 6.39674 115.531 5.85164 115.977 5.4014C116.422 4.95158 116.956 4.60276 117.58 4.35556C118.203 4.10836 118.903 3.98486 119.68 3.98486C120.456 3.98486 121.159 4.10836 121.789 4.35556C122.419 4.60276 122.956 4.95158 123.401 5.4014C123.847 5.85164 124.19 6.39674 124.432 7.03672C124.674 7.67691 124.795 8.39008 124.795 9.17585C124.795 9.96202 124.674 10.6717 124.432 11.3056C124.19 11.9396 123.847 12.4815 123.401 12.9315C122.956 13.3817 122.419 13.7273 121.789 13.9677C121.159 14.2084 120.456 14.329 119.68 14.329C118.903 14.329 118.203 14.2084 117.58 13.9677C116.956 13.7271 116.422 13.3815 115.977 12.9315C115.531 12.4817 115.187 11.9396 114.946 11.3056C114.704 10.6717 114.583 9.96202 114.583 9.17585C114.583 8.39008 114.704 7.67711 114.946 7.03672ZM117.408 10.3264C117.485 10.7006 117.615 11.0365 117.8 11.3342C117.984 11.6323 118.229 11.8699 118.534 12.0472C118.84 12.2248 119.222 12.3134 119.68 12.3134C120.138 12.3134 120.522 12.2248 120.834 12.0472C121.146 11.8699 121.394 11.6321 121.579 11.3342C121.763 11.0365 121.894 10.7003 121.97 10.3264C122.046 9.95261 122.085 9.56904 122.085 9.17605C122.085 8.78327 122.046 8.39642 121.97 8.01612C121.894 7.63581 121.763 7.30008 121.579 7.0083C121.394 6.71694 121.146 6.47915 120.834 6.29533C120.522 6.11172 120.138 6.0195 119.68 6.0195C119.222 6.0195 118.84 6.11172 118.534 6.29533C118.229 6.47915 117.984 6.71694 117.8 7.0083C117.615 7.30008 117.485 7.63581 117.408 8.01612C117.332 8.39642 117.294 8.78327 117.294 9.17605C117.294 9.56924 117.332 9.95282 117.408 10.3264Z" fill="#2D3277"/>
<path d="M51.4227 15.7681H52.0826V28.997H49.5618V17.3844C49.5616 17.0075 50.3452 15.7681 51.4227 15.7681Z" fill="#2D3277"/>
<path d="M65.1567 18.7056C63.9062 18.7056 62.9582 19.2154 62.3137 20.2538L62.3133 15.7681H62.0278C60.7707 15.7832 60.11 16.4518 59.7927 16.9981V16.9118V24.5217C59.7927 27.5238 61.3659 29.0156 64.4934 28.997C67.602 28.94 69.1561 27.2597 69.1561 23.9365C69.1563 20.5374 67.8294 18.7999 65.1567 18.7056ZM64.4179 26.8626C62.9771 26.8626 62.2946 25.8433 62.3137 23.8228C62.3897 21.8965 63.091 20.9525 64.4558 20.9525C65.8207 20.9525 66.5216 21.8965 66.5789 23.8228C66.5787 25.8433 65.8583 26.8626 64.4179 26.8626Z" fill="#2D3277"/>
<path d="M70.6389 23.8138C70.7147 20.5846 72.3162 18.79 75.6713 18.79H76.4323V21.3956L75.2608 21.4209C73.8579 21.4209 73.1977 22.3218 73.1977 23.7759V28.9686H70.6389V23.8138Z" fill="#2D3277"/>
<path d="M80.4212 26.4205C80.8241 26.8096 81.4037 27.0041 82.1596 27.0041C82.7013 27.0041 83.1676 26.8693 83.5579 26.5995C83.9481 26.3298 84.1876 26.0439 84.2759 25.7429H86.6382C86.2602 26.9102 85.6808 27.7449 84.8996 28.2466C84.1183 28.7488 83.1735 28.9997 82.065 28.9997C81.2966 28.9997 80.6035 28.8774 79.9861 28.6327C79.3687 28.3879 78.846 28.0397 78.4178 27.588C77.9893 27.136 77.6587 26.5966 77.4257 25.9689C77.1923 25.3418 77.0762 24.6513 77.0762 23.898C77.0762 23.1703 77.1956 22.4927 77.4351 21.865C77.6743 21.2377 78.0145 20.6949 78.4556 20.2367C78.8965 19.7787 79.4223 19.4178 80.0335 19.1542C80.6443 18.8907 81.3212 18.7588 82.0648 18.7588C82.8962 18.7588 83.6205 18.9189 84.2379 19.2389C84.8551 19.5587 85.3624 19.9889 85.7592 20.5284C86.1561 21.0684 86.4422 21.6833 86.6189 22.3733C86.795 23.0636 86.858 23.7852 86.8078 24.5382H79.7593C79.7975 25.4037 80.0177 26.0316 80.4212 26.4205ZM83.4541 21.3001C83.1329 20.9488 82.6444 20.773 81.9893 20.773C81.5609 20.773 81.2052 20.8454 80.9218 20.9895C80.6384 21.1341 80.4116 21.3128 80.2416 21.526C80.0715 21.7395 79.9516 21.9654 79.8825 22.2038C79.8131 22.4422 79.7722 22.6555 79.7597 22.8436H84.1248C83.9988 22.166 83.7751 21.6516 83.4541 21.3001Z" fill="#2D3277"/>
<path d="M57.3083 15.7681H54.7869V18.0556H57.3083V15.7681Z" fill="#2D3277"/>
<path d="M57.3083 19.2056H54.7869V28.997H57.3083V19.2056Z" fill="#2D3277"/>
</svg>
