<svg width="50" height="30" viewBox="0 0 50 30" fill="none" xmlns="http://www.w3.org/2000/svg">
<rect width="50" height="30" fill="white"/>
<path d="M27.9217 5L24.7785 6.28904L15.5548 22.2432L12.3785 20.931L19.6358 8.38116L17.2506 9.39469L10 21.9339L15.9355 25.731L27.9217 5Z" fill="#682F24"/>
<path d="M19.6358 12.2793V8.3811L12.3785 20.9344H14.6394L19.6358 12.2793Z" fill="#E2231A"/>
<path d="M15.5548 22.2432L16.034 21.4135L14.6394 20.9346H12.3785L15.5548 22.2432Z" fill="#A03123"/>
<path d="M26.7552 23.0421L24.6768 22.489L23.248 24.9622L25.2024 25.731L26.7552 23.0421Z" fill="#682F24"/>
<path d="M24.6768 22.489H32.3976L35.1154 23.0421H26.7552L24.6768 22.489Z" fill="#A03123"/>
<path d="M26.7224 12.6586L27.9217 10.5837L35.1155 23.0421L32.3976 22.489L26.7224 12.6586Z" fill="#682F24"/>
<path d="M20.73 23.0421L27.9217 10.5838L35.1154 23.0421H26.7551L25.2023 25.731H39.9102L27.9217 5L15.9355 25.731H19.1771L20.73 23.0421Z" fill="#E2231A"/>
</svg>
