<svg width="44" height="31" viewBox="0 0 44 31" fill="none" xmlns="http://www.w3.org/2000/svg">
<path d="M43.7798 14.905C43.7798 7.08659 34.0295 0.713593 22.0009 0.713593C9.97284 0.713593 0.2226 7.08659 0.2226 14.905C0.2226 15.1066 0.219727 15.6648 0.219727 15.7357C0.219727 24.0295 8.74221 30.7474 21.9978 30.7474C35.3359 30.7474 43.7798 24.0313 43.7798 15.7373C43.7798 15.4474 43.7798 15.2806 43.7798 14.905Z" fill="#2D3277"/>
<path d="M42.9458 14.898C42.9458 22.2686 33.5701 28.2437 22.0047 28.2437C10.4389 28.2437 1.06421 22.2686 1.06421 14.898C1.06421 7.52662 10.4389 1.5513 22.0047 1.5513C33.5703 1.5513 42.9458 7.52662 42.9458 14.898Z" fill="#FFE600"/>
<path d="M15.0516 10.6872C15.0403 10.7083 14.8316 10.9236 14.9668 11.0966C15.2977 11.5172 16.3179 11.7582 17.3501 11.5278C17.9648 11.3902 18.7521 10.7657 19.5156 10.1628C20.3425 9.50808 21.1633 8.85276 21.9882 8.59207C22.8615 8.31522 23.4207 8.43402 23.7904 8.54545C24.1964 8.66588 24.6729 8.93189 25.4336 9.50051C26.8664 10.5736 32.6287 15.5836 33.6238 16.4499C34.4254 16.0888 37.9882 14.561 42.8305 13.4974C42.4102 10.9258 40.8393 8.57326 38.458 6.64637C35.1395 8.0351 31.0829 8.75973 27.1161 6.82998C27.096 6.8216 24.949 5.80929 22.8313 5.85918C19.6845 5.93176 18.3215 7.28901 16.8782 8.72538L15.0516 10.6872Z" fill="white"/>
<path d="M33.3899 16.9948C33.3225 16.9349 26.6148 11.0884 25.0958 9.95054C24.2163 9.2938 23.7272 9.12593 23.2135 9.06091C22.9463 9.02636 22.5767 9.07584 22.3187 9.14618C21.6118 9.33776 20.6876 9.95341 19.867 10.6016C19.0171 11.2755 18.2165 11.9106 17.4727 12.0764C16.5234 12.2884 15.3636 12.0381 14.8345 11.6816C14.6198 11.538 14.469 11.3722 14.3963 11.2035C14.2011 10.7518 14.5619 10.3908 14.6209 10.3302L16.4717 8.33588C16.6864 8.12201 16.9036 7.90793 17.1252 7.69713C16.5278 7.77462 15.9761 7.92654 15.4387 8.07559C14.7682 8.2635 14.1231 8.44199 13.4707 8.44199C13.1981 8.44199 11.7382 8.20338 11.4613 8.12834C9.78616 7.67177 8.31621 7.22685 6.12012 6.20575C3.48932 8.15697 1.72937 10.5971 1.22119 13.2846C1.59904 13.3841 2.20841 13.5647 2.46414 13.6213C8.41863 14.9403 10.2734 16.2992 10.6098 16.5824C10.9741 16.179 11.4993 15.9232 12.0859 15.9232C12.7449 15.924 13.3387 16.2538 13.6993 16.7634C14.0406 16.4951 14.5108 16.2659 15.1188 16.2661C15.3948 16.2661 15.6815 16.317 15.9707 16.4149C16.6421 16.6446 16.9887 17.0901 17.1689 17.4931C17.3941 17.3919 17.6714 17.3173 17.9975 17.3181C18.3181 17.3181 18.6516 17.3909 18.9878 17.5358C20.0856 18.0051 20.2568 19.0795 20.1569 19.8896C20.235 19.8802 20.3137 19.8768 20.3937 19.8768C21.6953 19.8774 22.7538 20.9314 22.7538 22.2289C22.7538 22.6305 22.6508 23.0082 22.4716 23.3392C22.8256 23.5377 23.7285 23.9867 24.5211 23.8867C25.1543 23.8066 25.3946 23.5915 25.481 23.47C25.5399 23.3868 25.6023 23.2895 25.5438 23.2196L23.8639 21.36C23.8639 21.36 23.5871 21.0995 23.6786 20.9985C23.7734 20.895 23.9438 21.0432 24.0651 21.1444C24.9203 21.8558 25.9642 22.9296 25.9642 22.9296C25.9814 22.9409 26.0512 23.0766 26.4371 23.1456C26.7698 23.2048 27.3574 23.1707 27.765 22.8378C27.8676 22.7534 27.9704 22.6477 28.0562 22.5399C28.0499 22.5442 28.0439 22.5522 28.0377 22.5549C28.4673 22.0067 27.9901 21.4526 27.9901 21.4526L26.0284 19.2585C26.0284 19.2585 25.7483 19 25.8433 18.8961C25.9289 18.8062 26.1093 18.9421 26.232 19.044C26.8535 19.5613 27.7311 20.4388 28.5716 21.2594C28.7354 21.3796 29.4753 21.8343 30.4534 21.1939C31.0478 20.8063 31.1671 20.3292 31.1502 19.9698C31.109 19.4938 30.7359 19.1544 30.7359 19.1544L28.0564 16.471C28.0564 16.471 27.7736 16.2297 27.874 16.108C27.955 16.0058 28.1393 16.1534 28.2596 16.254C29.1134 16.9654 31.424 19.0757 31.424 19.0757C31.4563 19.099 32.2549 19.6651 33.2415 19.0395C33.5943 18.8148 33.8196 18.476 33.8387 18.0828C33.8736 17.4001 33.3899 16.9948 33.3899 16.9948Z" fill="white"/>
<path d="M20.3938 20.3969C19.9784 20.392 19.5235 20.638 19.464 20.6022C19.4314 20.5805 19.4897 20.4143 19.5285 20.3186C19.5683 20.2229 20.1155 18.5829 18.7818 18.0134C17.7611 17.5765 17.1378 18.068 16.9231 18.2899C16.8667 18.3483 16.8418 18.3434 16.8353 18.269C16.8148 17.9742 16.6824 17.1749 15.8009 16.9077C14.5423 16.5231 13.7328 17.3988 13.5274 17.7145C13.4356 16.9999 12.8287 16.445 12.0858 16.4442C11.2786 16.4433 10.624 17.095 10.6228 17.8991C10.6226 18.7031 11.2769 19.3549 12.0843 19.3549C12.4766 19.3562 12.8324 19.1995 13.0945 18.9489C13.1027 18.956 13.106 18.9701 13.1017 18.9977C13.0404 19.3578 12.9271 20.6664 14.3024 21.1988C14.8541 21.4119 15.3233 21.2538 15.712 20.9819C15.8282 20.9003 15.8468 20.9344 15.8302 21.0434C15.7805 21.38 15.8433 22.1003 16.8572 22.5096C17.6287 22.8217 18.0852 22.5019 18.3845 22.2267C18.5144 22.1081 18.5501 22.1277 18.5569 22.3105C18.5936 23.2848 19.4057 24.0577 20.3917 24.0583C21.4075 24.0589 22.2305 23.2406 22.2313 22.2295C22.2323 21.2172 21.4093 20.4079 20.3938 20.3969Z" fill="white"/>
<path d="M33.6489 16.2951C31.5831 14.4985 26.8082 10.3632 25.5151 9.39585C24.7761 8.84236 24.2722 8.55018 23.8299 8.4187C23.6308 8.359 23.356 8.29091 23.0022 8.2905C22.6729 8.2905 22.3197 8.3498 21.9509 8.46675C21.1154 8.73011 20.2827 9.38951 19.4771 10.0268L19.4359 10.0595C18.6853 10.6535 17.9101 11.2681 17.3235 11.3986C17.0676 11.456 16.8042 11.4859 16.5411 11.4859C15.8844 11.4849 15.2937 11.2962 15.0722 11.0148C15.0357 10.9684 15.0593 10.8929 15.1447 10.7848L15.1559 10.7705L16.9734 8.81925C18.3973 7.40108 19.7419 6.06223 22.8367 5.99108C22.888 5.98965 22.9404 5.98903 22.9917 5.98903C24.9179 5.99026 26.8439 6.84943 27.0598 6.949C28.8665 7.82657 30.731 8.27251 32.6057 8.27415C34.5589 8.27476 36.5742 7.79283 38.6936 6.8208C38.4569 6.62227 38.2102 6.42966 37.9571 6.24012C36.0956 7.04428 34.3219 7.45056 32.6112 7.44994C30.8633 7.44851 29.1165 7.03038 27.4212 6.20618C27.332 6.16365 25.2052 5.16483 22.9929 5.1636C22.935 5.1636 22.8759 5.16483 22.8181 5.16544C20.2182 5.22597 18.7536 6.14586 17.7693 6.95166C16.8114 6.97456 15.9849 7.20499 15.2499 7.40946C14.594 7.59103 14.0271 7.74887 13.4746 7.74826C13.2474 7.74826 12.8375 7.7274 12.8004 7.72638C12.165 7.70696 8.96399 6.92487 6.41714 5.9645C6.15689 6.1477 5.90691 6.33704 5.66328 6.52985C8.32363 7.61638 11.5613 8.45694 12.583 8.52298C12.8671 8.54138 13.1702 8.57348 13.4734 8.5741C14.1492 8.5741 14.8235 8.38497 15.4769 8.2032C15.8622 8.09503 16.2881 7.97788 16.7353 7.89241C16.6158 8.00895 16.497 8.12754 16.3776 8.24736L14.5304 10.2372C14.3846 10.3832 14.0698 10.7735 14.2775 11.254C14.3602 11.4479 14.5281 11.6331 14.7627 11.791C15.2032 12.086 15.9911 12.2856 16.723 12.2862C17.0005 12.2862 17.263 12.2588 17.5049 12.2046C18.2789 12.0314 19.0909 11.3876 19.9508 10.7063C20.6363 10.1634 21.6102 9.47477 22.3558 9.27255C22.5638 9.21592 22.8195 9.18116 23.0256 9.18116C23.0867 9.18157 23.1446 9.18341 23.199 9.19097C23.6914 9.25333 24.1677 9.42038 25.0178 10.0559C26.5331 11.1902 33.2417 17.0359 33.3072 17.0938C33.3121 17.0977 33.7394 17.4651 33.7097 18.0762C33.6936 18.4167 33.5038 18.7195 33.174 18.9297C32.8877 19.1102 32.5921 19.2024 32.2931 19.2024C31.8448 19.2014 31.5361 18.9923 31.5164 18.9779C31.4916 18.9579 29.1935 16.8585 28.3479 16.1535C28.2129 16.0422 28.0823 15.9424 27.9495 15.9424C27.8789 15.9418 27.8163 15.9719 27.7742 16.0246C27.6412 16.188 27.7903 16.4139 27.9657 16.5628L30.6509 19.2509C30.6544 19.2542 30.9849 19.5633 31.0214 19.9755C31.0425 20.4213 30.8289 20.7936 30.3843 21.0846C30.0674 21.2921 29.7464 21.3976 29.4324 21.3976C29.0205 21.3976 28.7311 21.2103 28.6671 21.1661L28.2816 20.7879C27.5778 20.0978 26.8513 19.3848 26.3193 18.9424C26.1896 18.835 26.051 18.7361 25.9189 18.7361C25.854 18.7361 25.7949 18.76 25.7497 18.8074C25.689 18.8747 25.6471 18.9955 25.798 19.1957C25.86 19.2779 25.9332 19.3462 25.9332 19.3462L27.8927 21.5379C27.9089 21.5575 28.2966 22.0161 27.9364 22.4735L27.8676 22.5608C27.8089 22.6256 27.7455 22.6849 27.6854 22.7354C27.3514 23.009 26.9048 23.0384 26.7281 23.0384C26.6333 23.0384 26.542 23.0301 26.4625 23.0161C26.2698 22.9814 26.1397 22.9276 26.0773 22.8534L26.0531 22.8295C25.9462 22.7187 24.9585 21.7147 24.1417 21.0353C24.0339 20.9455 23.8997 20.8318 23.7607 20.8318C23.6924 20.8318 23.6308 20.8586 23.584 20.9108C23.4221 21.0874 23.6653 21.3508 23.7681 21.4477L25.4392 23.2832C25.4372 23.2999 25.4158 23.3382 25.3754 23.3963C25.3154 23.4778 25.1129 23.6798 24.5066 23.7565C24.4341 23.7653 24.3592 23.7694 24.2853 23.7694C23.66 23.7694 22.9937 23.4672 22.6498 23.2856C22.8062 22.9564 22.8872 22.5943 22.8872 22.2304C22.888 20.8603 21.7711 19.7463 20.3958 19.7451C20.3666 19.7451 20.3354 19.7463 20.3057 19.7474C20.3508 19.1217 20.2622 17.9374 19.0418 17.4158C18.691 17.2643 18.3405 17.1874 17.9998 17.1874C17.7334 17.1874 17.4772 17.2328 17.2355 17.325C16.9832 16.8355 16.5633 16.4792 16.0153 16.2929C15.713 16.1886 15.4119 16.1359 15.1211 16.1359C14.6133 16.1359 14.1453 16.2845 13.7279 16.5802C13.3283 16.0854 12.7238 15.7917 12.0878 15.7917C11.5318 15.7917 10.9961 16.0138 10.5996 16.4049C10.0797 16.0093 8.01639 14.7038 2.49496 13.4549C2.22753 13.3946 1.61365 13.2192 1.23764 13.1096C1.17525 13.4073 1.12784 13.7084 1.09644 14.0123C1.09644 14.0123 2.11505 14.2552 2.31537 14.2998C7.95605 15.5478 9.81985 16.846 10.1351 17.0909C10.0284 17.3461 9.97296 17.6219 9.97235 17.8996C9.97173 19.0599 10.9193 20.0058 12.0855 20.007C12.2165 20.007 12.3458 19.9958 12.4734 19.9723C12.6489 20.8263 13.21 21.4741 14.0678 21.8061C14.3181 21.9024 14.5718 21.9515 14.8206 21.9515C14.9815 21.9521 15.1436 21.9319 15.3019 21.8918C15.4601 22.2927 15.817 22.7921 16.6136 23.1143C16.8925 23.2267 17.172 23.2854 17.4438 23.2854C17.6657 23.2854 17.8826 23.247 18.0895 23.1703C18.4712 24.097 19.3796 24.7112 20.3929 24.7112C21.0641 24.7118 21.7087 24.4394 22.1789 23.9571C22.5808 24.1804 23.4311 24.583 24.2888 24.5846C24.4001 24.5846 24.5043 24.5768 24.6082 24.5638C25.4605 24.4564 25.8575 24.125 26.0397 23.8665C26.0724 23.8215 26.1021 23.7737 26.1274 23.7244C26.3289 23.7815 26.5502 23.8285 26.8035 23.8291C27.2689 23.8291 27.7153 23.6715 28.1675 23.3437C28.611 23.0241 28.9265 22.5673 28.9716 22.1776C28.9725 22.1727 28.9739 22.1664 28.9745 22.1609C29.1235 22.1915 29.277 22.2077 29.4306 22.2077C29.9096 22.2077 30.3806 22.0584 30.8313 21.7648C31.7003 21.1972 31.8514 20.4556 31.837 19.9708C31.9891 20.0025 32.1447 20.0189 32.2988 20.0189C32.7491 20.0189 33.1908 19.8835 33.612 19.6161C34.1503 19.2732 34.4746 18.7481 34.5232 18.1368C34.5575 17.7213 34.4539 17.3023 34.234 16.9423C35.6896 16.3174 39.0172 15.108 42.9355 14.2286C42.9119 13.926 42.8682 13.6273 42.814 13.3298C38.0729 14.377 34.5353 15.9022 33.6489 16.2951ZM20.3937 23.9279C19.473 23.9268 18.7247 23.2149 18.691 22.3067C18.6882 22.2283 18.6804 22.0212 18.5047 22.0212C18.4322 22.0212 18.3696 22.0644 18.2972 22.1292C18.0948 22.3165 17.8368 22.5062 17.4604 22.5062C17.2892 22.5062 17.1043 22.4672 16.9085 22.387C15.9363 21.995 15.9231 21.3295 15.963 21.0623C15.9734 20.9905 15.9769 20.9169 15.9279 20.8586L15.8683 20.8055H15.8074C15.7577 20.8055 15.7072 20.8257 15.6381 20.8744C15.3565 21.0707 15.087 21.1663 14.8128 21.1663C14.6621 21.1663 14.5074 21.1363 14.3518 21.0768C13.0719 20.5801 13.1733 19.3767 13.2355 19.0141C13.2451 18.9411 13.2267 18.8839 13.1797 18.8463L13.0894 18.772L13.0048 18.853C12.7552 19.0926 12.4289 19.2235 12.0857 19.2235C11.3528 19.2229 10.7562 18.6291 10.7566 17.8992C10.7572 17.1682 11.3542 16.5753 12.0876 16.5761C12.7501 16.5761 13.3141 17.0725 13.3989 17.7317L13.444 18.0871L13.64 17.7865C13.6622 17.7509 14.1993 16.9419 15.1869 16.9429C15.3747 16.9429 15.5687 16.9729 15.7641 17.0331C16.5512 17.2725 16.6844 17.9834 16.7051 18.2797C16.7191 18.4527 16.8424 18.4604 16.8666 18.4604C16.9346 18.4604 16.9849 18.4179 17.0202 18.3803C17.1688 18.2259 17.4922 17.9693 17.999 17.9693C18.2303 17.9697 18.477 18.0243 18.7317 18.1337C19.983 18.6684 19.4155 20.2522 19.4086 20.2689C19.3008 20.5313 19.2969 20.6472 19.3979 20.7143L19.4474 20.7372H19.4833C19.5399 20.7372 19.6101 20.713 19.7259 20.6738C19.8962 20.6151 20.1534 20.5266 20.3935 20.5272H20.3941C21.3362 20.5378 22.1022 21.3013 22.1016 22.229C22.1009 23.1668 21.3346 23.9279 20.3937 23.9279Z" fill="#2D3277"/>
</svg>
