<svg width="110" height="100" viewBox="0 0 110 100" fill="none" xmlns="http://www.w3.org/2000/svg">
<path d="M29.2858 74.4642L29.2858 60L35.7141 60L35.7141 74.4642L29.2858 74.4642Z" fill="#C3C5C8"/>
<path d="M26.0716 79.2858L26.0716 55.1783C26.0716 54.2905 25.352 53.5716 24.4642 53.5716C23.5763 53.5716 22.8574 54.2905 22.8574 55.1783L22.8574 79.2858C22.8574 80.1729 23.5763 80.8925 24.4642 80.8925C25.352 80.8925 26.0716 80.1729 26.0716 79.2858Z" fill="#C3C5C8"/>
<path d="M98.8409 82.5L100 79.0256L100 77.6784L87.1425 77.6784L87.1425 79.0256L88.3016 82.5L98.8409 82.5Z" fill="#C3C5C8"/>
<path d="M40.5358 85.7142C41.4229 85.7128 42.1418 84.9939 42.1425 84.1067L42.1425 48.75C42.1425 47.8622 41.4236 47.1425 40.5358 47.1425C39.6479 47.1425 38.9283 47.8622 38.9283 48.75L38.9283 84.1067C38.9297 84.9939 39.6486 85.7128 40.5358 85.7142Z" fill="#C3C5C8"/>
<path d="M26.4816 20.9079C24.1854 22.7364 22.8499 25.5146 22.8575 28.45L22.8575 31.0716C22.8588 32.8459 24.2967 34.2837 26.0716 34.2858L45.3575 34.2858L45.3575 25.3951L39.4269 20.4533C35.8989 17.5144 30.791 17.4636 27.2053 20.3304L26.4816 20.9079ZM29.2858 26.2335C29.2391 26.6743 29.3929 27.1117 29.7047 27.4262C30.0157 27.7407 30.4524 27.8986 30.8926 27.8567C31.7804 27.8567 32.5 28.5763 32.5 29.4641C32.5 30.352 31.7804 31.0716 30.8926 31.0716C29.6031 31.1093 28.3541 30.6136 27.4415 29.701C26.5289 28.7885 26.0332 27.5402 26.0716 26.25C26.0668 25.3621 26.783 24.6391 27.6708 24.635C28.558 24.6302 29.281 25.3463 29.2858 26.2335Z" fill="#C3C5C8"/>
<path d="M69.4642 28.1534L69.4642 23.0358C69.4628 22.1487 68.7446 21.4297 67.8575 21.4284L50.1784 21.4284C49.2913 21.4297 48.5723 22.1487 48.5717 23.0358L48.5717 37.5L55 37.5L55 32.6784C55.0028 30.0169 57.1595 27.8602 59.8217 27.8567L67.8575 27.8567C68.4061 27.8622 68.9499 27.9625 69.4642 28.1534Z" fill="#C3C5C8"/>
<path d="M87.1425 74.4642L87.1425 58.3925L100 58.3925L100 74.4642L87.1425 74.4642Z" fill="#C3C5C8"/>
<path d="M11.6074 80.8925C12.4946 80.8925 13.2142 80.1729 13.2142 79.2858L13.2142 55.1783C13.2142 54.2905 12.4946 53.5716 11.6074 53.5716C10.7196 53.5716 10 54.2905 10 55.1783L10 79.2858C10 80.1729 10.7196 80.8925 11.6074 80.8925Z" fill="#C3C5C8"/>
<path d="M29.2858 56.7858L35.7142 56.7858L35.7142 53.5716C35.7142 52.6837 34.9946 51.9641 34.1075 51.9641L30.8926 51.9641C30.0054 51.9641 29.2858 52.6837 29.2858 53.5716L29.2858 56.7858Z" fill="#C3C5C8"/>
<path d="M19.6425 79.2858L19.6425 55.1784C19.6425 54.2906 18.9236 53.5716 18.0358 53.5716C17.1479 53.5716 16.4283 54.2906 16.4283 55.1784L16.4283 79.2858C16.4283 80.173 17.1479 80.8926 18.0358 80.8926C18.9236 80.8926 19.6425 80.173 19.6425 79.2858Z" fill="#C3C5C8"/>
<path d="M30.8925 82.5L34.1074 82.5C34.9945 82.5 35.7141 81.7804 35.7141 80.8926L35.7141 77.6784L29.2858 77.6784L29.2858 80.8926C29.2858 81.7804 30.0054 82.5 30.8925 82.5Z" fill="#C3C5C8"/>
<path d="M59.8216 43.9283C57.785 43.9221 55.9729 42.6347 55.2959 40.7141L51.7858 40.7141L51.7858 51.1608C51.7858 55.155 55.0233 58.3925 59.0175 58.3925C63.0117 58.3925 66.25 55.155 66.25 51.1608L66.25 43.9283L59.8216 43.9283Z" fill="#C3C5C8"/>
<path d="M69.4642 39.1067L69.4642 32.6784C69.4629 31.7912 68.7446 31.0723 67.8575 31.0716L59.8217 31.0716C58.9345 31.0723 58.2156 31.7912 58.2142 32.6784L58.2142 39.1067C58.2156 39.9939 58.9345 40.7128 59.8217 40.7142L67.8575 40.7142C68.7446 40.7128 69.4629 39.9939 69.4642 39.1067V39.1067Z" fill="#C3C5C8"/>
<path d="M69.4642 50.3567L69.4642 51.1608C69.4642 56.93 64.7874 61.6067 59.0175 61.6067C53.2484 61.6068 48.5716 56.93 48.5716 51.1608L48.5716 50.3568L45.3574 50.3568L45.3574 82.5L71.0716 82.5C71.9588 82.4986 72.6777 81.7797 72.6784 80.8926L72.6784 51.9642C72.6777 51.077 71.9588 50.3581 71.0716 50.3567L69.4642 50.3567ZM67.8574 76.0716C68.7446 76.0716 69.4642 76.7905 69.4642 77.6784C69.4642 78.5662 68.7446 79.2858 67.8574 79.2858L56.6074 79.2858C55.7196 79.2858 55 78.5662 55 77.6784C55 76.7905 55.7196 76.0716 56.6074 76.0716L67.8574 76.0716ZM51.7858 77.6784C51.7858 78.5662 51.0662 79.2858 50.1784 79.2858C49.2912 79.2858 48.5716 78.5662 48.5716 77.6784C48.5716 76.7905 49.2912 76.0716 50.1784 76.0716C51.0662 76.0716 51.7858 76.7905 51.7858 77.6784Z" fill="#C3C5C8"/>
<path d="M98.8409 50.3567L88.3016 50.3567L87.1425 53.8318L87.1425 55.1783L100 55.1783L100 53.8318L98.8409 50.3567Z" fill="#C3C5C8"/>
<path d="M95.1784 31.0716L95.1784 28.45C95.186 25.5146 93.8504 22.7364 91.5536 20.9079L90.8319 20.3304C87.2456 17.4637 82.1376 17.5145 78.6096 20.4534L72.6784 25.3951L72.6784 34.2858L91.9642 34.2858C93.7385 34.2838 95.177 32.8459 95.1784 31.0716V31.0716ZM85.5358 29.4642C85.5358 28.5764 86.2554 27.8568 87.1426 27.8568C87.5841 27.8986 88.0208 27.74 88.3319 27.4249C88.6436 27.1104 88.7967 26.6716 88.75 26.2308C88.772 25.3498 89.4957 24.6481 90.3774 24.6536C91.2549 24.6597 91.9635 25.3725 91.9642 26.25C92.002 27.5402 91.5062 28.7885 90.5937 29.7011C89.6811 30.6136 88.4328 31.1094 87.1426 31.0716C86.2554 31.0716 85.5358 30.352 85.5358 29.4642V29.4642Z" fill="#C3C5C8"/>
<path d="M63.0358 15L55 15C54.1129 15.0014 53.394 15.7196 53.3926 16.6067L53.3926 18.2142L64.6426 18.2142L64.6426 16.6067C64.6419 15.7196 63.923 15.0014 63.0358 15V15Z" fill="#C3C5C8"/>
<path d="M83.9283 53.5716L75.8925 53.5716L75.8925 79.2858L83.9283 79.2858L83.9283 53.5716Z" fill="#C3C5C8"/>
</svg>
