<svg width="25" height="25" viewBox="0 0 25 25" fill="none" xmlns="http://www.w3.org/2000/svg">
<path d="M8.87768 14.6874H22.9046V16.4424H7.46983L4.62607 3.50954H0.735474V1.75549H6.03211L8.87768 14.6874ZM10.4711 17.6099C9.16178 17.6099 8.10046 18.6723 8.10046 19.984C8.10046 21.2948 9.16178 22.3599 10.4711 22.3599C11.7803 22.3599 12.8415 21.2948 12.8415 19.984C12.8415 18.6723 11.7803 17.6099 10.4711 17.6099ZM20.2428 17.6099C18.9353 17.6099 17.8731 18.6723 17.8731 19.984C17.8731 21.2948 18.9353 22.3599 20.2428 22.3599C21.552 22.3599 22.6142 21.2948 22.6142 19.984C22.6151 18.6723 21.5529 17.6099 20.2428 17.6099ZM9.76346 13.3739L7.68426 2.58492H24.7739L22.3428 13.3739H9.76346Z" fill="white"/>
</svg>
