<svg width="50" height="50" viewBox="0 0 50 50" fill="none" xmlns="http://www.w3.org/2000/svg">
<g clip-path="url(#clip0_1269_5217)">
<path fill-rule="evenodd" clip-rule="evenodd" d="M48.9894 11C49.5475 11 50 11.4525 50 12.0106C50 12.5688 49.5475 13.0213 48.9894 13.0213H48.0851V36.1063H47.0213V13.0213H46.0638V36.1063H45V13.0213H44.0425V36.1063H42.9787V13.0213H42.0213V36.1063H40.9574V13.0213H40V36.1063H38.9361V13.0213H37.9787V36.1063H36.9149V13.0213H35.9575V36.1063H34.8937V13.0213H33.9362V36.1063H32.8724V13.0213H27.234V36.1063H26.1702V13.0213H25.2127V36.1063H24.1489V13.0213H23.1915V36.1063H22.1276V13.0213H21.1702V36.1063H20.1064V13.0213H19.1489V36.1063H18.0851V13.0213H17.1276V36.1063H16.0638V13.0213H15.1063V36.1063H14.0425V13.0213H13.0851V36.1063H12.0213V13.0213H11.0638V36.1063H10V13.0213H9.04256V36.1063H7.97872L7.97873 13.0213H7.02127V36.1063H5.95744V13.0213H4.99999V36.1063H3.93616V13.0213H2.97871V36.1063H1.91488V13.0213H1.01064C0.452477 13.0213 1.07304e-06 12.5688 1.09743e-06 12.0106C1.12183e-06 11.4525 0.452481 11 1.01064 11L48.9894 11ZM48.9894 36.1063C49.5475 36.1063 50 36.5588 50 37.117C50 37.6751 49.5475 38.1276 48.9894 38.1276H1.01064C0.45248 38.1276 -2.44e-08 37.6751 0 37.117C2.44e-08 36.5588 0.45248 36.1063 1.01064 36.1063H48.9894Z" fill="white"/>
</g>
<defs>
<clipPath id="clip0_1269_5217">
<rect width="50" height="28" fill="white" transform="translate(0 11)"/>
</clipPath>
</defs>
</svg>
