<svg width="110" height="100" viewBox="0 0 110 100" fill="none" xmlns="http://www.w3.org/2000/svg">
<path d="M26.8568 25.4026C27.0911 25.4614 27.3056 25.583 27.4766 25.7537L46.573 44.8505L50.0285 41.3954L30.9317 22.2986C30.7604 22.1275 30.6394 21.9123 30.5802 21.6772L29.3783 16.8861L21.4108 12.3311L17.5092 16.2325L22.0656 24.2055L26.8568 25.4026Z" fill="#C3C5C8"/>
<path d="M43.838 68.9631L74.1411 38.6595C74.473 38.3272 74.9546 38.194 75.41 38.3073C79.3998 39.3299 83.6376 38.4438 86.8848 35.9104C90.1325 33.3768 92.0216 29.4806 91.9998 25.3621C91.9998 25.1113 91.9924 24.8586 91.9762 24.6036L84.928 31.6509C84.5709 32.0084 84.0412 32.1337 83.5612 31.9736L75.5448 29.3011C75.1456 29.1689 74.8326 28.8559 74.6993 28.4571L72.0276 20.4405C71.8673 19.9611 71.9922 19.4313 72.3502 19.0735L79.3982 12.0257C75.154 11.7617 71.0393 13.5448 68.3284 16.8209C65.6179 20.0978 64.6384 24.4737 65.6927 28.5929C65.8068 29.0489 65.6738 29.5304 65.3415 29.8625L35.0389 60.164C34.7065 60.4937 34.2254 60.6275 33.7697 60.5158C32.7147 60.2449 31.6297 60.1045 30.54 60.1002C24.7858 60.0623 19.6444 63.6898 17.7498 69.1244C15.8562 74.5585 17.6296 80.5959 22.1615 84.1427C26.6934 87.6894 32.9799 87.9606 37.7999 84.8161C42.6202 81.6718 44.9057 75.8094 43.4851 70.232C43.3722 69.7768 43.5057 69.2945 43.838 68.9631ZM33.7921 78.8056H27.2888L24.0814 73.4615L27.2888 68.1166H33.7921L36.9988 73.4615L33.7921 78.8056ZM38.9485 63.164L68.342 33.7701L70.2309 35.6594L40.8374 65.0532L38.9485 63.164Z" fill="#C3C5C8"/>
<path d="M81.0445 86.304C84.0204 87.4229 87.3756 86.6973 89.6239 84.4492C91.8723 82.2004 92.5981 78.8446 91.4787 75.8694L81.0445 86.304Z" fill="#C3C5C8"/>
<path d="M89.6241 72.9753L74.6179 57.9631C72.9627 59.3544 70.5184 59.2487 68.9885 57.7207C67.4584 56.193 67.3506 53.7494 68.7396 52.0925L66.6144 49.9647L55.1429 61.4368L57.2809 63.5746C58.9361 62.1833 61.3807 62.2887 62.9098 63.8162C64.4396 65.3442 64.5482 67.7881 63.159 69.4452L78.1526 84.4467C78.3162 84.6102 78.4888 84.7618 78.6632 84.9093L90.0871 73.4854C89.9399 73.3107 89.7877 73.1387 89.6241 72.9753ZM81.7026 78.4139L68.342 65.0533L70.2309 63.164L83.5918 76.5253L81.7026 78.4139Z" fill="#C3C5C8"/>
</svg>
