<svg width="25" height="25" viewBox="0 0 25 25" fill="none" xmlns="http://www.w3.org/2000/svg">
<path fill-rule="evenodd" clip-rule="evenodd" d="M12.361 1.692C18.244 1.692 23.03 6.47801 23.03 12.361C23.03 18.244 18.244 23.03 12.361 23.03C6.478 23.03 1.692 18.244 1.692 12.361C1.692 6.47801 6.478 1.692 12.361 1.692ZM12.361 0C5.534 0 0 5.534 0 12.36C0 19.187 5.534 24.721 12.361 24.721C19.188 24.721 24.722 19.187 24.722 12.36C24.722 5.534 19.188 0 12.361 0ZM18.932 9.12408C18.844 8.26308 18.514 7.50007 17.873 6.89007C17.2 6.24607 16.375 5.96308 15.472 5.91408C13.933 5.83008 10.279 5.77708 8.99598 5.98608C7.52998 6.22508 6.56898 7.08108 6.16298 8.52908C5.85098 9.64308 5.91298 14.7781 6.09498 15.8801C6.34398 17.3861 7.23298 18.3521 8.72598 18.7351C9.75898 19.0021 14.834 18.9671 15.974 18.7831C17.481 18.5401 18.451 17.6551 18.843 16.1651C19.141 15.0221 19.037 10.1551 18.932 9.12408ZM17.727 15.6671C17.552 16.8111 16.793 17.5191 15.643 17.6451C14.587 17.7611 9.86998 17.8251 8.89098 17.5501C7.95398 17.2881 7.41798 16.6441 7.26198 15.7001C7.11398 14.8001 7.07598 10.2981 7.25998 9.09308C7.43298 7.95908 8.19198 7.25108 9.33498 7.12408C10.495 6.99308 14.669 6.97908 15.78 7.14908C16.921 7.32508 17.629 8.08607 17.754 9.23707C17.871 10.3121 17.904 14.5121 17.727 15.6671ZM12.492 9.02807C10.638 9.02707 9.13398 10.5291 9.13298 12.3831C9.13198 14.2371 10.634 15.7411 12.488 15.7421C14.342 15.7431 15.846 14.2411 15.847 12.3871C15.848 10.5331 14.347 9.02907 12.492 9.02807ZM12.469 14.5551C11.27 14.5441 10.307 13.5641 10.318 12.3651C10.329 11.1661 11.309 10.2021 12.508 10.2141C13.707 10.2251 14.67 11.2051 14.659 12.4041C14.649 13.6021 13.669 14.5661 12.469 14.5551ZM16.767 8.90208C16.766 9.33608 16.413 9.68708 15.979 9.68608C15.545 9.68508 15.194 9.33208 15.195 8.89808C15.196 8.46309 15.549 8.11307 15.983 8.11407C16.417 8.11507 16.768 8.46708 16.767 8.90208Z" fill="white"/>
</svg>
