<svg width="24" height="24" viewBox="0 0 24 24" fill="none" xmlns="http://www.w3.org/2000/svg">
<path d="M18.9501 14.8406C18.4588 14.3337 17.8661 14.0627 17.238 14.0627C16.615 14.0627 16.0173 14.3287 15.5057 14.8355L13.905 16.4164C13.7733 16.3461 13.6416 16.2809 13.515 16.2156C13.3326 16.1253 13.1604 16.04 13.0135 15.9497C11.5141 15.0062 10.1516 13.7766 8.8447 12.1858C8.21153 11.3929 7.78604 10.7254 7.47705 10.0479C7.89241 9.67151 8.27738 9.28006 8.65222 8.90368C8.79405 8.76316 8.93588 8.61762 9.07771 8.4771C10.1414 7.42322 10.1414 6.05819 9.07771 5.0043L7.69487 3.63425C7.53784 3.47867 7.37575 3.31808 7.22379 3.15749C6.91986 2.84634 6.60075 2.52516 6.2715 2.22405C5.78016 1.74227 5.19258 1.48633 4.5746 1.48633C3.95663 1.48633 3.35892 1.74227 2.85238 2.22405C2.84731 2.22907 2.84731 2.22907 2.84225 2.23409L1.12003 3.95543C0.47166 4.5978 0.101889 5.38069 0.0208432 6.28904C-0.100725 7.75444 0.334896 9.11947 0.669209 10.0128C1.4898 12.2059 2.71562 14.2383 4.54421 16.4164C6.76284 19.0411 9.43228 21.1137 12.4816 22.5741C13.6467 23.1211 15.2017 23.7685 16.9391 23.8789C17.0455 23.8839 17.157 23.8889 17.2583 23.8889C18.4284 23.8889 19.411 23.4724 20.181 22.6443C20.186 22.6343 20.1962 22.6293 20.2012 22.6192C20.4646 22.3031 20.7686 22.017 21.0877 21.7109C21.3055 21.5051 21.5284 21.2893 21.7462 21.0635C22.2476 20.5466 22.511 19.9444 22.511 19.3271C22.511 18.7048 22.2426 18.1076 21.731 17.6058L18.9501 14.8406ZM20.7635 20.1251C20.7584 20.1251 20.7584 20.1301 20.7635 20.1251C20.5659 20.3358 20.3633 20.5265 20.1455 20.7373C19.8163 21.0485 19.482 21.3747 19.1679 21.741C18.6563 22.283 18.0535 22.539 17.2633 22.539C17.1874 22.539 17.1063 22.539 17.0303 22.5339C15.5259 22.4386 14.1279 21.8564 13.0793 21.3596C10.2123 19.9845 7.69487 18.0323 5.60287 15.5582C3.87558 13.4956 2.72068 11.5886 1.95581 9.54103C1.48473 8.29142 1.31251 7.31783 1.38849 6.39944C1.43914 5.81228 1.66709 5.32548 2.08751 4.90895L3.8148 3.19764C4.063 2.96679 4.3264 2.84132 4.58473 2.84132C4.90385 2.84132 5.16218 3.03203 5.32428 3.19262C5.32934 3.19764 5.33441 3.20266 5.33947 3.20768C5.64846 3.49373 5.94225 3.78982 6.25124 4.10599C6.40826 4.26658 6.57035 4.42717 6.73245 4.59278L8.11529 5.96283C8.65222 6.4948 8.65222 6.98661 8.11529 7.51857C7.96839 7.66411 7.82656 7.80964 7.67967 7.95016C7.25418 8.38175 6.84895 8.78323 6.40826 9.17468C6.39813 9.18471 6.388 9.18973 6.38294 9.19977C5.94732 9.63136 6.02836 10.0529 6.11954 10.339C6.1246 10.354 6.12967 10.3691 6.13473 10.3841C6.49437 11.2473 7.00091 12.0603 7.77085 13.0289L7.77591 13.0339C9.17395 14.7402 10.648 16.0701 12.274 17.0889C12.4816 17.2193 12.6944 17.3247 12.897 17.4251C13.0793 17.5154 13.2516 17.6007 13.3985 17.6911C13.4187 17.7011 13.439 17.7162 13.4592 17.7262C13.6315 17.8115 13.7936 17.8517 13.9607 17.8517C14.3811 17.8517 14.6445 17.5907 14.7307 17.5054L16.463 15.7891C16.6352 15.6184 16.9088 15.4127 17.2279 15.4127C17.5419 15.4127 17.8003 15.6084 17.9573 15.779C17.9624 15.784 17.9624 15.784 17.9674 15.7891L20.7584 18.5543C21.2802 19.0661 21.2802 19.5931 20.7635 20.1251Z" fill="#C3C5C8"/>
<path d="M12.9527 5.76684C14.2798 5.98765 15.4854 6.60994 16.4478 7.56345C17.4102 8.51696 18.0333 9.71136 18.2612 11.0262C18.3169 11.3574 18.6056 11.5883 18.9349 11.5883C18.9754 11.5883 19.0109 11.5832 19.0514 11.5782C19.4262 11.518 19.6744 11.1667 19.6137 10.7953C19.3401 9.20449 18.5803 7.75415 17.4204 6.60492C16.2604 5.45569 14.7965 4.70292 13.1908 4.43192C12.8159 4.3717 12.4664 4.61761 12.4006 4.98395C12.3347 5.3503 12.5779 5.70661 12.9527 5.76684Z" fill="#C3C5C8"/>
<path d="M23.9547 10.5998C23.5039 7.98017 22.2578 5.59637 20.3431 3.69937C18.4284 1.80237 16.0223 0.567817 13.3782 0.121169C13.0084 0.055928 12.6589 0.306854 12.5931 0.673206C12.5323 1.04458 12.7805 1.39085 13.1553 1.45609C15.5158 1.85256 17.6686 2.96165 19.3807 4.65289C21.0928 6.34915 22.2072 8.48202 22.6073 10.8206C22.6631 11.1519 22.9518 11.3827 23.281 11.3827C23.3216 11.3827 23.357 11.3777 23.3975 11.3727C23.7673 11.3175 24.0206 10.9662 23.9547 10.5998Z" fill="#C3C5C8"/>
</svg>
