<svg width="110" height="110" viewBox="0 0 110 110" fill="none" xmlns="http://www.w3.org/2000/svg">
<path d="M60.4633 46.4733C56.2927 46.4733 52.8996 49.8659 52.8996 54.0362C52.8996 58.2065 56.2927 61.5992 60.4633 61.5992C64.6339 61.5992 68.0268 58.2065 68.0268 54.0362C68.0268 49.8659 64.6339 46.4733 60.4633 46.4733ZM60.4633 57.6235C58.4849 57.6235 56.8754 56.0141 56.8754 54.036C56.8754 52.058 58.4849 50.4486 60.4633 50.4486C62.4417 50.4486 64.051 52.058 64.051 54.036C64.051 56.0143 62.4417 57.6235 60.4633 57.6235ZM79.9685 58.008L77.3999 56.1472C77.4863 55.4484 77.5296 54.7428 77.5296 54.0378C77.5296 53.343 77.4876 52.6483 77.4041 51.961L79.9734 50.0996C80.6301 49.6718 81.5257 48.6638 81.0968 46.441C80.8911 45.3772 80.3992 44.1348 79.7114 42.9437C77.8053 39.6416 75.4955 38.1967 73.651 39.135L70.7595 40.427C69.6333 39.5725 68.4151 38.867 67.1179 38.3187L66.793 35.1886C66.6947 33.1141 64.2885 31.8317 60.4636 31.8317C56.6497 31.8317 54.2428 33.1105 54.1346 35.1782L53.8085 38.3189C52.5111 38.8675 51.2928 39.5731 50.1672 40.4274L47.2819 39.1385C46.583 38.784 45.2619 38.5126 43.5519 39.9952C42.7331 40.7051 41.9033 41.7524 41.2157 42.9437C39.3095 46.2445 39.2121 48.9668 40.946 50.0956L43.5227 51.9621C43.439 52.6503 43.3971 53.3447 43.3971 54.038C43.3971 54.7428 43.4404 55.4482 43.5267 56.1468L40.9489 58.0144C39.2123 59.1419 39.3084 61.8656 41.2155 65.1679C41.9033 66.3594 42.7331 67.4065 43.5519 68.1164C45.2624 69.5992 46.5834 69.3276 47.2819 68.9729L50.1965 67.6709C51.3135 68.5146 52.5204 69.2121 53.805 69.7556L54.1343 72.9329C54.2419 75.0013 56.6492 76.2801 60.4633 76.2801C64.2883 76.2801 66.6945 74.9977 66.7928 72.923L67.1214 69.7556C68.4058 69.2121 69.6129 68.5146 70.7297 67.6711L73.6508 68.9764C75.4955 69.9153 77.805 68.4695 79.711 65.1681C81.6238 61.8556 81.7165 59.1306 79.9685 58.008ZM73.2996 51.4579C73.4683 52.3003 73.5536 53.1683 73.5536 54.0378C73.5536 54.9148 73.4661 55.7925 73.2941 56.6462C73.1401 57.4095 73.446 58.1922 74.0764 58.6489L77.1954 60.9083C77.1044 61.3737 76.8391 62.1904 76.2677 63.1801C75.6961 64.1698 75.1216 64.8079 74.7638 65.1193L71.2342 63.5419C70.5238 63.2243 69.6931 63.3506 69.1093 63.865C67.7931 65.0241 66.2885 65.8934 64.637 66.4484C63.8989 66.6967 63.3736 67.3529 63.2932 68.1274L62.8941 71.9719C62.4455 72.1257 61.6057 72.3043 60.4631 72.3043C59.3199 72.3043 58.4799 72.1257 58.0315 71.9717L57.6328 68.1276C57.5524 67.3531 57.0272 66.6967 56.289 66.4484C54.6377 65.8934 53.1331 65.0241 51.8162 63.8648C51.2325 63.3506 50.4028 63.2243 49.6918 63.5417L46.1616 65.1186C45.8042 64.8072 45.2295 64.1691 44.6583 63.1797C44.0866 62.1898 43.8214 61.373 43.7306 60.9077L46.8494 58.648C47.4798 58.1913 47.7854 57.4088 47.6317 56.6457C47.4599 55.7919 47.3724 54.9144 47.3724 54.0376C47.3724 53.1709 47.4581 52.3027 47.6266 51.457C47.7786 50.6951 47.4727 49.9143 46.8434 49.4585L43.7304 47.2037C43.8212 46.7383 44.0864 45.9214 44.6583 44.9312C45.2292 43.942 45.804 43.3039 46.1613 42.9925L49.6649 44.5578C50.3774 44.8758 51.2093 44.7481 51.793 44.2315C53.1154 43.0614 54.6291 42.1848 56.2919 41.6265C57.0302 41.3785 57.5557 40.7221 57.6361 39.9473L58.0313 36.1399C58.4796 35.9859 59.3196 35.8072 60.4629 35.8072C61.6055 35.8072 62.4453 35.9857 62.8939 36.1396L63.289 39.9473C63.3694 40.7221 63.8951 41.3785 64.6337 41.6265C66.2958 42.1844 67.8095 43.0608 69.1328 44.2313C69.7167 44.7479 70.5486 44.8756 71.2609 44.5573L74.7638 42.9921C75.1212 43.3035 75.6961 43.9416 76.2675 44.9315C76.8389 45.9207 77.1042 46.7372 77.1952 47.2028L74.0822 49.4582C73.4531 49.9145 73.1472 50.6957 73.2996 51.4579ZM83.8895 23.1596H37.0371C29.4785 23.1596 23.3814 29.2894 23.3814 36.8477V75.5892L16.976 81.2876V36.3695C16.9758 25.6322 25.8208 16.9755 36.5592 16.9755H73.6685C75.7546 16.9755 77.7474 17.5948 79.4311 18.8409C80.3135 19.494 81.5584 19.2884 82.2118 18.406C82.8649 17.5237 82.6789 16.3085 81.7965 15.6554C79.423 13.8989 76.6123 13 73.6682 13H36.5592C23.6288 13 13 23.4401 13 36.3695V85.793C13 86.5804 13.5193 87.2938 14.24 87.6116C14.9605 87.9292 15.8542 87.792 16.436 87.2611L23.3814 80.9714V96.0122C23.3814 96.7996 23.8201 97.513 24.5408 97.8308C24.7986 97.9446 25.0585 98 25.3298 98C25.8164 98 26.2902 97.8213 26.6639 97.4805L38.2151 86.9362C38.5744 86.6082 38.8797 86.3217 39.1476 86.0719C39.7005 85.556 40.222 85.0688 40.3949 85.001C40.5573 84.9372 41.2426 84.9632 41.968 84.9727C42.3605 84.978 42.8157 85.0008 43.352 85.0008H83.8897C91.4484 85.0008 97.5963 78.8182 97.5963 71.2599V36.8477C97.5958 29.2894 91.4479 23.1596 83.8895 23.1596ZM93.62 71.2599C93.62 76.6262 89.2557 81.0253 83.8893 81.0253H43.3518C42.8363 81.0253 42.3983 81.0025 42.0208 80.9977C39.0906 80.9583 38.6202 81.1339 36.4335 83.1736C36.1748 83.415 35.9043 83.6875 35.5573 84.0042L27.3572 91.5069V76.4682C27.3572 76.4665 27.3572 76.4649 27.3572 76.4632V36.8477C27.357 31.4814 31.6707 27.1351 37.0371 27.1351H83.8895C89.2559 27.1351 93.6203 31.4814 93.6203 36.8477L93.62 71.2599Z" fill="#C3C5C8"/>
</svg>
