<svg width="25" height="26" viewBox="0 0 25 26" fill="none" xmlns="http://www.w3.org/2000/svg">
<path fill-rule="evenodd" clip-rule="evenodd" d="M12.6041 25.3599C19.4309 25.3599 24.9651 19.8261 24.9651 12.9999C24.9651 6.17365 19.4309 0.639893 12.6041 0.639893C5.77727 0.639893 0.243042 6.17365 0.243042 12.9999C0.243042 19.8261 5.77727 25.3599 12.6041 25.3599ZM7.31801 10.4142H9.82703V18.4725H7.31801V10.4142ZM8.57302 6.40956C9.37603 6.40956 10.025 7.0605 10.025 7.86143C10.025 8.66337 9.37603 9.31531 8.57302 9.31531C7.76802 9.31531 7.11902 8.66337 7.11902 7.86143C7.11902 7.0605 7.76802 6.40956 8.57302 6.40956ZM13.8011 10.414H11.3991H11.3981V18.4733H13.9021V14.4877C13.9021 13.4368 14.1001 12.4189 15.4041 12.4189C16.6881 12.4189 16.7071 13.6198 16.7071 14.5557V18.4733H19.2101V14.0537C19.2101 11.8829 18.7421 10.2151 16.2061 10.2151C14.9861 10.2151 14.1691 10.883 13.8341 11.5169H13.8011V10.414Z" fill="#C3C5C8"/>
</svg>
