<svg width="110" height="110" viewBox="0 0 110 110" fill="none" xmlns="http://www.w3.org/2000/svg">
<path d="M57.8954 23.6345L64.2124 11H45.7875L52.1045 23.6345H57.8954Z" fill="#C3C5C8"/>
<path d="M42.1782 13.7573L40.1348 17.844V27.0443L47.5806 24.5622L42.1782 13.7573Z" fill="#C3C5C8"/>
<path d="M69.865 27.0443V17.844L67.8217 13.7573L62.4193 24.5622L69.865 27.0443Z" fill="#C3C5C8"/>
<path d="M10.2188 37.0989L14.7088 49.0713C15.0749 50.048 15.8537 50.7913 16.8461 51.1116C17.8382 51.431 18.9049 51.2834 19.7734 50.7052L21.4273 49.6025V26.4719L11.5152 33.0798C10.1946 33.9598 9.66187 35.6125 10.2188 37.0989Z" fill="#C3C5C8"/>
<path d="M98.4848 33.0798L88.5727 26.4719V49.6028L90.2266 50.7055C91.0942 51.2837 92.1612 51.4313 93.1539 51.1119C94.1463 50.7916 94.9254 50.0483 95.2912 49.0719L99.7812 37.0989C100.338 35.6125 99.8054 33.9598 98.4848 33.0798Z" fill="#C3C5C8"/>
<path d="M51.0878 28.0957L45.4882 29.9624V99.8526H64.5118V29.9624L58.9121 28.0957H51.0878Z" fill="#C3C5C8"/>
<path d="M74.3263 30.139C74.3263 30.856 73.9815 31.5296 73.4 31.9487C73.0154 32.226 72.5578 32.3696 72.0954 32.3696C71.8587 32.3696 71.6209 32.3321 71.3903 32.2551L68.9733 31.4493V99.8523H79.4218C82.0075 99.8523 84.1112 97.7487 84.1112 95.1629V23.8136L74.3263 19.8997V30.139Z" fill="#C3C5C8"/>
<path d="M37.9044 32.3701C37.442 32.3701 36.9844 32.2262 36.5998 31.9492C36.0183 31.5301 35.6735 30.8565 35.6735 30.1395V19.9001L25.8886 23.8141V95.1634C25.8886 97.7491 27.9923 99.8528 30.578 99.8528H41.0265V31.4498L38.6095 32.2556C38.3792 32.3323 38.1407 32.3701 37.9044 32.3701Z" fill="#C3C5C8"/>
</svg>
