<svg width="110" height="110" viewBox="0 0 110 110" fill="none" xmlns="http://www.w3.org/2000/svg">
<path d="M55.4714 12.1428H53.2714C52.0959 12.1428 51.143 11.1897 51.143 10.0144V9.94281C51.143 7.21291 48.9299 5 46.2 5H46.0858C43.3559 5 41.143 7.21291 41.143 9.94281V10.0144C41.143 11.1899 40.1899 12.143 39.0145 12.143H36.8145C34.4712 12.143 32.5717 14.0425 32.5717 16.3858V16.4716C32.5717 18.8149 34.4712 20.7144 36.8145 20.7144H55.4719C57.815 20.7144 59.7145 18.8147 59.7145 16.4716V16.3856C59.7144 14.0425 57.8149 12.1428 55.4714 12.1428ZM46.1428 12.1428C44.9593 12.1428 44 11.1833 44 10C44 8.8165 44.9595 7.85703 46.1428 7.85703C47.3263 7.85703 48.2856 8.8165 48.2856 10C48.2856 11.1835 47.3263 12.1428 46.1428 12.1428ZM55.683 95H19.7142C16.5583 95 14 92.4417 14 89.2858V20.7142C14 17.5583 16.5583 15 18.2856 15H29.8631C29.7665 15.4745 29.7144 15.9663 29.7144 16.4719C29.7144 20.3866 32.8993 23.5716 36.8147 23.5716H55.4712C59.3868 23.5716 62.5714 20.3866 62.5714 16.3855C62.5714 15.9111 62.5206 15.4487 62.4317 15H71.1428C75.7276 15 78.2858 17.5583 78.2858 20.7142V63.6436C77.8109 63.6141 77.3395 63.5714 76.8574 63.5714C74.8812 63.5714 72.9732 63.8498 71.1428 64.3237V30.7142H21.1428V87.8572H54.0722C54.2288 90.3681 54.7775 92.7716 55.683 95ZM76.8572 67.8572C66.6005 67.8572 58.2859 76.1721 58.2859 86.4286C58.2859 96.6851 66.6003 105 76.8572 105C87.1141 105 95.4284 96.6851 95.4284 86.4286C95.4284 76.1721 87.1139 67.8572 76.8572 67.8572ZM88.9923 82.6129L77.5637 95.4701C77.0008 96.1036 76.2167 96.4284 75.4271 96.4284C74.8 96.4284 74.1694 96.2234 73.6435 95.8021L66.5005 90.0879C65.2686 89.1029 65.0685 87.3046 66.0549 86.0727C67.0397 84.8395 68.8387 84.6399 70.0706 85.6265L75.0948 89.6458L84.7216 78.8157C85.7686 77.6368 87.5753 77.5294 88.7549 78.5786C89.9348 79.6276 90.0407 81.4328 88.9923 82.6129ZM64 55H41.143C40.3539 55 39.7144 54.3603 39.7144 53.5714V52.1428C39.7144 51.3538 40.3539 50.7142 41.143 50.7142H64C64.7889 50.7142 65.4288 51.3539 65.4288 52.1428V53.5714C65.4284 54.3603 64.7889 55 64 55ZM64 42.1428H41.143C40.3539 42.1428 39.7144 41.5031 39.7144 40.7142V39.2856C39.7144 38.4966 40.3539 37.857 41.143 37.857H64C64.7889 37.857 65.4288 38.4967 65.4288 39.2856V40.7142C65.4284 41.5033 64.7889 42.1428 64 42.1428ZM56.857 66.4286H41.143C40.3539 66.4286 39.7144 65.7889 39.7144 65V63.5714C39.7144 62.7824 40.3539 62.1428 41.143 62.1428H56.857C57.6462 62.1428 58.2858 62.7824 58.2858 63.5714V65C58.2855 65.7889 57.6462 66.4286 56.857 66.4286ZM54 79.2858H41.1428C40.3538 79.2858 39.7142 78.6461 39.7142 77.8572V76.4286C39.7142 75.6395 40.3538 75 41.1428 75H54C54.7891 75 55.4286 75.6395 55.4286 76.4286V77.8572C55.4286 78.6461 54.7891 79.2858 54 79.2858ZM36.9791 36.8596L31.7178 42.7786C31.4587 43.0703 31.0977 43.2199 30.7342 43.2199C30.4454 43.2199 30.1552 43.1255 29.9131 42.9315L26.6247 40.301C26.0575 39.8476 25.9655 39.0198 26.4194 38.4526C26.8727 37.8848 27.7011 37.793 28.2681 38.2471L30.581 40.0972L35.0129 35.1114C35.4949 34.5688 36.3266 34.5193 36.8696 35.0023C37.4131 35.4853 37.4618 36.3163 36.9791 36.8596ZM36.9791 49.5698L31.7178 55.4886C31.4587 55.7802 31.0977 55.9297 30.7342 55.9297C30.4454 55.9297 30.1552 55.8355 29.9131 55.6413L26.6247 53.0108C26.0575 52.5574 25.9655 51.7296 26.4194 51.1624C26.8727 50.5946 27.7011 50.5028 28.2681 50.9569L30.581 52.8072L35.0129 47.8214C35.4949 47.2788 36.3266 47.2292 36.8696 47.7124C37.4131 48.1953 37.4618 49.0265 36.9791 49.5698ZM36.9791 61.7248L31.7178 67.6438C31.4587 67.9353 31.0977 68.085 30.7342 68.085C30.4454 68.085 30.1552 67.9907 29.9131 67.7966L26.6247 65.1659C26.0575 64.7126 25.9655 63.8846 26.4194 63.3175C26.8727 62.7497 27.7011 62.6578 28.2681 63.1119L30.581 64.9621L35.0129 59.9763C35.4949 59.4337 36.3266 59.3841 36.8696 59.8672C37.4131 60.3505 37.4618 61.1815 36.9791 61.7248ZM36.9791 73.9657L31.7178 79.8846C31.4587 80.1763 31.0977 80.3258 30.7342 80.3258C30.4454 80.3258 30.1552 80.2315 29.9131 80.0374L26.6247 77.4067C26.0575 76.9534 25.9655 76.1255 26.4194 75.5583C26.8727 74.9905 27.7011 74.8987 28.2681 75.3528L30.581 77.2029L35.0129 72.2172C35.4949 71.6745 36.3266 71.625 36.8696 72.108C37.4131 72.5913 37.4618 73.4226 36.9791 73.9657Z" fill="#C3C5C8"/>
</svg>
