<svg width="24" height="18" viewBox="0 0 24 18" fill="none" xmlns="http://www.w3.org/2000/svg">
<path d="M21.4854 0.398193H2.47209C1.10899 0.398193 0 1.49693 0 2.84742V15.1526C0 16.5031 1.10899 17.6018 2.47209 17.6018H21.4854C22.8485 17.6018 23.9575 16.5031 23.9575 15.1526V2.84742C23.9574 1.49693 22.8484 0.398193 21.4854 0.398193ZM20.6704 2.20289L12.5447 8.58932C12.2114 8.85127 11.7459 8.85127 11.4127 8.58932L3.28701 2.20289H20.6704ZM22.1359 15.1526C22.1359 15.5085 21.8446 15.7971 21.4853 15.7971H2.47209C2.1128 15.7971 1.82154 15.5085 1.82154 15.1526V3.3547L10.2807 10.0032C10.7617 10.3813 11.3647 10.5894 11.9788 10.5894C12.5928 10.5894 13.1959 10.3813 13.6769 10.0032L22.1359 3.3547V15.1526H22.1359Z" fill="#C3C5C8"/>
</svg>
