<svg width="25" height="26" viewBox="0 0 25 26" fill="none" xmlns="http://www.w3.org/2000/svg">
<path fill-rule="evenodd" clip-rule="evenodd" d="M24.799 12.9999C24.799 19.8261 19.2647 25.3599 12.4379 25.3599C5.61112 25.3599 0.0769043 19.8261 0.0769043 12.9999C0.0769043 6.17365 5.61112 0.639893 12.4379 0.639893C19.2647 0.639893 24.799 6.17365 24.799 12.9999ZM14.9385 8.40443C14.6348 8.40225 14.3316 8.40008 14.028 8.4102C13.412 8.4332 12.955 8.66818 12.934 9.43611C12.918 9.99807 12.912 11.292 12.912 11.292C12.912 11.292 14.36 11.294 14.99 11.292H15.489C15.4399 11.6677 15.3919 12.0372 15.3443 12.4036C15.2783 12.9108 15.2132 13.4122 15.147 13.9167H12.93V20.4722H10.211V13.9067H7.98596V11.295H10.224V11.098C10.2237 10.9499 10.2227 10.802 10.2217 10.6542C10.2192 10.277 10.2166 9.90029 10.226 9.52311C10.235 9.18913 10.249 8.84916 10.307 8.52019C10.447 7.72226 10.814 7.04832 11.482 6.56736C12.064 6.15039 12.731 5.97841 13.436 5.96341C13.8846 5.9537 14.3332 5.97416 14.7809 5.99458L14.821 5.99641C14.9975 6.00485 15.1745 6.02466 15.3475 6.04402C15.4205 6.05219 15.4928 6.06028 15.564 6.0674V8.4062H15.378C15.2313 8.40653 15.0848 8.40548 14.9385 8.40443Z" fill="#C3C5C8"/>
</svg>
