<svg width="25" height="24" viewBox="0 0 25 24" fill="none" xmlns="http://www.w3.org/2000/svg">
<path d="M20.7573 0.593262H5.17285C2.85266 0.593262 0.965088 2.46344 0.965088 4.76218V14.2858C0.965088 16.5846 2.85266 18.4547 5.17285 18.4547L15.0993 18.4548L19.8511 23.1626C20.0122 23.3222 20.2273 23.4068 20.4464 23.4068C20.5548 23.4068 20.6641 23.386 20.7682 23.3433C21.0827 23.2143 21.2878 22.9104 21.2878 22.5731V18.4217C23.3586 18.1626 24.9651 16.4066 24.9651 14.2858V4.76218C24.9651 2.46344 23.0775 0.593262 20.7573 0.593262ZM23.282 14.2859C23.282 15.6652 22.1495 16.7872 20.7573 16.7872H20.4462C19.9815 16.7872 19.6047 17.1606 19.6047 17.621V20.5601L16.043 17.0314C15.8852 16.875 15.6713 16.7872 15.4479 16.7872H5.17285C3.78072 16.7872 2.64819 15.6652 2.64819 14.2859V4.76225C2.64819 3.38299 3.78072 2.26094 5.17285 2.26094H20.7573C22.1495 2.26094 23.282 3.38299 23.282 4.76225V14.2859Z" fill="#C3C5C8"/>
<path d="M19.1589 6.49683H6.77124C6.3065 6.49683 5.92969 6.8701 5.92969 7.33061C5.92969 7.79106 6.3065 8.1644 6.77124 8.1644H19.1589C19.6236 8.1644 20.0004 7.79106 20.0004 7.33061C20.0004 6.8701 19.6237 6.49683 19.1589 6.49683Z" fill="#C3C5C8"/>
<path d="M19.1589 11.166H6.77124C6.3065 11.166 5.92969 11.5393 5.92969 11.9999C5.92969 12.4605 6.3065 12.8339 6.77124 12.8339H19.1589C19.6236 12.8339 20.0004 12.4605 20.0004 11.9999C20.0004 11.5394 19.6237 11.166 19.1589 11.166Z" fill="#C3C5C8"/>
</svg>
