<svg width="50" height="50" viewBox="0 0 50 50" fill="none" xmlns="http://www.w3.org/2000/svg">
<g clip-path="url(#clip0_1269_5215)">
<path d="M8 8.5994C8 7.71533 8.67499 7 9.50803 7L34.8927 7.00658V7.00082C37.791 7 40.1486 9.50241 40.1486 12.5769C40.1486 15.6407 37.8091 18.1341 34.9264 18.153L15.122 18.1481C13.8683 18.1481 12.8632 19.2149 12.8632 20.5254C12.8632 21.8309 13.8601 22.8944 15.0866 22.9035L15.122 22.8994L34.8927 22.9027L34.8943 22.8985C37.791 22.8994 40.1486 25.4001 40.1486 28.4746C40.1486 31.5376 37.8091 34.0318 34.9264 34.0516L15.1203 34.0466C13.8683 34.0458 12.8632 35.1126 12.8632 36.4239C12.8632 37.7352 13.8683 38.8012 15.1031 38.8012H41.4928C42.325 38.8012 43.0008 39.5182 43.0008 40.4022C43.0008 41.2847 42.325 42 41.4936 42H15.1031C12.2055 42.0008 9.84882 39.4984 9.84882 36.4239C9.84882 33.3486 12.2055 30.847 15.1031 30.847L34.8993 30.8519C36.1324 30.8495 37.1342 29.7843 37.1342 28.4746C37.1342 27.1749 36.1464 26.1155 34.9264 26.0982V26.1031L15.1385 26.0965L15.1031 26.1015C12.2055 26.1015 9.84882 23.6007 9.84882 20.5262C9.84882 17.4517 12.2055 14.9493 15.1031 14.9493L34.8993 14.9542C36.1324 14.9509 37.1342 13.8858 37.1342 12.5769C37.1342 11.2772 36.1464 10.2177 34.9264 10.1996V10.2062L9.50639 10.1988C8.67499 10.1988 8 9.48265 8 8.5994Z" fill="white"/>
</g>
<defs>
<clipPath id="clip0_1269_5215">
<rect width="35" height="35" fill="white" transform="translate(8 7)"/>
</clipPath>
</defs>
</svg>
