<svg width="110" height="110" viewBox="0 0 110 110" fill="none" xmlns="http://www.w3.org/2000/svg">
<path d="M79.6161 52.2171C80.7215 53.1588 82.3592 53.1178 83.4032 52.0738C84.4063 51.0707 84.4882 49.5149 83.6489 48.43L83.6079 48.3891C83.5875 48.3481 83.5465 48.3072 83.526 48.2867L76.6478 40.0984C76.3612 39.7504 76.177 39.3205 76.1565 38.8496L75.1535 23.4351C75.0306 22.0022 73.8433 20.8967 72.3694 20.8967C70.9365 20.8967 69.7696 21.9612 69.6059 23.3532V23.3737C69.6059 23.4351 69.6059 23.4965 69.5854 23.5579L68.48 40.4873C68.4595 40.5897 68.4595 40.7125 68.4595 40.8148V40.8558C68.4595 40.8763 68.4595 40.8967 68.4595 40.9172C68.4595 40.9581 68.4595 40.9786 68.4595 40.9991C68.439 42.0226 68.828 43.0462 69.6059 43.8241C69.7696 43.9878 69.9334 44.1311 70.1176 44.2539L79.6161 52.2171Z" fill="#C3C5C8"/>
<path d="M72.6152 8C58.4085 8 46.3307 17.1914 41.9704 29.9243C44.7954 30.2518 47.5385 30.8659 50.1792 31.7871C53.6388 22.7595 62.4003 16.3316 72.6152 16.3316C85.8599 16.3316 96.648 27.1198 96.648 40.3644C96.648 52.3603 87.8251 62.3091 76.3204 64.1105C76.5047 65.6663 76.607 67.2631 76.607 68.8598C76.607 70.088 76.5456 71.2958 76.4433 72.5036C92.4924 70.5998 105 56.9253 105 40.3644C104.98 22.5138 90.4658 8 72.6152 8Z" fill="#C3C5C8"/>
<path d="M67.0471 64.0902L62.871 64.0697C62.216 60.6511 60.8854 57.3348 58.8588 54.3461L61.827 51.3983C62.8915 50.3338 62.912 48.5938 61.8475 47.5293L58.8588 44.5406C57.7943 43.4761 56.0542 43.4556 54.9898 44.5201L52.0215 47.4679C49.0328 45.4208 45.737 44.0697 42.3183 43.3942L42.3388 39.2182C42.3388 37.7033 41.131 36.4751 39.6162 36.4751L35.3992 36.4546C33.8843 36.4546 32.6561 37.6624 32.6561 39.1772L32.6356 43.3328C29.1965 43.9674 25.8598 45.298 22.8506 47.3246L19.9437 44.4177C18.8792 43.3533 17.1392 43.3328 16.0747 44.4177L13.086 47.4065C12.0215 48.471 12.001 50.211 13.0655 51.2755L15.9314 54.1619C13.8639 57.1506 12.4923 60.5078 11.8168 63.9469L7.76356 63.9264C6.24872 63.9264 5.02047 65.1342 5.02047 66.6491L5 70.8661C5 72.3809 6.20778 73.6091 7.72262 73.6091L11.7554 73.6296C12.39 77.0892 13.741 80.4669 15.7881 83.4761L12.9427 86.3011C11.8782 87.3655 11.8577 89.1056 12.9222 90.1701L15.911 93.1588C16.9754 94.2233 18.7155 94.2437 19.7799 93.1588L22.6663 90.3748C25.6755 92.4423 29.0328 93.8139 32.4923 94.4689L32.4719 98.5017C32.4719 100.017 33.6796 101.245 35.1945 101.245L39.4115 101.265C40.9263 101.265 42.1546 100.057 42.1546 98.5426L42.175 94.4894C45.6346 93.8343 48.9713 92.4832 51.9806 90.4157L54.8465 93.3021C55.911 94.3666 57.651 94.387 58.7155 93.3226L61.7042 90.3338C62.7687 89.2693 62.7892 87.5293 61.7247 86.4648L58.8178 83.558C60.8649 80.5692 62.216 77.2325 62.8506 73.7934L67.0061 73.8139C68.521 73.8139 69.7492 72.6061 69.7492 71.0912L69.7697 66.8742C69.7902 65.3185 68.5619 64.0902 67.0471 64.0902ZM47.3541 78.8497C41.827 84.3359 32.9017 84.3154 27.4156 78.7883C21.9294 73.2611 21.9498 64.3359 27.477 58.8497C33.0041 53.3635 41.9294 53.384 47.4156 58.9111C52.9017 64.4382 52.8608 73.3635 47.3541 78.8497Z" fill="#C3C5C8"/>
</svg>
