<svg width="25" height="25" viewBox="0 0 25 25" fill="none" xmlns="http://www.w3.org/2000/svg">
<g clip-path="url(#clip0_1253_5389)">
<path fill-rule="evenodd" clip-rule="evenodd" d="M1.06461 7.31662L2.21571 7.8562C1.93821 8.93535 1.87655 10.0762 2.06154 11.2221L0.869337 11.6538C0.42226 11.8182 0.191013 12.3116 0.350316 12.7638L0.807671 14.0176C0.972113 14.4647 1.46544 14.696 1.91766 14.5367L3.10986 14.105C3.70083 15.1019 4.48193 15.9396 5.38636 16.5871L4.84678 17.7381C4.64637 18.1698 4.83137 18.6837 5.26303 18.8892L6.47579 19.4545C6.90745 19.6549 7.42133 19.4699 7.62689 19.0383L8.16646 17.882C8.96298 18.0825 9.79547 18.1698 10.6382 18.1184L10.6537 17.7844C10.6742 17.3116 10.8798 16.8748 11.2292 16.5562C11.5427 16.2684 11.9435 16.104 12.37 16.0937C12.442 15.9139 12.5242 15.7391 12.6167 15.5644C12.5036 15.4205 12.4163 15.2612 12.3546 15.0917C11.887 15.2818 11.3885 15.4154 10.8643 15.4771C7.78619 15.8368 5.00095 13.6374 4.64123 10.5592C4.28151 7.48106 6.48093 4.69582 9.55908 4.3361C12.6372 3.97639 15.4225 6.1758 15.7822 9.25396C15.9055 10.3228 15.7257 11.3557 15.2991 12.2653C15.4996 12.3475 15.6794 12.4657 15.8387 12.6147C16.0186 12.5428 16.1984 12.476 16.3886 12.4143C16.4965 11.5048 17.293 10.8162 18.2231 10.8573L18.3465 10.8624C18.4338 10.1173 18.4184 9.35673 18.2951 8.59619L19.5387 8.14397C19.9858 7.97953 20.217 7.4862 20.0577 7.03399L19.6003 5.78011C19.4359 5.33304 18.9426 5.10179 18.4904 5.26109L17.2468 5.71331C16.6661 4.73179 15.8953 3.89931 15.0011 3.25695L15.5612 2.06475C15.7616 1.63309 15.5766 1.1192 15.145 0.91365L13.9322 0.34838C13.5006 0.147966 12.9867 0.332963 12.7811 0.764624L12.2261 1.95169C11.1573 1.6742 10.0216 1.61253 8.89104 1.79239L8.4491 0.569349C8.28466 0.122272 7.79133 -0.108975 7.33911 0.0503281L6.08524 0.507683C5.63816 0.672126 5.40692 1.16545 5.56622 1.61767L6.00816 2.83043C5.01637 3.41626 4.1736 4.18708 3.52611 5.08637L2.36987 4.5468C1.93821 4.34638 1.42433 4.53138 1.21878 4.96304L0.653507 6.1758C0.442815 6.59719 0.627812 7.11107 1.06461 7.31662ZM19.5233 12.6815V12.6558C19.5233 12.3681 19.2972 12.1265 19.0042 12.1111L18.1615 12.0751C17.8583 12.0597 17.6065 12.2961 17.5911 12.5942L17.5551 13.3958C16.8614 13.4935 16.1779 13.735 15.5612 14.1153L15.0217 13.5243C14.8161 13.3033 14.4718 13.2879 14.2508 13.4883L13.629 14.0587C13.5108 14.1666 13.4543 14.3157 13.4543 14.4596C13.4543 14.5932 13.5006 14.7216 13.5982 14.8296L14.1378 15.4205C13.701 16.0012 13.4029 16.659 13.2436 17.3424L12.442 17.3065C12.1388 17.291 11.887 17.5274 11.8716 17.8255L11.8356 18.6683V18.6939C11.8356 18.9817 12.0617 19.2232 12.3546 19.2387L13.1614 19.2746C13.2642 19.9684 13.5057 20.6467 13.8911 21.2582L13.2899 21.8081C13.1717 21.916 13.1152 22.065 13.1152 22.2089C13.1152 22.3425 13.1614 22.471 13.259 22.5789L13.8294 23.2007C14.035 23.4217 14.3793 23.4371 14.6003 23.2367L15.2067 22.6817C15.7873 23.1133 16.44 23.4062 17.1183 23.5655L17.0823 24.3929V24.4186C17.0823 24.7064 17.3084 24.9479 17.6013 24.9633L18.4441 24.9993C18.7473 25.0147 18.9991 24.7783 19.0145 24.4803L19.0505 23.6529C19.7391 23.5553 20.4071 23.3137 21.0187 22.9335L21.5788 23.5501C21.7843 23.7711 22.1286 23.7865 22.3496 23.5861L22.9714 23.0157C23.0896 22.9078 23.1461 22.7588 23.1461 22.6149C23.1461 22.4813 23.0999 22.3528 23.0022 22.2449L22.4421 21.6282C22.8738 21.0527 23.1718 20.4052 23.3311 19.7268L24.1585 19.7628C24.4617 19.7782 24.7135 19.5419 24.7289 19.2438L24.7649 18.401V18.3753C24.7649 18.0876 24.5387 17.846 24.2458 17.8306L23.4185 17.7947C23.3208 17.106 23.0845 16.4277 22.7042 15.8162L23.3106 15.2612C23.4288 15.1533 23.4853 15.0043 23.4853 14.8604C23.4853 14.7268 23.439 14.5983 23.3414 14.4904L22.771 13.8686C22.5654 13.6476 22.2211 13.6322 22.0002 13.8326L21.3989 14.3825C20.8182 13.9457 20.1656 13.6425 19.4873 13.4832L19.5233 12.6815ZM20.3712 16.6436C20.8645 17.1831 21.106 17.8615 21.106 18.5398C21.106 19.3003 20.7977 20.0609 20.1913 20.6107C19.0454 21.659 17.2725 21.5768 16.2241 20.436C15.7308 19.8964 15.4893 19.2181 15.4893 18.5398C15.4893 17.7792 15.7976 17.0187 16.404 16.4688C17.5448 15.4205 19.3228 15.4976 20.3712 16.6436ZM6.03899 9.90144C6.03899 7.60438 7.90438 5.73899 10.2014 5.73899C12.4985 5.73899 14.3639 7.60438 14.3639 9.90144C14.3639 12.1985 12.4985 14.0639 10.2014 14.0639C7.90438 14.0639 6.03899 12.1985 6.03899 9.90144ZM8.84479 9.90144C8.84479 9.15117 9.45117 8.54479 10.2014 8.54479C10.5406 8.54479 10.8232 8.26729 10.8232 7.92299C10.8232 7.57869 10.5457 7.30119 10.2014 7.30119C8.7677 7.30119 7.60119 8.4677 7.60119 9.90144C7.60119 10.2457 7.87869 10.5232 8.22299 10.5232C8.56729 10.5232 8.84479 10.2457 8.84479 9.90144Z" fill="white"/>
</g>
<defs>
<clipPath id="clip0_1253_5389">
<rect width="25" height="25" fill="white"/>
</clipPath>
</defs>
</svg>
