<svg width="214" height="45" viewBox="0 0 214 45" fill="none" xmlns="http://www.w3.org/2000/svg">
<path d="M101.327 22.5004C101.327 24.196 101.038 25.783 100.462 27.2628C99.8853 28.7427 99.0821 30.0395 98.0522 31.1518C97.0214 32.2646 95.7911 33.1425 94.36 33.7856C92.9277 34.4287 91.3676 34.7502 89.679 34.7502H79.3594V10.251H89.679C91.3676 10.251 92.9277 10.5778 94.36 11.2311C95.7911 11.8847 97.0214 12.7622 98.0522 13.8644C99.0821 14.9666 99.8853 16.2638 100.462 17.7538C101.038 19.2443 101.327 20.8272 101.327 22.5004ZM96.4765 22.3783C96.4975 21.235 96.3221 20.1536 95.9513 19.1316C95.5805 18.1116 95.0442 17.2174 94.3448 16.4518C93.6439 15.6862 92.7844 15.0851 91.7647 14.6455C90.7455 14.2063 89.5965 13.9865 88.3194 13.9865H84.1484V30.7078H88.3194C89.5756 30.7078 90.7044 30.4986 91.7027 30.0798C92.701 29.661 93.5511 29.0789 94.2516 28.3341C94.9526 27.5893 95.493 26.7113 95.8737 25.7003C96.2548 24.6905 96.4556 23.5835 96.4765 22.3783Z" fill="white"/>
<path d="M109.824 34.7494H105.035V10.2815H109.824V34.7494Z" fill="white"/>
<path d="M139.115 34.7494H134.419V18.3969L126.631 31.4115L119.155 18.274V34.7494H114.458V10.2502H119.865L126.725 22.408L133.893 10.2502H139.115V34.7494Z" fill="white"/>
<path d="M168.684 34.7494H163.431L161.145 29.8498H149.156L146.838 34.7494H141.586L153.265 10.2502H157.004L168.684 34.7494ZM159.259 25.8998L155.15 17.0798L150.979 25.8998H159.259Z" fill="white"/>
<path d="M191.702 34.7494H187.006L175.853 17.5695V34.7494H171.155V10.2502H176.532L187.006 26.236V10.2502H191.703V34.7494H191.702Z" fill="white"/>
<path d="M213.3 14.5071H206.472V34.7494H201.621V14.5071H194.793V10.2815H213.3V14.5071Z" fill="white"/>
<path d="M39.2498 0L32.3653 2.80024L12.1626 37.4292L5.20867 34.5821L21.1028 7.34045L15.8777 9.5436L0 36.7613L12.9958 45L39.2498 0Z" fill="#682F24"/>
<path d="M21.1029 15.8034V7.34045L5.2087 34.5911H10.1595L21.1029 15.8034Z" fill="#E2231A"/>
<path d="M12.1626 37.4292L13.2131 35.629L10.1595 34.5911H5.2087L12.1626 37.4292Z" fill="#A03123"/>
<path d="M36.6931 39.1639L32.1411 37.9652L29.0136 43.3341L33.2946 45L36.6931 39.1639Z" fill="#682F24"/>
<path d="M32.1411 37.9652H49.052L55.0019 39.1639H36.6931L32.1411 37.9652Z" fill="#A03123"/>
<path d="M36.6237 16.6284L39.2498 12.1216L55.0019 39.1639L49.052 37.9652L36.6237 16.6284Z" fill="#682F24"/>
<path d="M23.4973 39.1639L39.2498 12.1216L55.0018 39.1639H36.6931L33.2945 45H65.5033L39.2498 0L12.9958 45H20.0971L23.4973 39.1639Z" fill="#E2231A"/>
</svg>
