<svg width="241" height="35" viewBox="0 0 241 35" fill="none" xmlns="http://www.w3.org/2000/svg">
<path fill-rule="evenodd" clip-rule="evenodd" d="M69.5796 21.9616V29.3592C69.5823 31.3493 69.115 32.1877 68.0825 33.0419C66.4789 34.3668 63.3691 34.927 59.7914 34.927C56.2141 34.927 53.2167 34.3668 51.6121 33.0419C50.5823 32.1877 50.09 31.3493 50.09 29.3592V21.9616H56.7749V28.9077C56.7743 31.3143 57.8374 32.0679 59.8547 32.0679C61.8764 32.0679 62.9252 31.3143 62.9241 28.9077V21.9616H69.5796Z" fill="#104F8C"/>
<path fill-rule="evenodd" clip-rule="evenodd" d="M87.6122 34.561L78.1382 28.1745V34.561H74.1844V21.9618H79.891L89.3606 28.4084V21.9618H93.2925V34.561H87.6122Z" fill="#104F8C"/>
<path fill-rule="evenodd" clip-rule="evenodd" d="M104.927 24.8203H107.983C111.013 24.8203 112.735 25.5865 112.735 28.2608C112.735 30.7603 111.013 31.7004 107.983 31.7004H104.93L104.927 24.8203ZM98.2809 21.9618V34.561H108.669C116.237 34.561 119.756 33.2115 119.756 28.2318C119.756 23.2528 116.237 21.9618 108.666 21.9618H98.2809Z" fill="#104F8C"/>
<path fill-rule="evenodd" clip-rule="evenodd" d="M159.315 28.2606C159.315 31.0471 157.91 32.0564 154.695 32.0564C151.833 32.0564 150.119 31.0471 150.119 28.2606C150.119 25.4639 151.833 24.4713 154.695 24.4713C157.622 24.4713 159.315 25.4639 159.315 28.2606ZM166.575 28.1765C166.575 24.1221 162.95 21.5888 154.752 21.5888C146.449 21.5888 142.866 24.0959 142.866 28.194C142.866 32.7353 146.449 34.9319 154.752 34.9319C162.95 34.9319 166.575 32.725 166.575 28.1765Z" fill="#104F8C"/>
<path fill-rule="evenodd" clip-rule="evenodd" d="M35.6189 28.4707L39.7574 34.561H47.0583L42.8089 29.1014C43.492 29.0254 46.2374 28.8101 46.2374 25.5418C46.2374 21.9842 41.9634 21.9618 39.212 21.9618H26.8144V34.561H33.4146L33.4174 24.5755H36.4808C37.956 24.5755 39.3032 24.852 39.3032 26.3463C39.3032 28.004 38.7168 28.4707 35.6189 28.4707Z" fill="#104F8C"/>
<path fill-rule="evenodd" clip-rule="evenodd" d="M130.615 24.9766H139.666L141.554 21.9618H123.84V34.561H130.615V30.8991H137.975L139.863 27.8952H130.615V24.9766Z" fill="#104F8C"/>
<path fill-rule="evenodd" clip-rule="evenodd" d="M0.642944 28.4171C0.642944 33.0218 4.37863 34.8643 12.6125 34.8643C16.1887 34.8643 19.5648 34.6341 22.2763 34.1318V28.2853H15.636V31.7898C14.82 31.8861 14.2085 31.9446 13.246 31.9446C8.61773 31.9446 7.73457 30.2579 7.73457 28.346C7.73457 26.5139 8.79207 24.6694 13.7178 24.6694C16.4193 24.6694 18.0688 24.8229 20.5048 25.2383L22.3861 22.2447C18.1371 21.7277 15.1081 21.6753 12.6486 21.6753C4.4497 21.6753 0.642944 23.832 0.642944 28.4171Z" fill="#104F8C"/>
<path fill-rule="evenodd" clip-rule="evenodd" d="M169.09 34.5744C172.003 34.8275 173.27 34.9998 178.584 34.9998C186.295 34.9998 189.68 33.8919 189.68 30.7966C189.68 28.0503 185.95 27.3949 182.473 26.8789C179.599 26.4533 177.911 26.4636 177.911 25.2967C177.911 24.1292 180.883 24.1883 182.802 24.1883C183.799 24.1883 186.144 24.3139 187.679 24.6173L189.318 21.9561C188.039 21.8157 184.594 21.5293 180.752 21.5293C173.829 21.5293 169.61 22.5181 169.61 25.2623C169.61 28.1688 173.301 28.5716 176.896 29.1138C179.803 29.5527 181.362 29.527 181.362 30.6661C181.362 31.9505 178.814 32.0231 176.241 32.0231C175.151 32.0231 172.884 31.8975 170.997 31.4684L169.09 34.5744Z" fill="#104F8C"/>
<path fill-rule="evenodd" clip-rule="evenodd" d="M218.527 21.8381C219.089 22.1973 220.077 23.1051 220.871 23.8976C221.616 24.6431 222.569 25.6356 222.985 26.2412L214.665 34.563H205.799L218.527 21.8381Z" fill="#104F8C"/>
<path fill-rule="evenodd" clip-rule="evenodd" d="M240.09 0.28113C240.09 0.28113 240.09 9.11837 240.09 9.14496C240.069 9.16595 226.767 22.4691 226.767 22.4691C226.067 21.7171 225.402 21.035 224.675 20.3201C217.135 12.9018 209.397 8.5489 207.333 10.5791C205.727 12.1588 208.076 17.0697 212.457 22.4292L210.626 24.252C207.265 20.2331 204.682 16.1433 203.332 12.6975C202.285 10.0251 201.595 6.68941 203.321 4.96421C204.868 3.41671 207.997 3.57481 212.124 5.42313C216.312 7.29944 221.099 10.6953 225.52 14.8494L240.09 0.28113Z" fill="#104F8C"/>
<path fill-rule="evenodd" clip-rule="evenodd" d="M232.618 22.2808C235.663 25.8871 238.931 31.0421 240.092 34.563H235.174C234.1 31.8018 231.447 27.7694 229.312 25.5832L232.618 22.2808Z" fill="#104F8C"/>
<path fill-rule="evenodd" clip-rule="evenodd" d="M195.992 21.528C196.365 21.528 196.714 21.6232 197.038 21.8112C197.363 21.9987 197.62 22.255 197.808 22.5785C197.997 22.9016 198.091 23.2503 198.091 23.6257C198.091 24.0012 197.997 24.3505 197.809 24.6724C197.622 24.9965 197.366 25.2518 197.043 25.4382C196.717 25.6255 196.367 25.719 195.992 25.719C195.613 25.719 195.261 25.6266 194.937 25.4387C194.614 25.2533 194.358 24.9993 194.17 24.6751C193.983 24.3516 193.889 24.0012 193.889 23.6257C193.889 23.2486 193.983 22.8999 194.171 22.5759C194.358 22.2534 194.615 21.9976 194.94 21.8095C195.264 21.6215 195.614 21.528 195.992 21.528ZM195.992 21.8763C195.509 21.8763 195.098 22.0473 194.755 22.3899C194.412 22.7316 194.241 23.1437 194.241 23.6257C194.241 24.1099 194.412 24.5216 194.753 24.861C195.093 25.2009 195.506 25.372 195.992 25.372C196.473 25.372 196.884 25.2009 197.224 24.8605C197.566 24.5188 197.738 24.1073 197.738 23.6257C197.738 23.1437 197.566 22.7316 197.224 22.3899C196.882 22.0473 196.472 21.8763 195.992 21.8763Z" fill="#104F8C"/>
<path fill-rule="evenodd" clip-rule="evenodd" d="M195.219 22.4502H195.184V24.7534H195.592C195.592 24.7534 195.592 23.85 195.592 23.7849C195.646 23.7849 195.895 23.7849 195.927 23.7849C195.947 23.8167 196.516 24.7534 196.516 24.7534H196.98C196.98 24.7534 196.382 23.8287 196.336 23.7559C196.697 23.6931 196.894 23.4767 196.894 23.1197C196.894 22.6689 196.624 22.4502 196.07 22.4502H195.219ZM196.018 22.8055C196.328 22.8055 196.47 22.8989 196.47 23.0996C196.47 23.4045 196.26 23.428 195.962 23.428C195.962 23.428 195.652 23.428 195.592 23.428C195.592 23.3691 195.592 22.8651 195.592 22.8055C195.652 22.8055 196.018 22.8055 196.018 22.8055Z" fill="#104F8C"/>
</svg>
